SplineFontDB: 3.0
FontName: Unna-Italic
FullName: Unna-Italic
FamilyName: Unna
Weight: Regular
Copyright: Copyright (c) 2011-2014, Omnibus-Type (www.omnibus-type.com omnibus.type@gmail.com) with Reserved Font Name 'Unna'

StartChar: .notdef
Encoding: 65536 -1 0
Width: 555
Flags: MW
HStem: 0 50<135 475 135 555> 650 50<135 475 135 135>
LayerCount: 2
Fore
SplineSet
55 0 m 1
 55 700 l 1
 555 700 l 1
 555 0 l 1
 55 0 l 1
305 395 m 1
 475 650 l 1
 135 650 l 1
 305 395 l 1
335 350 m 1
 505 95 l 1
 505 605 l 1
 335 350 l 1
135 50 m 1
 475 50 l 1
 305 305 l 1
 135 50 l 1
105 605 m 1
 105 95 l 1
 275 350 l 1
 105 605 l 1
EndSplineSet
EndChar

StartChar: A
Encoding: 65 65 1
Width: 580
Flags: MW
HStem: 0 27<-16 -4 -16 119 536 541> 208 28<154 353 154 361 139 353> 587 20G<326 355 355 355>
VStem: -51 626<0 29>
LayerCount: 2
Fore
SplineSet
575 29 m 1
 571 0 l 1
 312 0 l 1
 316 29 l 1
 369 27 l 2
 389 26 396 40 396 58 c 0
 396 67 395 80 392 90 c 2
 361 208 l 1
 139 208 l 1
 79 96 l 2
 68 76 58 56 58 41 c 0
 58 32 62 26 72 26 c 2
 123 29 l 1
 119 0 l 1
 -51 0 l 1
 -47 29 l 1
 -16 27 l 1
 8 27 28 58 53 104 c 2
 326 607 l 1
 355 607 l 1
 486 102 l 2
 499 53 509 27 536 27 c 2
 541 27 l 1
 575 29 l 1
353 236 m 1
 288 484 l 1
 154 236 l 1
 353 236 l 1
EndSplineSet
Substitution2: "Single Substitution lookup 21 subtable" ordfeminine
Substitution2: "'aalt' Access All Alternates lookup 0 subtable" ordfeminine
Position2: "'cpsp' Capital Spacing lookup 0 per glyph data 2" dx=5 dy=0 dh=10 dv=0
EndChar

StartChar: Aacute
Encoding: 193 193 2
Width: 580
Flags: MW
HStem: 0 27<-16 -4 -16 119 536 541> 208 28<154 353 154 361 139 353> 587 20G<326 355 355 355>
VStem: -51 626<0 29>
LayerCount: 2
Fore
SplineSet
419 805 m 2
 434 821 439 826 454 826 c 0
 478 826 508 808 508 800 c 0
 508 795 502 791 498 788 c 2
 327 675 l 2
 323 672 314 666 306 666 c 0
 296 666 292 669 292 673 c 0
 292 678 302 687 312 697 c 2
 419 805 l 2
571 0 m 1
 312 0 l 1
 316 29 l 1
 369 27 l 2
 389 26 396 40 396 58 c 0
 396 67 395 80 392 90 c 2
 361 208 l 1
 139 208 l 1
 79 96 l 2
 68 76 58 56 58 41 c 0
 58 32 62 26 72 26 c 2
 123 29 l 1
 119 0 l 1
 -51 0 l 1
 -47 29 l 1
 -16 27 l 1
 8 27 28 58 53 104 c 2
 326 607 l 1
 355 607 l 1
 486 102 l 2
 499 53 509 27 536 27 c 2
 541 27 l 1
 575 29 l 1
 571 0 l 1
288 484 m 1
 154 236 l 1
 353 236 l 1
 288 484 l 1
EndSplineSet
Position2: "'cpsp' Capital Spacing lookup 0 per glyph data 2" dx=5 dy=0 dh=10 dv=0
EndChar

StartChar: Abreve
Encoding: 258 258 3
Width: 580
Flags: MW
HStem: 0 27<-16 -4 -16 119 536 541> 208 28<154 353 154 361 139 353> 587 20G<326 355 355 355> 666 50<338 389 338 395>
VStem: 249 44<790 790>
LayerCount: 2
Fore
SplineSet
500 790 m 1
 482 717 433 666 357 666 c 0
 282 666 247 717 249 790 c 1
 293 790 l 1
 296 754 312 716 364 716 c 0
 414 716 444 754 457 790 c 1
 500 790 l 1
571 0 m 1
 312 0 l 1
 316 29 l 1
 369 27 l 2
 389 26 396 40 396 58 c 0
 396 67 395 80 392 90 c 2
 361 208 l 1
 139 208 l 1
 79 96 l 2
 68 76 58 56 58 41 c 0
 58 32 62 26 72 26 c 2
 123 29 l 1
 119 0 l 1
 -51 0 l 1
 -47 29 l 1
 -16 27 l 1
 8 27 28 58 53 104 c 2
 326 607 l 1
 355 607 l 1
 486 102 l 2
 499 53 509 27 536 27 c 2
 541 27 l 1
 575 29 l 1
 571 0 l 1
288 484 m 1
 154 236 l 1
 353 236 l 1
 288 484 l 1
EndSplineSet
EndChar

StartChar: Acircumflex
Encoding: 194 194 4
Width: 580
Flags: MW
HStem: 0 27<-16 -4 -16 119 536 541> 208 28<154 353 154 361 139 353> 587 20G<326 355 355 355>
VStem: -51 626<0 29>
LayerCount: 2
Fore
SplineSet
249 678 m 2
 240 673 228 666 220 666 c 0
 211 666 209 670 209 673 c 0
 209 681 249 705 295 749 c 2
 345 797 l 2
 361 812 374 822 379 822 c 0
 382 822 393 813 405 797 c 2
 441 749 l 2
 475 703 506 682 506 674 c 0
 506 672 504 666 493 666 c 0
 486 666 473 673 466 678 c 2
 369 751 l 1
 249 678 l 2
571 0 m 1
 312 0 l 1
 316 29 l 1
 369 27 l 2
 389 26 396 40 396 58 c 0
 396 67 395 80 392 90 c 2
 361 208 l 1
 139 208 l 1
 79 96 l 2
 68 76 58 56 58 41 c 0
 58 32 62 26 72 26 c 2
 123 29 l 1
 119 0 l 1
 -51 0 l 1
 -47 29 l 1
 -16 27 l 1
 8 27 28 58 53 104 c 2
 326 607 l 1
 355 607 l 1
 486 102 l 2
 499 53 509 27 536 27 c 2
 541 27 l 1
 575 29 l 1
 571 0 l 1
288 484 m 1
 154 236 l 1
 353 236 l 1
 288 484 l 1
EndSplineSet
Position2: "'cpsp' Capital Spacing lookup 0 per glyph data 2" dx=5 dy=0 dh=10 dv=0
EndChar

StartChar: Adieresis
Encoding: 196 196 5
Width: 580
Flags: MW
HStem: 0 27<-16 -4 -16 119 536 541> 208 28<154 353 154 361 139 353> 587 20G<326 355 355 355> 677 95<269 290 443 464>
VStem: 224 109<714 734.5> 398 109<714 734.5>
LayerCount: 2
Fore
SplineSet
286 772 m 0
 315 772 333 756 333 731 c 0
 333 697 308 677 272 677 c 0
 244 677 224 692 224 718 c 0
 224 751 252 772 286 772 c 0
460 772 m 0
 489 772 507 756 507 731 c 0
 507 697 482 677 446 677 c 0
 418 677 398 692 398 718 c 0
 398 751 426 772 460 772 c 0
571 0 m 1
 312 0 l 1
 316 29 l 1
 369 27 l 2
 389 26 396 40 396 58 c 0
 396 67 395 80 392 90 c 2
 361 208 l 1
 139 208 l 1
 79 96 l 2
 68 76 58 56 58 41 c 0
 58 32 62 26 72 26 c 2
 123 29 l 1
 119 0 l 1
 -51 0 l 1
 -47 29 l 1
 -16 27 l 1
 8 27 28 58 53 104 c 2
 326 607 l 1
 355 607 l 1
 486 102 l 2
 499 53 509 27 536 27 c 2
 541 27 l 1
 575 29 l 1
 571 0 l 1
288 484 m 1
 154 236 l 1
 353 236 l 1
 288 484 l 1
EndSplineSet
Position2: "'cpsp' Capital Spacing lookup 0 per glyph data 2" dx=5 dy=0 dh=10 dv=0
EndChar

StartChar: Agrave
Encoding: 192 192 6
Width: 580
Flags: MW
HStem: 0 27<-16 -4 -16 119 536 541> 208 28<154 353 154 361 139 353> 587 20G<326 355 355 355>
VStem: -51 626<0 29>
LayerCount: 2
Fore
SplineSet
247 788 m 2
 244 791 241 794 241 799 c 0
 241 808 276 826 301 826 c 0
 316 826 318 821 330 805 c 2
 412 691 l 2
 417 683 421 677 421 674 c 0
 421 669 416 666 404 666 c 0
 396 666 389 672 386 675 c 2
 247 788 l 2
571 0 m 1
 312 0 l 1
 316 29 l 1
 369 27 l 2
 389 26 396 40 396 58 c 0
 396 67 395 80 392 90 c 2
 361 208 l 1
 139 208 l 1
 79 96 l 2
 68 76 58 56 58 41 c 0
 58 32 62 26 72 26 c 2
 123 29 l 1
 119 0 l 1
 -51 0 l 1
 -47 29 l 1
 -16 27 l 1
 8 27 28 58 53 104 c 2
 326 607 l 1
 355 607 l 1
 486 102 l 2
 499 53 509 27 536 27 c 2
 541 27 l 1
 575 29 l 1
 571 0 l 1
288 484 m 1
 154 236 l 1
 353 236 l 1
 288 484 l 1
EndSplineSet
Position2: "'cpsp' Capital Spacing lookup 0 per glyph data 2" dx=5 dy=0 dh=10 dv=0
EndChar

StartChar: Amacron
Encoding: 256 256 7
Width: 580
Flags: MW
HStem: 0 27<-16 -4 -16 119 536 541> 208 28<154 353 154 361 139 353> 587 20G<326 355 355 355> 676 40<241 477 235 483>
VStem: -51 626<0 29>
LayerCount: 2
Fore
SplineSet
477 676 m 1
 235 676 l 1
 241 716 l 1
 483 716 l 1
 477 676 l 1
571 0 m 1
 312 0 l 1
 316 29 l 1
 369 27 l 2
 389 26 396 40 396 58 c 0
 396 67 395 80 392 90 c 2
 361 208 l 1
 139 208 l 1
 79 96 l 2
 68 76 58 56 58 41 c 0
 58 32 62 26 72 26 c 2
 123 29 l 1
 119 0 l 1
 -51 0 l 1
 -47 29 l 1
 -16 27 l 1
 8 27 28 58 53 104 c 2
 326 607 l 1
 355 607 l 1
 486 102 l 2
 499 53 509 27 536 27 c 2
 541 27 l 1
 575 29 l 1
 571 0 l 1
288 484 m 1
 154 236 l 1
 353 236 l 1
 288 484 l 1
EndSplineSet
EndChar

StartChar: Aogonek
Encoding: 260 260 8
Width: 580
Flags: MW
HStem: -159 43<491.5 558.5> 0 27<-16 -4 -16 119 539 539 539 541> 208 28<154 353 154 361 139 353> 587 20G<326 355 355 355>
VStem: 445 58<-83.5 -79.5>
LayerCount: 2
Fore
SplineSet
629 -99 m 1
 593 -137 550 -159 508 -159 c 0
 475 -159 445 -138 445 -97 c 0
 445 -62 466 -26 507 0 c 1
 312 0 l 1
 316 29 l 1
 369 27 l 2
 389 26 396 40 396 58 c 0
 396 67 395 80 392 90 c 2
 361 208 l 1
 139 208 l 1
 79 96 l 2
 68 76 58 56 58 41 c 0
 58 32 62 26 72 26 c 2
 123 29 l 1
 119 0 l 1
 -51 0 l 1
 -47 29 l 1
 -16 27 l 1
 8 27 28 58 53 104 c 2
 326 607 l 1
 355 607 l 1
 486 102 l 2
 499 53 509 27 536 27 c 2
 541 27 l 1
 575 29 l 1
 571 0 l 1
 539 0 l 1
 517 -18 503 -43 503 -71 c 0
 503 -96 516 -116 548 -116 c 0
 569 -116 592 -105 617 -85 c 1
 629 -99 l 1
353 236 m 1
 288 484 l 1
 154 236 l 1
 353 236 l 1
EndSplineSet
EndChar

StartChar: Aring
Encoding: 197 197 9
Width: 580
Flags: MW
HStem: 0 27<-16 -4 -16 119 536 541> 208 28<154 353 154 361 139 353> 587 20G<326 355 355 355> 666 36<351 373.5 351 383> 793 36<361.5 384.5>
VStem: 287 45<730.5 755.5 730.5 764> 404 46<740.5 765>
LayerCount: 2
Fore
SplineSet
287 738 m 0
 287 790 330 829 379 829 c 0
 424 829 450 802 450 758 c 0
 450 704 410 666 356 666 c 0
 312 666 287 694 287 738 c 0
332 742 m 0
 332 719 341 702 361 702 c 0
 386 702 404 727 404 754 c 0
 404 776 395 793 374 793 c 0
 349 793 332 769 332 742 c 0
571 0 m 1
 312 0 l 1
 316 29 l 1
 369 27 l 2
 389 26 396 40 396 58 c 0
 396 67 395 80 392 90 c 2
 361 208 l 1
 139 208 l 1
 79 96 l 2
 68 76 58 56 58 41 c 0
 58 32 62 26 72 26 c 2
 123 29 l 1
 119 0 l 1
 -51 0 l 1
 -47 29 l 1
 -16 27 l 1
 8 27 28 58 53 104 c 2
 326 607 l 1
 355 607 l 1
 486 102 l 2
 499 53 509 27 536 27 c 2
 541 27 l 1
 575 29 l 1
 571 0 l 1
288 484 m 1
 154 236 l 1
 353 236 l 1
 288 484 l 1
EndSplineSet
Position2: "'cpsp' Capital Spacing lookup 0 per glyph data 2" dx=5 dy=0 dh=10 dv=0
EndChar

StartChar: Atilde
Encoding: 195 195 10
Width: 580
Flags: MW
HStem: 0 27<-16 -4 -16 119 536 541> 208 28<154 353 154 361 139 353> 587 20G<326 355 355 355> 675 49<431.5 451.5> 718 49<274.5 295>
VStem: 216 20<676 676> 490 20<766 766>
LayerCount: 2
Fore
SplineSet
216 676 m 1xee
 223 725 256 767 293 767 c 0xee
 336 767 412 724 451 724 c 0
 470 724 487 742 490 766 c 1
 510 766 l 1
 503 717 470 675 433 675 c 0xf6
 389 675 315 718 275 718 c 0
 256 718 240 700 236 676 c 1
 216 676 l 1xee
571 0 m 1
 312 0 l 1
 316 29 l 1
 369 27 l 2
 389 26 396 40 396 58 c 0
 396 67 395 80 392 90 c 2
 361 208 l 1
 139 208 l 1
 79 96 l 2
 68 76 58 56 58 41 c 0
 58 32 62 26 72 26 c 2
 123 29 l 1
 119 0 l 1
 -51 0 l 1
 -47 29 l 1
 -16 27 l 1
 8 27 28 58 53 104 c 2
 326 607 l 1
 355 607 l 1
 486 102 l 2
 499 53 509 27 536 27 c 2
 541 27 l 1
 575 29 l 1
 571 0 l 1
288 484 m 1
 154 236 l 1
 353 236 l 1
 288 484 l 1
EndSplineSet
Position2: "'cpsp' Capital Spacing lookup 0 per glyph data 2" dx=5 dy=0 dh=10 dv=0
EndChar

StartChar: AE
Encoding: 198 198 11
Width: 818
Flags: MW
HStem: 0 27<-12 -5 67 71 386 388 388 394 523 587 587 631.5> 208 28<188 401 188 403 168 401> 297 27<496 571 496 575> 406 20G<660 689 689 689> 443 154<761 777 777 784 327 789 761 761> 569 28<487 643 487 487>
VStem: 395.5 96 406 95 629 27<195 242.5> 660 29<426 426> 763 26
LayerCount: 2
Fore
SplineSet
789 443 m 1xfa20
 761 443 l 1xfa20
 763 454 763 464 763 474 c 0
 763 540 724 569 643 569 c 2
 487 569 l 1
 496 324 l 1
 575 324 l 2
 615 324 651 365 660 426 c 1
 689 426 l 1xf660
 656 195 l 1
 627 195 l 1
 628 203 629 211 629 219 c 0
 629 266 605 297 571 297 c 2
 496 297 l 1
 506 46 l 1
 508 35 513 27 523 27 c 2
 587 27 l 2
 676 27 728 75 741 171 c 1
 770 171 l 1
 746 -3 l 1
 710 0 674 0 660 0 c 2
 326 0 l 1
 330 30 l 1
 386 27 l 2
 387 27 387 27 388 27 c 0
 400 27 407 37 409 47 c 1
 403 208 l 1
 168 208 l 1
 77 80 l 2
 67 66 60 50 60 39 c 0
 60 32 63 27 71 27 c 2
 125 30 l 1
 121 0 l 1
 -51 0 l 1
 -47 30 l 1
 -12 27 l 1
 2 27 21 48 49 86 c 2
 383 543 l 2
 385 546 386 549 386 552 c 0
 386 559 380 567 373 567 c 2
 322 565 l 1
 327 597 l 1
 777 597 l 2
 791 597 803 598 811 599 c 1xf580
 789 443 l 1xfa20
188 236 m 1
 401 236 l 1
 390 511 l 1
 188 236 l 1
EndSplineSet
Position2: "'cpsp' Capital Spacing lookup 0 per glyph data 2" dx=5 dy=0 dh=10 dv=0
EndChar

StartChar: B
Encoding: 66 66 12
Width: 555
Flags: MW
HStem: 0 28<192 260 260 272> 299 28<218 294 222 294 294 316> 569 28<149 153 263.5 266 266 322>
VStem: 415 96<139 219.5 122 227> 425 96<433.5 501.5>
LayerCount: 2
Fore
SplineSet
370 597 m 2xe8
 468 597 521 556 521 476 c 0xe8
 521 391 455 333 366 317 c 1
 450 317 511 259 511 180 c 0xf0
 511 64 432 0 272 0 c 2
 18 0 l 1
 22 29 l 1
 72 27 l 2
 82 27 88 34 90 49 c 2
 160 549 l 2
 160 550 160 551 160 552 c 0
 160 561 157 569 149 569 c 2
 98 567 l 1
 102 597 l 1
 370 597 l 2xe8
266 569 m 2
 261 569 256 565 254 557 c 2
 222 327 l 1
 294 327 l 2
 383 327 425 382 425 471 c 0
 425 532 389 569 322 569 c 2
 266 569 l 2
218 299 m 1xf0
 182 41 l 2
 182 39 181 38 181 37 c 0
 181 31 185 28 192 28 c 2
 260 28 l 2
 349 28 415 87 415 191 c 0
 415 263 381 299 316 299 c 2
 218 299 l 1xf0
EndSplineSet
Position2: "'cpsp' Capital Spacing lookup 0 per glyph data 2" dx=5 dy=0 dh=10 dv=0
EndChar

StartChar: C
Encoding: 67 67 13
Width: 585
Flags: MW
HStem: -10 27<256 347.5> 35 132<507 509 509 516> 433 131<544.5 566 540 584> 582 25<312 423>
VStem: 49 101<174 336 174 355.5>
LayerCount: 2
Fore
SplineSet
509 35 m 2
 443 35 398 -10 297 -10 c 0
 140 -10 49 87 49 245 c 0
 49 466 181 607 388 607 c 0x98
 507 607 505 564 584 564 c 1
 572 518 565 467 565 448 c 0
 565 441 565 434 566 433 c 1xb8
 540 433 l 1
 534 515 466 582 380 582 c 0
 244 582 150 432 150 240 c 0
 150 108 207 17 305 17 c 0x98
 395 17 477 82 507 167 c 1
 538 167 l 1xd8
 519 89 516 73 516 47 c 2
 516 35 l 1
 509 35 l 2
EndSplineSet
Position2: "'cpsp' Capital Spacing lookup 0 per glyph data 2" dx=5 dy=0 dh=10 dv=0
EndChar

StartChar: Cacute
Encoding: 262 262 14
Width: 585
Flags: MW
HStem: -10 27<256 347.5> 35 132<507 509 509 516> 433 131<544.5 566 540 584> 582 25<312 423>
VStem: 49 101<174 336 174 355.5>
LayerCount: 2
Fore
SplineSet
427 805 m 2
 442 821 447 826 462 826 c 0
 486 826 516 808 516 800 c 0
 516 795 510 791 506 788 c 2
 335 675 l 2
 331 672 322 666 314 666 c 0
 304 666 300 669 300 673 c 0
 300 678 310 687 320 697 c 2
 427 805 l 2
509 35 m 2
 443 35 398 -10 297 -10 c 0
 140 -10 49 87 49 245 c 0
 49 466 181 607 388 607 c 0x98
 507 607 505 564 584 564 c 1
 572 518 565 467 565 448 c 0
 565 441 565 434 566 433 c 1xb8
 540 433 l 1
 534 515 466 582 380 582 c 0
 244 582 150 432 150 240 c 0
 150 108 207 17 305 17 c 0x98
 395 17 477 82 507 167 c 1
 538 167 l 1xd8
 519 89 516 73 516 47 c 2
 516 35 l 1
 509 35 l 2
EndSplineSet
EndChar

StartChar: Ccaron
Encoding: 268 268 15
Width: 585
Flags: MW
HStem: -10 27<256 347.5> 35 132<507 509 509 516> 433 131<544.5 566 540 584> 582 25<312 423>
VStem: 49 101<174 336 174 355.5>
LayerCount: 2
Fore
SplineSet
494 812 m 2
 503 817 515 824 523 824 c 0
 532 824 534 820 534 817 c 0
 534 809 494 785 448 741 c 2
 398 693 l 2
 382 678 369 668 364 668 c 0
 361 668 350 677 338 693 c 2
 302 741 l 2
 268 787 237 808 237 816 c 0
 237 818 239 824 250 824 c 0
 257 824 270 817 277 812 c 2
 374 739 l 1
 494 812 l 2
509 35 m 2
 443 35 398 -10 297 -10 c 0
 140 -10 49 87 49 245 c 0
 49 466 181 607 388 607 c 0x98
 507 607 505 564 584 564 c 1
 572 518 565 467 565 448 c 0
 565 441 565 434 566 433 c 1xb8
 540 433 l 1
 534 515 466 582 380 582 c 0
 244 582 150 432 150 240 c 0
 150 108 207 17 305 17 c 0x98
 395 17 477 82 507 167 c 1
 538 167 l 1xd8
 519 89 516 73 516 47 c 2
 516 35 l 1
 509 35 l 2
EndSplineSet
EndChar

StartChar: Ccedilla
Encoding: 199 199 16
Width: 585
Flags: MW
HStem: -214 27<212.5 214.5 192.5 254.5> -27 20G<250 250> -10 27<284 297 284 284> 35 132<507 509 509 516> 433 131<544.5 566 540 584> 582 25<312 423>
VStem: 49 101<174 336 174 355.5> 202 49<-68.5 -64> 257 68<-143.5 -122.5>
LayerCount: 2
Fore
SplineSet
250 -7 m 1xc7
 122 11 49 103 49 245 c 0
 49 466 181 607 388 607 c 0xa6
 507 607 505 564 584 564 c 1
 572 518 565 467 565 448 c 0
 565 441 565 434 566 433 c 1xae
 540 433 l 1
 534 515 466 582 380 582 c 0
 244 582 150 432 150 240 c 0
 150 108 207 17 305 17 c 0xa6
 395 17 477 82 507 167 c 1
 538 167 l 1xb6
 519 89 516 73 516 47 c 2
 516 35 l 1
 509 35 l 2
 443 35 398 -10 297 -10 c 2
 284 -10 l 1
 260 -43 l 2
 254 -51 251 -59 251 -63 c 0xa7
 251 -85 325 -73 325 -117 c 0
 325 -170 288 -214 221 -214 c 0
 204 -214 176 -213 155 -198 c 1
 167 -171 l 1
 174 -182 186 -187 199 -187 c 0
 230 -187 257 -161 257 -130 c 0
 257 -115 244 -103 232 -94 c 2xa680
 212 -80 l 2
 206 -76 202 -71 202 -66 c 0
 202 -62 204 -58 211 -52 c 1
 250 -7 l 1xc7
EndSplineSet
Position2: "'cpsp' Capital Spacing lookup 0 per glyph data 2" dx=5 dy=0 dh=10 dv=0
EndChar

StartChar: D
Encoding: 68 68 17
Width: 613
Flags: MW
HStem: 0 28<180 224 224 248> 569 28<137 141.5 253 256 256 300>
VStem: 487 101<340.5 442.5>
LayerCount: 2
Fore
SplineSet
320 597 m 2
 497 597 588 531 588 362 c 0
 588 134 481 0 248 0 c 2
 18 0 l 1
 22 29 l 1
 65 27 l 2
 74 27 79 37 81 49 c 2
 151 548 l 2
 151 550 151 551 151 553 c 0
 151 562 146 569 137 569 c 2
 98 567 l 1
 102 597 l 1
 320 597 l 2
256 569 m 2
 250 569 245 565 244 556 c 2
 172 41 l 2
 172 39 171 38 171 37 c 0
 171 31 175 28 180 28 c 2
 224 28 l 2
 380 28 434 91 464 202 c 0
 477 250 487 308 487 373 c 0
 487 512 431 569 300 569 c 2
 256 569 l 2
EndSplineSet
Position2: "'cpsp' Capital Spacing lookup 0 per glyph data 2" dx=5 dy=0 dh=10 dv=0
EndChar

StartChar: Eth
Encoding: 208 208 18
Width: 613
Flags: MW
HStem: 0 28<180 224 224 248> 293 36<56 115 51 120 212 391> 569 28<137 141.5 253 256 256 300>
VStem: 487 101<340.5 442.5>
LayerCount: 2
Fore
SplineSet
320 597 m 2
 497 597 588 531 588 362 c 0
 588 134 481 0 248 0 c 2
 18 0 l 1
 22 29 l 1
 65 27 l 2
 74 27 79 37 81 49 c 2
 115 293 l 1
 51 293 l 1
 56 329 l 1
 120 329 l 1
 151 548 l 1
 151 553 l 2
 151 562 146 569 137 569 c 2
 98 567 l 1
 102 597 l 1
 320 597 l 2
224 28 m 2
 380 28 434 91 464 202 c 0
 477 250 487 308 487 373 c 0
 487 512 431 569 300 569 c 2
 256 569 l 2
 250 569 245 565 244 556 c 2
 212 329 l 1
 396 329 l 1
 391 293 l 1
 207 293 l 1
 172 41 l 2
 172 39 171 38 171 37 c 0
 171 31 175 28 180 28 c 2
 224 28 l 2
EndSplineSet
Position2: "'cpsp' Capital Spacing lookup 0 per glyph data 2" dx=5 dy=0 dh=10 dv=0
EndChar

StartChar: Dcaron
Encoding: 270 270 19
Width: 613
Flags: MW
HStem: 0 28<180 224 224 248> 569 28<137 141.5 253 256 256 300>
VStem: 487 101<340.5 442.5>
LayerCount: 2
Fore
SplineSet
499 812 m 2
 508 817 520 824 528 824 c 0
 537 824 539 820 539 817 c 0
 539 809 499 785 453 741 c 2
 403 693 l 2
 387 678 374 668 369 668 c 0
 366 668 355 677 343 693 c 2
 307 741 l 2
 273 787 242 808 242 816 c 0
 242 818 244 824 255 824 c 0
 262 824 275 817 282 812 c 2
 379 739 l 1
 499 812 l 2
320 597 m 2
 497 597 588 531 588 362 c 0
 588 134 481 0 248 0 c 2
 18 0 l 1
 22 29 l 1
 65 27 l 2
 74 27 79 37 81 49 c 2
 151 548 l 1
 151 553 l 2
 151 562 146 569 137 569 c 2
 98 567 l 1
 102 597 l 1
 320 597 l 2
256 569 m 2
 250 569 245 565 244 556 c 2
 172 41 l 2
 172 39 171 38 171 37 c 0
 171 31 175 28 180 28 c 2
 224 28 l 2
 380 28 434 91 464 202 c 0
 477 250 487 308 487 373 c 0
 487 512 431 569 300 569 c 2
 256 569 l 2
EndSplineSet
EndChar

StartChar: Dcroat
Encoding: 272 272 20
Width: 613
Flags: MW
HStem: 0 28<180 224 224 248> 293 36<56 115 51 120 212 391> 569 28<137 141.5 253 256 256 300>
VStem: 487 101<340.5 442.5>
LayerCount: 2
Fore
SplineSet
320 597 m 2
 497 597 588 531 588 362 c 0
 588 134 481 0 248 0 c 2
 18 0 l 1
 22 29 l 1
 65 27 l 2
 74 27 79 37 81 49 c 2
 115 293 l 1
 51 293 l 1
 56 329 l 1
 120 329 l 1
 151 548 l 1
 151 553 l 2
 151 562 146 569 137 569 c 2
 98 567 l 1
 102 597 l 1
 320 597 l 2
224 28 m 2
 380 28 434 91 464 202 c 0
 477 250 487 308 487 373 c 0
 487 512 431 569 300 569 c 2
 256 569 l 2
 250 569 245 565 244 556 c 2
 212 329 l 1
 396 329 l 1
 391 293 l 1
 207 293 l 1
 172 41 l 2
 172 39 171 38 171 37 c 0
 171 31 175 28 180 28 c 2
 224 28 l 2
EndSplineSet
EndChar

StartChar: E
Encoding: 69 69 21
Width: 545
Flags: MW
HStem: 0 28<180 316 316 359> 297 28<212 298 208 302> 406 20G<387 417 417 417> 443 154<477 506 477 477> 569 28<136 141 253 256 256 360>
VStem: 387 30<426 426> 480 26
LayerCount: 2
Fore
SplineSet
506 443 m 1xf6
 477 443 l 1xf6
 479 455 480 465 480 475 c 0
 480 541 442 569 360 569 c 2
 256 569 l 2
 250 569 245 564 244 555 c 2
 212 325 l 1
 302 325 l 2
 343 325 378 362 387 426 c 1
 417 426 l 1
 384 195 l 1
 354 195 l 1
 355 203 356 210 356 218 c 0
 356 265 331 297 298 297 c 2
 208 297 l 1
 172 41 l 2
 172 40 172 39 172 38 c 0
 172 31 175 28 180 28 c 2
 316 28 l 2
 402 28 456 82 469 179 c 1
 498 179 l 1
 473 -3 l 1
 458 -1 428 0 387 0 c 2
 18 0 l 1
 22 30 l 1
 62 27 l 2
 72 27 79 34 81 49 c 2
 151 548 l 2
 151 550 151 551 151 553 c 0
 151 563 146 569 136 569 c 2
 98 567 l 1
 102 597 l 1
 510 597 l 2
 518 597 523 597 528 599 c 1xee
 506 443 l 1xf6
EndSplineSet
Position2: "'cpsp' Capital Spacing lookup 0 per glyph data 2" dx=5 dy=0 dh=10 dv=0
EndChar

StartChar: Eacute
Encoding: 201 201 22
Width: 545
Flags: MW
HStem: 0 28<180 316 316 359> 297 28<212 298 208 302> 406 20G<387 417 417 417> 443 154<477 477 477 506> 569 28<136 141 253 256 256 360>
VStem: 387 30<426 426> 480 26
LayerCount: 2
Fore
SplineSet
402 805 m 2xee
 417 821 422 826 437 826 c 0
 461 826 491 808 491 800 c 0
 491 795 485 791 481 788 c 2
 310 675 l 2
 306 672 297 666 289 666 c 0
 279 666 275 669 275 673 c 0
 275 678 285 687 295 697 c 2
 402 805 l 2xee
477 443 m 1xf6
 479 455 480 465 480 475 c 0
 480 541 442 569 360 569 c 2
 256 569 l 2
 250 569 245 564 244 555 c 2
 212 325 l 1
 302 325 l 2
 343 325 378 362 387 426 c 1
 417 426 l 1
 384 195 l 1
 354 195 l 1
 355 203 356 210 356 218 c 0
 356 265 331 297 298 297 c 2
 208 297 l 1
 172 41 l 1
 172 38 l 2
 172 31 175 28 180 28 c 2
 316 28 l 2
 402 28 456 82 469 179 c 1
 498 179 l 1
 473 -3 l 1
 458 -1 428 0 387 0 c 2
 18 0 l 1
 22 30 l 1
 62 27 l 2
 72 27 79 34 81 49 c 2
 151 548 l 1
 151 553 l 2
 151 563 146 569 136 569 c 2
 98 567 l 1
 102 597 l 1
 510 597 l 2
 518 597 523 597 528 599 c 1xee
 506 443 l 1
 477 443 l 1xf6
EndSplineSet
Position2: "'cpsp' Capital Spacing lookup 0 per glyph data 2" dx=5 dy=0 dh=10 dv=0
EndChar

StartChar: Ecaron
Encoding: 282 282 23
Width: 545
Flags: MW
HStem: 0 28<180 316 316 359> 297 28<212 298 208 302> 406 20G<387 417 417 417> 443 154<477 477 477 506> 569 28<136 141 253 256 256 360>
VStem: 387 30<426 426> 480 26
LayerCount: 2
Fore
SplineSet
469 812 m 2xee
 478 817 490 824 498 824 c 0
 507 824 509 820 509 817 c 0
 509 809 469 785 423 741 c 2
 373 693 l 2
 357 678 344 668 339 668 c 0
 336 668 325 677 313 693 c 2
 277 741 l 2
 243 787 212 808 212 816 c 0
 212 818 214 824 225 824 c 0
 232 824 245 817 252 812 c 2
 349 739 l 1
 469 812 l 2xee
477 443 m 1xf6
 479 455 480 465 480 475 c 0
 480 541 442 569 360 569 c 2
 256 569 l 2
 250 569 245 564 244 555 c 2
 212 325 l 1
 302 325 l 2
 343 325 378 362 387 426 c 1
 417 426 l 1
 384 195 l 1
 354 195 l 1
 355 203 356 210 356 218 c 0
 356 265 331 297 298 297 c 2
 208 297 l 1
 172 41 l 1
 172 38 l 2
 172 31 175 28 180 28 c 2
 316 28 l 2
 402 28 456 82 469 179 c 1
 498 179 l 1
 473 -3 l 1
 458 -1 428 0 387 0 c 2
 18 0 l 1
 22 30 l 1
 62 27 l 2
 72 27 79 34 81 49 c 2
 151 548 l 1
 151 553 l 2
 151 563 146 569 136 569 c 2
 98 567 l 1
 102 597 l 1
 510 597 l 2
 518 597 523 597 528 599 c 1xee
 506 443 l 1
 477 443 l 1xf6
EndSplineSet
EndChar

StartChar: Ecircumflex
Encoding: 202 202 24
Width: 545
Flags: MW
HStem: 0 28<180 316 316 359> 297 28<212 298 208 302> 406 20G<387 417 417 417> 443 154<477 477 477 506> 569 28<136 141 253 256 256 360>
VStem: 387 30<426 426> 480 26
LayerCount: 2
Fore
SplineSet
232 678 m 2xee
 223 673 211 666 203 666 c 0
 194 666 192 670 192 673 c 0
 192 681 232 705 278 749 c 2
 328 797 l 2
 344 812 357 822 362 822 c 0
 365 822 376 813 388 797 c 2
 424 749 l 2
 458 703 489 682 489 674 c 0
 489 672 487 666 476 666 c 0
 469 666 456 673 449 678 c 2
 352 751 l 1
 232 678 l 2xee
477 443 m 1xf6
 479 455 480 465 480 475 c 0
 480 541 442 569 360 569 c 2
 256 569 l 2
 250 569 245 564 244 555 c 2
 212 325 l 1
 302 325 l 2
 343 325 378 362 387 426 c 1
 417 426 l 1
 384 195 l 1
 354 195 l 1
 355 203 356 210 356 218 c 0
 356 265 331 297 298 297 c 2
 208 297 l 1
 172 41 l 1
 172 38 l 2
 172 31 175 28 180 28 c 2
 316 28 l 2
 402 28 456 82 469 179 c 1
 498 179 l 1
 473 -3 l 1
 458 -1 428 0 387 0 c 2
 18 0 l 1
 22 30 l 1
 62 27 l 2
 72 27 79 34 81 49 c 2
 151 548 l 1
 151 553 l 2
 151 563 146 569 136 569 c 2
 98 567 l 1
 102 597 l 1
 510 597 l 2
 518 597 523 597 528 599 c 1xee
 506 443 l 1
 477 443 l 1xf6
EndSplineSet
Position2: "'cpsp' Capital Spacing lookup 0 per glyph data 2" dx=5 dy=0 dh=10 dv=0
EndChar

StartChar: Edieresis
Encoding: 203 203 25
Width: 545
Flags: MW
HStem: 0 28<180 316 316 359> 297 28<212 298 208 302> 406 20G<387 417 417 417> 443 154<477 477 477 506> 569 28<136 141 253 256 256 360> 677 95<252 273 426 447>
VStem: 207 109<714 734.5> 381 109<714 734.5> 387 30<426 426> 480 26
LayerCount: 2
Fore
SplineSet
269 772 m 0xeec0
 298 772 316 756 316 731 c 0
 316 697 291 677 255 677 c 0
 227 677 207 692 207 718 c 0
 207 751 235 772 269 772 c 0xeec0
443 772 m 0xef
 472 772 490 756 490 731 c 0
 490 697 465 677 429 677 c 0
 401 677 381 692 381 718 c 0
 381 751 409 772 443 772 c 0xef
477 443 m 1xf6c0
 479 455 480 465 480 475 c 0
 480 541 442 569 360 569 c 2
 256 569 l 2
 250 569 245 564 244 555 c 2
 212 325 l 1
 302 325 l 2
 343 325 378 362 387 426 c 1
 417 426 l 1
 384 195 l 1
 354 195 l 1
 355 203 356 210 356 218 c 0
 356 265 331 297 298 297 c 2
 208 297 l 1
 172 41 l 1
 172 38 l 2
 172 31 175 28 180 28 c 2
 316 28 l 2
 402 28 456 82 469 179 c 1
 498 179 l 1
 473 -3 l 1
 458 -1 428 0 387 0 c 2
 18 0 l 1
 22 30 l 1
 62 27 l 2
 72 27 79 34 81 49 c 2
 151 548 l 1
 151 553 l 2
 151 563 146 569 136 569 c 2
 98 567 l 1
 102 597 l 1
 510 597 l 2
 518 597 523 597 528 599 c 1xeec0
 506 443 l 1
 477 443 l 1xf6c0
EndSplineSet
Position2: "'cpsp' Capital Spacing lookup 0 per glyph data 2" dx=5 dy=0 dh=10 dv=0
EndChar

StartChar: Edotaccent
Encoding: 278 278 26
Width: 545
Flags: MW
HStem: 0 28<180 316 316 359> 297 28<212 298 208 302> 406 20G<387 417 417 417> 443 154<477 477 477 506> 569 28<136 141 253 256 256 360> 678 95<338 359>
VStem: 293 109<715 735.5> 387 30<426 426> 480 26
LayerCount: 2
Fore
SplineSet
355 773 m 0xf680
 384 773 402 757 402 732 c 0
 402 698 377 678 341 678 c 0
 313 678 293 693 293 719 c 0
 293 752 321 773 355 773 c 0xf680
477 443 m 1
 479 455 480 465 480 475 c 0
 480 541 442 569 360 569 c 2
 256 569 l 2
 250 569 245 564 244 555 c 2
 212 325 l 1
 302 325 l 2
 343 325 378 362 387 426 c 1
 417 426 l 1
 384 195 l 1
 354 195 l 1
 355 203 356 210 356 218 c 0
 356 265 331 297 298 297 c 2
 208 297 l 1
 172 41 l 1
 172 38 l 2
 172 31 175 28 180 28 c 2
 316 28 l 2
 402 28 456 82 469 179 c 1
 498 179 l 1
 473 -3 l 1
 458 -1 428 0 387 0 c 2
 18 0 l 1
 22 30 l 1
 62 27 l 2
 72 27 79 34 81 49 c 2
 151 548 l 1
 151 553 l 2
 151 563 146 569 136 569 c 2
 98 567 l 1
 102 597 l 1
 510 597 l 2
 518 597 523 597 528 599 c 1xed80
 506 443 l 1
 477 443 l 1
EndSplineSet
EndChar

StartChar: Egrave
Encoding: 200 200 27
Width: 545
Flags: MW
HStem: 0 28<180 316 316 359> 297 28<212 298 208 302> 406 20G<387 417 417 417> 443 154<477 477 477 506> 569 28<136 141 253 256 256 360>
VStem: 387 30<426 426> 480 26
LayerCount: 2
Fore
SplineSet
230 788 m 2xee
 227 791 224 794 224 799 c 0
 224 808 259 826 284 826 c 0
 299 826 301 821 313 805 c 2
 395 691 l 2
 400 683 404 677 404 674 c 0
 404 669 399 666 387 666 c 0
 379 666 372 672 369 675 c 2
 230 788 l 2xee
477 443 m 1xf6
 479 455 480 465 480 475 c 0
 480 541 442 569 360 569 c 2
 256 569 l 2
 250 569 245 564 244 555 c 2
 212 325 l 1
 302 325 l 2
 343 325 378 362 387 426 c 1
 417 426 l 1
 384 195 l 1
 354 195 l 1
 355 203 356 210 356 218 c 0
 356 265 331 297 298 297 c 2
 208 297 l 1
 172 41 l 1
 172 38 l 2
 172 31 175 28 180 28 c 2
 316 28 l 2
 402 28 456 82 469 179 c 1
 498 179 l 1
 473 -3 l 1
 458 -1 428 0 387 0 c 2
 18 0 l 1
 22 30 l 1
 62 27 l 2
 72 27 79 34 81 49 c 2
 151 548 l 1
 151 553 l 2
 151 563 146 569 136 569 c 2
 98 567 l 1
 102 597 l 1
 510 597 l 2
 518 597 523 597 528 599 c 1xee
 506 443 l 1
 477 443 l 1xf6
EndSplineSet
Position2: "'cpsp' Capital Spacing lookup 0 per glyph data 2" dx=5 dy=0 dh=10 dv=0
EndChar

StartChar: Emacron
Encoding: 274 274 28
Width: 545
Flags: MW
HStem: 0 28<180 316 316 359> 297 28<212 298 208 302> 406 20G<387 417 417 417> 443 154<477 477 477 506> 569 28<136 141 253 256 256 360> 676 40<224 460 218 466>
VStem: 387 30<426 426> 480 26
LayerCount: 2
Fore
SplineSet
460 676 m 1xef
 218 676 l 1
 224 716 l 1
 466 716 l 1
 460 676 l 1xef
477 443 m 1xf7
 479 455 480 465 480 475 c 0
 480 541 442 569 360 569 c 2
 256 569 l 2
 250 569 245 564 244 555 c 2
 212 325 l 1
 302 325 l 2
 343 325 378 362 387 426 c 1
 417 426 l 1
 384 195 l 1
 354 195 l 1
 355 203 356 210 356 218 c 0
 356 265 331 297 298 297 c 2
 208 297 l 1
 172 41 l 1
 172 38 l 2
 172 31 175 28 180 28 c 2
 316 28 l 2
 402 28 456 82 469 179 c 1
 498 179 l 1
 473 -3 l 1
 458 -1 428 0 387 0 c 2
 18 0 l 1
 22 30 l 1
 62 27 l 2
 72 27 79 34 81 49 c 2
 151 548 l 1
 151 553 l 2
 151 563 146 569 136 569 c 2
 98 567 l 1
 102 597 l 1
 510 597 l 2
 518 597 523 597 528 599 c 1xef
 506 443 l 1
 477 443 l 1xf7
EndSplineSet
EndChar

StartChar: Eogonek
Encoding: 280 280 29
Width: 545
Flags: MW
HStem: -159 43<358.5 425.5> 0 28<180 316 316 359> 297 28<212 298 208 302> 406 20G<387 417 417 417> 443 154<477 477 477 506> 569 28<136 141 253 256 256 360>
VStem: 312 58<-83.5 -79.5> 387 30<426 426> 480 26
LayerCount: 2
Fore
SplineSet
477 443 m 1xfa80
 479 455 480 465 480 475 c 0
 480 541 442 569 360 569 c 2
 256 569 l 2
 250 569 245 564 244 555 c 2
 212 325 l 1
 302 325 l 2
 343 325 378 362 387 426 c 1
 417 426 l 1
 384 195 l 1
 354 195 l 1
 355 203 356 210 356 218 c 0xf780
 356 265 331 297 298 297 c 2
 208 297 l 1
 172 41 l 1
 172 38 l 2
 172 31 175 28 180 28 c 2
 316 28 l 2
 402 28 456 82 469 179 c 1
 498 179 l 1
 473 -3 l 1
 460 -1 437 0 406 0 c 1
 384 -18 370 -43 370 -71 c 0
 370 -96 383 -116 415 -116 c 0
 436 -116 459 -105 484 -85 c 1
 496 -99 l 1
 460 -137 417 -159 375 -159 c 0
 342 -159 312 -138 312 -97 c 0
 312 -62 333 -26 374 0 c 1
 18 0 l 1
 22 30 l 1
 62 27 l 2
 72 27 79 34 81 49 c 2
 151 548 l 1
 151 553 l 2
 151 563 146 569 136 569 c 2
 98 567 l 1
 102 597 l 1
 510 597 l 2
 518 597 523 597 528 599 c 1xf680
 506 443 l 1
 477 443 l 1xfa80
EndSplineSet
EndChar

StartChar: F
Encoding: 70 70 30
Width: 513
Flags: MW
HStem: 0 27<62 67 183 187> 287 28<210 277 207 281> 443 154<487 516 487 487> 569 28<139 143 253 256 256 369>
VStem: 340 27<187 234.5> 371 29<417 417> 490 26
LayerCount: 2
Fore
SplineSet
516 443 m 1xe6
 487 443 l 1xe6
 489 455 490 465 490 475 c 0
 490 540 452 569 369 569 c 2
 256 569 l 2
 250 569 245 565 244 556 c 2
 210 315 l 1
 281 315 l 2
 326 315 362 353 371 417 c 1
 400 417 l 1xd6
 367 187 l 1
 338 187 l 1
 339 195 340 203 340 211 c 0
 340 258 316 287 277 287 c 2
 207 287 l 1
 173 48 l 2
 173 47 173 45 173 44 c 0
 173 34 179 27 187 27 c 2
 239 30 l 1
 235 0 l 1
 18 0 l 1
 22 30 l 1
 62 27 l 2
 72 27 79 34 81 49 c 2
 151 548 l 2
 151 550 151 552 151 554 c 0
 151 564 147 569 139 569 c 2
 98 567 l 1
 102 597 l 1
 522 597 l 2
 528 597 533 597 538 599 c 1xda
 516 443 l 1xe6
EndSplineSet
Position2: "'cpsp' Capital Spacing lookup 0 per glyph data 2" dx=5 dy=0 dh=10 dv=0
EndChar

StartChar: G
Encoding: 71 71 31
Width: 626
Flags: MW
HStem: -10 27<256.5 334 256.5 362> 245 27<443 448 564 569> 433 131<561 567 525 585> 582 25<317.5 424.5>
VStem: 49 100<156.5 342 152.5 357.5> 530 37<433 507>
LayerCount: 2
Fore
SplineSet
523 35 m 1
 517 36 513 36 509 36 c 0
 471 36 426 -10 298 -10 c 0
 141 -10 49 74 49 239 c 0
 49 476 175 607 389 607 c 0xdc
 515 607 537 564 585 564 c 1
 578 540 566 468 567 433 c 1
 525 433 l 1xfc
 527 438 530 443 530 467 c 0
 530 547 468 582 381 582 c 0
 254 582 149 460 149 224 c 0
 149 81 207 17 306 17 c 0
 362 17 395 27 434 63 c 1
 457 223 l 2
 457 225 457 228 457 230 c 0
 457 240 453 245 443 245 c 2
 385 243 l 1
 389 272 l 1
 615 272 l 1
 611 243 l 1
 569 245 l 2
 559 245 551 235 550 224 c 2
 523 35 l 1
EndSplineSet
Position2: "'cpsp' Capital Spacing lookup 0 per glyph data 2" dx=5 dy=0 dh=10 dv=0
EndChar

StartChar: Gbreve
Encoding: 286 286 32
Width: 626
Flags: MW
HStem: -10 27<256.5 334 256.5 362> 245 27<443 448 564 569> 433 131<561 567 525 585> 582 25<317.5 424.5> 666 50<342 393 342 399>
VStem: 49 100<156.5 342 152.5 357.5> 253 44<790 790> 530 37<433 507>
LayerCount: 2
Fore
SplineSet
504 790 m 1
 486 717 437 666 361 666 c 0
 286 666 251 717 253 790 c 1
 297 790 l 1
 300 754 316 716 368 716 c 0
 418 716 448 754 461 790 c 1
 504 790 l 1
523 35 m 1
 517 36 513 36 509 36 c 0
 471 36 426 -10 298 -10 c 0
 141 -10 49 74 49 239 c 0
 49 476 175 607 389 607 c 0xdf
 515 607 537 564 585 564 c 1
 578 540 566 468 567 433 c 1
 525 433 l 1xff
 527 438 530 443 530 467 c 0
 530 547 468 582 381 582 c 0
 254 582 149 460 149 224 c 0
 149 81 207 17 306 17 c 0
 362 17 395 27 434 63 c 1
 457 223 l 1
 457 230 l 2
 457 240 453 245 443 245 c 2
 385 243 l 1
 389 272 l 1
 615 272 l 1
 611 243 l 1
 569 245 l 2
 559 245 551 235 550 224 c 2
 523 35 l 1
EndSplineSet
EndChar

StartChar: Gcommaaccent
Encoding: 290 290 33
Width: 626
Flags: MW
HStem: -111 77<246 298.5> -10 27<256.5 334 256.5 362> 245 27<443 448 564 569> 433 131<561 567 525 585> 582 25<317.5 424.5>
VStem: 49 100<156.5 342 152.5 357.5> 278 56 530 37<433 507>
LayerCount: 2
Fore
SplineSet
523 35 m 1
 517 36 513 36 509 36 c 0
 471 36 426 -10 298 -10 c 0
 141 -10 49 74 49 239 c 0
 49 476 175 607 389 607 c 0x6f
 515 607 537 564 585 564 c 1
 578 540 566 468 567 433 c 1
 525 433 l 1x7f
 527 438 530 443 530 467 c 0
 530 547 468 582 381 582 c 0
 254 582 149 460 149 224 c 0
 149 81 207 17 306 17 c 0
 362 17 395 27 434 63 c 1
 457 223 l 1
 457 230 l 2
 457 240 453 245 443 245 c 2
 385 243 l 1
 389 272 l 1
 615 272 l 1
 611 243 l 1
 569 245 l 2
 559 245 551 235 550 224 c 2
 523 35 l 1
221 -200 m 1
 249 -185 276 -158 278 -140 c 0
 281 -117 268 -111 254 -111 c 0
 238 -111 228 -97 228 -81 c 0
 228 -59 247 -34 281 -34 c 0
 316 -34 334 -59 334 -87 c 0xef
 334 -144 282 -192 235 -213 c 1
 221 -200 l 1
EndSplineSet
EndChar

StartChar: H
Encoding: 72 72 34
Width: 674
Flags: MW
HStem: 0 27<61 66.5 183 188 434 440 555.5 560> 294 28<211 488 207 492> 569 28<137 137 258.5 264 510 515.5 630.5 636>
VStem: 18 662<0 597>
LayerCount: 2
Fore
SplineSet
676 567 m 1
 636 569 l 2
 625 569 619 561 617 548 c 2
 547 49 l 2
 547 47 547 44 547 42 c 0
 547 32 551 27 560 27 c 2
 600 29 l 1
 596 0 l 1
 381 0 l 1
 385 29 l 1
 434 27 l 2
 446 27 452 34 454 49 c 2
 488 294 l 1
 207 294 l 1
 173 49 l 2
 173 47 173 45 173 44 c 0
 173 32 178 27 188 27 c 2
 237 29 l 1
 233 0 l 1
 18 0 l 1
 22 29 l 1
 61 27 l 2
 72 27 79 34 81 49 c 2
 151 548 l 2
 151 550 152 552 152 554 c 0
 152 563 148 570 137 569 c 2
 98 567 l 1
 102 597 l 1
 317 597 l 1
 313 567 l 1
 264 569 l 2
 253 569 245 561 243 548 c 2
 211 322 l 1
 492 322 l 1
 524 548 l 2
 524 550 524 551 524 553 c 0
 524 562 521 569 510 569 c 2
 461 567 l 1
 465 597 l 1
 680 597 l 1
 676 567 l 1
EndSplineSet
Position2: "'cpsp' Capital Spacing lookup 0 per glyph data 2" dx=5 dy=0 dh=10 dv=0
EndChar

StartChar: I
Encoding: 73 73 35
Width: 301
Flags: MW
HStem: 0 27<61 66.5 183 188> 569 28<137 141.5 258.5 264>
VStem: 18 289
LayerCount: 2
Fore
SplineSet
303 567 m 1
 264 569 l 2
 253 569 245 561 243 548 c 2
 173 49 l 2
 173 47 173 45 173 44 c 0
 173 32 178 27 188 27 c 2
 227 29 l 1
 223 0 l 1
 18 0 l 1
 22 29 l 1
 61 27 l 2
 72 27 79 34 81 49 c 2
 151 548 l 2
 151 550 151 551 151 553 c 0
 151 562 146 569 137 569 c 2
 98 567 l 1
 102 597 l 1
 307 597 l 1
 303 567 l 1
EndSplineSet
Position2: "'cpsp' Capital Spacing lookup 0 per glyph data 2" dx=5 dy=0 dh=10 dv=0
EndChar

StartChar: IJ
Encoding: 306 306 36
Width: 738
Flags: MW
HStem: -10 26<417.5 463.5 401.5 498> 0 27<61 66.5 183 188> 5 167<322.5 341.5> 569 28<137 141.5 258.5 264 580 584 701 707>
VStem: 18 730<0 597>
LayerCount: 2
Fore
SplineSet
264 569 m 2x58
 253 569 245 561 243 548 c 2
 173 49 l 1
 173 44 l 2
 173 32 178 27 188 27 c 2
 227 29 l 1
 223 0 l 1
 18 0 l 1
 22 29 l 1
 61 27 l 2
 72 27 79 34 81 49 c 2
 151 548 l 1
 151 553 l 2
 151 562 146 569 137 569 c 2
 98 567 l 1
 102 597 l 1
 307 597 l 1
 303 567 l 1
 264 569 l 2x58
744 567 m 1
 707 569 l 2
 695 569 688 561 686 549 c 2
 634 179 l 2
 616 51 551 -10 445 -10 c 0x98
 390 -10 354 5 329 5 c 0
 316 5 304 3 293 -4 c 1
 318 172 l 1
 355 172 l 1x38
 353 160 352 147 352 133 c 0
 352 78 370 16 433 16 c 0x98
 494 16 524 59 541 179 c 2
 593 548 l 2
 593 550 593 551 593 553 c 0
 593 563 588 569 580 569 c 2
 511 567 l 1
 515 597 l 1
 748 597 l 1
 744 567 l 1
EndSplineSet
Position2: "'cpsp' Capital Spacing lookup 0 per glyph data 2" dx=5 dy=0 dh=10 dv=0
EndChar

StartChar: Iacute
Encoding: 205 205 37
Width: 301
Flags: MW
HStem: 0 27<61 66.5 183 188> 569 28<137 141.5 258.5 264>
VStem: 18 344
LayerCount: 2
Fore
SplineSet
273 805 m 2
 288 821 293 826 308 826 c 0
 332 826 362 808 362 800 c 0
 362 795 356 791 352 788 c 2
 181 675 l 2
 177 672 168 666 160 666 c 0
 150 666 146 669 146 673 c 0
 146 678 156 687 166 697 c 2
 273 805 l 2
264 569 m 2
 253 569 245 561 243 548 c 2
 173 49 l 1
 173 44 l 2
 173 32 178 27 188 27 c 2
 227 29 l 1
 223 0 l 1
 18 0 l 1
 22 29 l 1
 61 27 l 2
 72 27 79 34 81 49 c 2
 151 548 l 1
 151 553 l 2
 151 562 146 569 137 569 c 2
 98 567 l 1
 102 597 l 1
 307 597 l 1
 303 567 l 1
 264 569 l 2
EndSplineSet
Position2: "'cpsp' Capital Spacing lookup 0 per glyph data 2" dx=5 dy=0 dh=10 dv=0
EndChar

StartChar: Icircumflex
Encoding: 206 206 38
Width: 301
Flags: MW
HStem: 0 27<61 66.5 183 188> 569 28<137 141.5 258.5 264>
VStem: 18 342
LayerCount: 2
Fore
SplineSet
103 678 m 2
 94 673 82 666 74 666 c 0
 65 666 63 670 63 673 c 0
 63 681 103 705 149 749 c 2
 199 797 l 2
 215 812 228 822 233 822 c 0
 236 822 247 813 259 797 c 2
 295 749 l 2
 329 703 360 682 360 674 c 0
 360 672 358 666 347 666 c 0
 340 666 327 673 320 678 c 2
 223 751 l 1
 103 678 l 2
264 569 m 2
 253 569 245 561 243 548 c 2
 173 49 l 1
 173 44 l 2
 173 32 178 27 188 27 c 2
 227 29 l 1
 223 0 l 1
 18 0 l 1
 22 29 l 1
 61 27 l 2
 72 27 79 34 81 49 c 2
 151 548 l 1
 151 553 l 2
 151 562 146 569 137 569 c 2
 98 567 l 1
 102 597 l 1
 307 597 l 1
 303 567 l 1
 264 569 l 2
EndSplineSet
Position2: "'cpsp' Capital Spacing lookup 0 per glyph data 2" dx=5 dy=0 dh=10 dv=0
EndChar

StartChar: Idieresis
Encoding: 207 207 39
Width: 301
Flags: MW
HStem: 0 27<61 66.5 183 188> 569 28<137 141.5 258.5 264> 677 95<123 144 297 318>
VStem: 78 109<714 734.5> 252 109<714 734.5>
LayerCount: 2
Fore
SplineSet
140 772 m 0
 169 772 187 756 187 731 c 0
 187 697 162 677 126 677 c 0
 98 677 78 692 78 718 c 0
 78 751 106 772 140 772 c 0
314 772 m 0
 343 772 361 756 361 731 c 0
 361 697 336 677 300 677 c 0
 272 677 252 692 252 718 c 0
 252 751 280 772 314 772 c 0
264 569 m 2
 253 569 245 561 243 548 c 2
 173 49 l 1
 173 44 l 2
 173 32 178 27 188 27 c 2
 227 29 l 1
 223 0 l 1
 18 0 l 1
 22 29 l 1
 61 27 l 2
 72 27 79 34 81 49 c 2
 151 548 l 1
 151 553 l 2
 151 562 146 569 137 569 c 2
 98 567 l 1
 102 597 l 1
 307 597 l 1
 303 567 l 1
 264 569 l 2
EndSplineSet
Position2: "'cpsp' Capital Spacing lookup 0 per glyph data 2" dx=5 dy=0 dh=10 dv=0
EndChar

StartChar: Idotaccent
Encoding: 304 304 40
Width: 301
Flags: MW
HStem: 0 27<61 66.5 183 188> 569 28<137 141.5 258.5 264> 678 95<209 230>
VStem: 164 109<715 735.5>
LayerCount: 2
Fore
SplineSet
226 773 m 0
 255 773 273 757 273 732 c 0
 273 698 248 678 212 678 c 0
 184 678 164 693 164 719 c 0
 164 752 192 773 226 773 c 0
264 569 m 2
 253 569 245 561 243 548 c 2
 173 49 l 1
 173 44 l 2
 173 32 178 27 188 27 c 2
 227 29 l 1
 223 0 l 1
 18 0 l 1
 22 29 l 1
 61 27 l 2
 72 27 79 34 81 49 c 2
 151 548 l 1
 151 553 l 2
 151 562 146 569 137 569 c 2
 98 567 l 1
 102 597 l 1
 307 597 l 1
 303 567 l 1
 264 569 l 2
EndSplineSet
EndChar

StartChar: Igrave
Encoding: 204 204 41
Width: 301
Flags: MW
HStem: 0 27<61 66.5 183 188> 569 28<137 141.5 258.5 264>
VStem: 18 289
LayerCount: 2
Fore
SplineSet
101 788 m 2
 98 791 95 794 95 799 c 0
 95 808 130 826 155 826 c 0
 170 826 172 821 184 805 c 2
 266 691 l 2
 271 683 275 677 275 674 c 0
 275 669 270 666 258 666 c 0
 250 666 243 672 240 675 c 2
 101 788 l 2
264 569 m 2
 253 569 245 561 243 548 c 2
 173 49 l 1
 173 44 l 2
 173 32 178 27 188 27 c 2
 227 29 l 1
 223 0 l 1
 18 0 l 1
 22 29 l 1
 61 27 l 2
 72 27 79 34 81 49 c 2
 151 548 l 1
 151 553 l 2
 151 562 146 569 137 569 c 2
 98 567 l 1
 102 597 l 1
 307 597 l 1
 303 567 l 1
 264 569 l 2
EndSplineSet
Position2: "'cpsp' Capital Spacing lookup 0 per glyph data 2" dx=5 dy=0 dh=10 dv=0
EndChar

StartChar: Imacron
Encoding: 298 298 42
Width: 301
Flags: MW
HStem: 0 27<61 66.5 183 188> 569 28<137 141.5 258.5 264> 676 40<95 331 89 337>
VStem: 18 319
LayerCount: 2
Fore
SplineSet
331 676 m 1
 89 676 l 1
 95 716 l 1
 337 716 l 1
 331 676 l 1
264 569 m 2
 253 569 245 561 243 548 c 2
 173 49 l 1
 173 44 l 2
 173 32 178 27 188 27 c 2
 227 29 l 1
 223 0 l 1
 18 0 l 1
 22 29 l 1
 61 27 l 2
 72 27 79 34 81 49 c 2
 151 548 l 1
 151 553 l 2
 151 562 146 569 137 569 c 2
 98 567 l 1
 102 597 l 1
 307 597 l 1
 303 567 l 1
 264 569 l 2
EndSplineSet
EndChar

StartChar: Iogonek
Encoding: 302 302 43
Width: 301
Flags: MW
HStem: -159 43<120.5 187.5> 0 27<61 66.5 61 136 183 188> 569 28<137 141.5 258.5 264>
VStem: 74 58<-83.5 -79.5>
LayerCount: 2
Fore
SplineSet
307 597 m 1
 303 567 l 1
 264 569 l 2
 253 569 245 561 243 548 c 2
 173 49 l 1
 173 44 l 2
 173 32 178 27 188 27 c 2
 227 29 l 1
 223 0 l 1
 168 0 l 1
 146 -18 132 -43 132 -71 c 0
 132 -96 145 -116 177 -116 c 0
 198 -116 221 -105 246 -85 c 1
 258 -99 l 1
 222 -137 179 -159 137 -159 c 0
 104 -159 74 -138 74 -97 c 0
 74 -62 95 -26 136 0 c 1
 18 0 l 1
 22 29 l 1
 61 27 l 2
 72 27 79 34 81 49 c 2
 151 548 l 1
 151 553 l 2
 151 562 146 569 137 569 c 2
 98 567 l 1
 102 597 l 1
 307 597 l 1
EndSplineSet
EndChar

StartChar: J
Encoding: 74 74 44
Width: 437
Flags: MW
HStem: -10 26<116.5 162.5 100.5 197> 5 167<21.5 40.5> 569 28<279 283 400 406>
VStem: -8 455
LayerCount: 2
Fore
SplineSet
443 567 m 1xb0
 406 569 l 2
 394 569 387 561 385 549 c 2
 333 179 l 2
 315 51 250 -10 144 -10 c 0xb0
 89 -10 53 5 28 5 c 0
 15 5 3 3 -8 -4 c 1
 17 172 l 1
 54 172 l 1x70
 52 160 51 147 51 133 c 0
 51 78 69 16 132 16 c 0
 193 16 223 59 240 179 c 2
 292 548 l 2
 292 550 292 551 292 553 c 0
 292 563 287 569 279 569 c 2
 210 567 l 1
 214 597 l 1
 447 597 l 1
 443 567 l 1xb0
EndSplineSet
Position2: "'cpsp' Capital Spacing lookup 0 per glyph data 2" dx=5 dy=0 dh=10 dv=0
EndChar

StartChar: K
Encoding: 75 75 45
Width: 598
Flags: MW
HStem: 0 27<61 66.5 183 188 388 393.5 528 536.5> 569 28<137 141.5 258.5 264 459 461.5 553 553>
VStem: 18 578
LayerCount: 2
Fore
SplineSet
553 569 m 2
 537 570 521 562 499 540 c 2
 328 365 l 1
 512 41 l 2
 517 32 524 27 532 27 c 0
 541 27 555 29 566 30 c 1
 562 0 l 1
 330 0 l 1
 334 30 l 1
 388 27 l 2
 399 27 404 33 404 41 c 0
 404 44 403 48 401 52 c 2
 262 298 l 1
 199 234 l 1
 173 49 l 2
 173 47 173 45 173 44 c 0
 173 32 178 27 188 27 c 2
 237 29 l 1
 233 0 l 1
 18 0 l 1
 22 29 l 1
 61 27 l 2
 72 27 79 34 81 49 c 2
 151 548 l 2
 151 550 151 552 151 553 c 0
 151 563 146 569 137 569 c 2
 98 567 l 1
 102 597 l 1
 317 597 l 1
 313 567 l 1
 264 569 l 2
 253 569 245 562 243 547 c 2
 206 281 l 1
 459 548 l 2
 463 553 466 558 466 562 c 0
 466 567 464 569 459 569 c 2
 417 567 l 1
 421 597 l 1
 596 597 l 1
 592 567 l 1
 553 569 l 2
EndSplineSet
Position2: "'cpsp' Capital Spacing lookup 0 per glyph data 2" dx=5 dy=0 dh=10 dv=0
EndChar

StartChar: Kcommaaccent
Encoding: 310 310 46
Width: 598
Flags: MW
HStem: -111 77<233 285.5> 0 27<61 66.5 183 188 388 393.5 528 536.5> 569 28<137 141.5 258.5 264 459 461.5 553 553>
VStem: 265 56
LayerCount: 2
Fore
SplineSet
553 569 m 2
 537 570 521 562 499 540 c 2
 328 365 l 1
 512 41 l 2
 517 32 524 27 532 27 c 0
 541 27 555 29 566 30 c 1
 562 0 l 1
 330 0 l 1
 334 30 l 1
 388 27 l 2
 399 27 404 33 404 41 c 0
 404 44 403 48 401 52 c 2
 262 298 l 1
 199 234 l 1
 173 49 l 1
 173 44 l 2
 173 32 178 27 188 27 c 2
 237 29 l 1
 233 0 l 1
 18 0 l 1
 22 29 l 1
 61 27 l 2
 72 27 79 34 81 49 c 2
 151 548 l 1
 151 553 l 2
 151 563 146 569 137 569 c 2
 98 567 l 1
 102 597 l 1
 317 597 l 1
 313 567 l 1
 264 569 l 2
 253 569 245 562 243 547 c 2
 206 281 l 1
 459 548 l 2
 463 553 466 558 466 562 c 0
 466 567 464 569 459 569 c 2
 417 567 l 1
 421 597 l 1
 596 597 l 1
 592 567 l 1
 553 569 l 2
208 -200 m 1
 236 -185 263 -158 265 -140 c 0
 268 -117 255 -111 241 -111 c 0
 225 -111 215 -97 215 -81 c 0
 215 -59 234 -34 268 -34 c 0
 303 -34 321 -59 321 -87 c 0
 321 -144 269 -192 222 -213 c 1
 208 -200 l 1
EndSplineSet
EndChar

StartChar: L
Encoding: 76 76 47
Width: 498
Flags: MW
HStem: 0 28<180 289 289 326> 569 28<137 141.5 258.5 264>
VStem: 18 453<0 171>
LayerCount: 2
Fore
SplineSet
313 567 m 1
 264 569 l 2
 253 569 245 561 243 548 c 2
 172 41 l 2
 172 40 172 39 172 38 c 0
 172 31 175 28 180 28 c 2
 289 28 l 2
 377 28 430 78 443 171 c 1
 471 171 l 1
 447 -3 l 1
 434 -1 394 0 326 0 c 2
 18 0 l 1
 22 30 l 1
 65 27 l 2
 74 27 79 37 81 49 c 2
 151 548 l 2
 151 550 151 551 151 552 c 0
 151 562 146 569 137 569 c 2
 98 567 l 1
 102 597 l 1
 317 597 l 1
 313 567 l 1
EndSplineSet
Position2: "Single Positioning lookup 3 subtable" dx=0 dy=0 dh=-40 dv=0
Position2: "'cpsp' Capital Spacing lookup 0 per glyph data 2" dx=5 dy=0 dh=10 dv=0
EndChar

StartChar: Lacute
Encoding: 313 313 48
Width: 498
Flags: MW
HStem: 0 28<180 289 289 326> 569 28<137 141.5 258.5 264>
VStem: 18 453<0 171>
LayerCount: 2
Fore
SplineSet
295 805 m 2
 310 821 315 826 330 826 c 0
 354 826 384 808 384 800 c 0
 384 795 378 791 374 788 c 2
 203 675 l 2
 199 672 190 666 182 666 c 0
 172 666 168 669 168 673 c 0
 168 678 178 687 188 697 c 2
 295 805 l 2
264 569 m 2
 253 569 245 561 243 548 c 2
 172 41 l 1
 172 38 l 2
 172 31 175 28 180 28 c 2
 289 28 l 2
 377 28 430 78 443 171 c 1
 471 171 l 1
 447 -3 l 1
 434 -1 394 0 326 0 c 2
 18 0 l 1
 22 30 l 1
 65 27 l 2
 74 27 79 37 81 49 c 2
 151 548 l 1
 151 552 l 2
 151 562 146 569 137 569 c 2
 98 567 l 1
 102 597 l 1
 317 597 l 1
 313 567 l 1
 264 569 l 2
EndSplineSet
EndChar

StartChar: Lcaron
Encoding: 317 317 49
Width: 498
Flags: MW
HStem: 0 28<180 289 289 326> 530 77<431 476> 569 28<137 141.5 258.5 264> 587 20G<444.5 476>
VStem: 413 96<552 568 528 571>
LayerCount: 2
Fore
SplineSet
406 451 m 1xa8
 429 467 451 493 453 511 c 0
 453 513 453 514 453 515 c 0
 453 527 446 530 439 530 c 0xc8
 423 530 413 544 413 560 c 0
 413 582 428 607 461 607 c 0
 491 607 509 582 509 554 c 0x98
 509 502 462 457 420 438 c 1
 406 451 l 1xa8
264 569 m 2
 253 569 245 561 243 548 c 2
 172 41 l 1
 172 38 l 2
 172 31 175 28 180 28 c 2
 289 28 l 2
 377 28 430 78 443 171 c 1
 471 171 l 1
 447 -3 l 1
 434 -1 394 0 326 0 c 2
 18 0 l 1
 22 30 l 1
 65 27 l 2
 74 27 79 37 81 49 c 2
 151 548 l 1
 151 552 l 2
 151 562 146 569 137 569 c 2
 98 567 l 1
 102 597 l 1
 317 597 l 1
 313 567 l 1
 264 569 l 2
EndSplineSet
EndChar

StartChar: Lcommaaccent
Encoding: 315 315 50
Width: 498
Flags: MW
HStem: -111 77<180 232.5> 0 28<180 289 289 326> 569 28<137 141.5 258.5 264>
VStem: 212 56
LayerCount: 2
Fore
SplineSet
264 569 m 2
 253 569 245 561 243 548 c 2
 172 41 l 1
 172 38 l 2
 172 31 175 28 180 28 c 2
 289 28 l 2
 377 28 430 78 443 171 c 1
 471 171 l 1
 447 -3 l 1
 434 -1 394 0 326 0 c 2
 18 0 l 1
 22 30 l 1
 65 27 l 2
 74 27 79 37 81 49 c 2
 151 548 l 1
 151 552 l 2
 151 562 146 569 137 569 c 2
 98 567 l 1
 102 597 l 1
 317 597 l 1
 313 567 l 1
 264 569 l 2
155 -200 m 1
 183 -185 210 -158 212 -140 c 0
 215 -117 202 -111 188 -111 c 0
 172 -111 162 -97 162 -81 c 0
 162 -59 181 -34 215 -34 c 0
 250 -34 268 -59 268 -87 c 0
 268 -144 216 -192 169 -213 c 1
 155 -200 l 1
EndSplineSet
EndChar

StartChar: Ldot
Encoding: 319 319 51
Width: 498
Flags: MW
HStem: 0 28<180 289 289 326> 277 115<400 423> 569 28<137 141.5 258.5 264>
VStem: 349 125<322 345.5>
LayerCount: 2
Fore
SplineSet
264 569 m 2
 253 569 245 561 243 548 c 2
 172 41 l 1
 172 38 l 2
 172 31 175 28 180 28 c 2
 289 28 l 2
 377 28 430 78 443 171 c 1
 471 171 l 1
 447 -3 l 1
 434 -1 394 0 326 0 c 2
 18 0 l 1
 22 30 l 1
 65 27 l 2
 74 27 79 37 81 49 c 2
 151 548 l 1
 151 552 l 2
 151 562 146 569 137 569 c 2
 98 567 l 1
 102 597 l 1
 317 597 l 1
 313 567 l 1
 264 569 l 2
349 326 m 0
 349 365 380 392 420 392 c 0
 452 392 474 373 474 342 c 0
 474 302 442 277 404 277 c 0
 371 277 349 296 349 326 c 0
EndSplineSet
Ligature2: "Ligature Substitution lookup 20 subtable" L periodcentered
Position2: "'cpsp' Capital Spacing lookup 0 per glyph data 2" dx=5 dy=0 dh=10 dv=0
EndChar

StartChar: Lslash
Encoding: 321 321 52
Width: 498
Flags: MW
HStem: 0 28<180 289 289 326> 405 20G<321 321> 569 28<137 141.5 258.5 264>
VStem: 18 453<0 171>
LayerCount: 2
Fore
SplineSet
471 171 m 1
 447 -3 l 1
 434 -1 394 0 326 0 c 2
 18 0 l 1
 22 30 l 1
 65 27 l 2
 74 27 79 37 81 49 c 2
 105 221 l 1
 42 173 l 1
 49 220 l 1
 112 268 l 1
 151 548 l 1
 151 552 l 2
 151 562 146 569 137 569 c 2
 98 567 l 1
 102 597 l 1
 317 597 l 1
 313 567 l 1
 264 569 l 2
 253 569 245 561 243 548 c 2
 214 343 l 1
 321 425 l 1
 314 377 l 1
 208 295 l 1
 172 41 l 1
 172 38 l 2
 172 31 175 28 180 28 c 2
 289 28 l 2
 377 28 430 78 443 171 c 1
 471 171 l 1
EndSplineSet
Position2: "'cpsp' Capital Spacing lookup 0 per glyph data 2" dx=5 dy=0 dh=10 dv=0
EndChar

StartChar: M
Encoding: 77 77 53
Width: 830
Flags: MW
HStem: 0 27<56 62 121.5 126 590 595.5 712 717> 569 28<145 146.5 787.5 793>
VStem: 13 818<0 597>
LayerCount: 2
Fore
SplineSet
827 567 m 1
 793 569 l 2
 782 569 774 561 772 549 c 2
 702 49 l 2
 702 47 702 45 702 43 c 0
 702 32 707 27 717 27 c 2
 756 29 l 1
 752 0 l 1
 537 0 l 1
 541 29 l 1
 590 27 l 2
 601 27 608 34 610 49 c 2
 675 513 l 1
 376 -10 l 1
 350 -10 l 1
 179 520 l 1
 113 49 l 2
 113 47 113 44 113 42 c 0
 113 32 117 27 126 27 c 2
 175 29 l 1
 171 0 l 1
 13 0 l 1
 17 29 l 1
 56 27 l 2
 68 27 75 34 77 49 c 2
 149 563 l 2
 150 567 148 569 145 569 c 2
 100 567 l 1
 104 597 l 1
 255 597 l 1
 410 115 l 1
 687 597 l 1
 831 597 l 1
 827 567 l 1
EndSplineSet
Position2: "'cpsp' Capital Spacing lookup 0 per glyph data 2" dx=5 dy=0 dh=10 dv=0
EndChar

StartChar: N
Encoding: 78 78 54
Width: 641
Flags: MW
HStem: 0 27<56 62 121.5 126> 569 28<132 137 541 545 602 607>
VStem: 13 639<0 597>
LayerCount: 2
Fore
SplineSet
648 567 m 1
 607 569 l 2
 597 569 591 562 589 548 c 2
 511 -6 l 1
 479 -6 l 1
 179 521 l 1
 113 49 l 2
 113 47 113 44 113 42 c 0
 113 32 117 27 126 27 c 2
 175 29 l 1
 171 0 l 1
 13 0 l 1
 17 29 l 1
 56 27 l 2
 68 27 75 34 77 49 c 2
 147 548 l 2
 147 550 147 551 147 553 c 0
 147 562 142 569 132 569 c 2
 93 567 l 1
 97 597 l 1
 249 597 l 1
 498 158 l 1
 553 549 l 2
 553 551 554 553 554 555 c 0
 553 564 549 569 541 569 c 2
 489 567 l 1
 493 597 l 1
 652 597 l 1
 648 567 l 1
EndSplineSet
Position2: "'cpsp' Capital Spacing lookup 0 per glyph data 2" dx=5 dy=0 dh=10 dv=0
EndChar

StartChar: Nacute
Encoding: 323 323 55
Width: 641
Flags: MW
HStem: 0 27<56 62 121.5 126> 569 28<132 137 541 545 602 607>
VStem: 13 639<0 597>
LayerCount: 2
Fore
SplineSet
448 805 m 2
 463 821 468 826 483 826 c 0
 507 826 537 808 537 800 c 0
 537 795 531 791 527 788 c 2
 356 675 l 2
 352 672 343 666 335 666 c 0
 325 666 321 669 321 673 c 0
 321 678 331 687 341 697 c 2
 448 805 l 2
607 569 m 2
 597 569 591 562 589 548 c 2
 511 -6 l 1
 479 -6 l 1
 179 521 l 1
 113 49 l 1
 113 42 l 2
 113 32 117 27 126 27 c 2
 175 29 l 1
 171 0 l 1
 13 0 l 1
 17 29 l 1
 56 27 l 2
 68 27 75 34 77 49 c 2
 147 548 l 1
 147 553 l 2
 147 562 142 569 132 569 c 2
 93 567 l 1
 97 597 l 1
 249 597 l 1
 498 158 l 1
 553 549 l 2
 553 551 554 553 554 555 c 0
 553 564 549 569 541 569 c 2
 489 567 l 1
 493 597 l 1
 652 597 l 1
 648 567 l 1
 607 569 l 2
EndSplineSet
EndChar

StartChar: Ncaron
Encoding: 327 327 56
Width: 641
Flags: MW
HStem: 0 27<56 62 121.5 126> 569 28<132 137 541 545 602 607>
VStem: 13 639<0 597>
LayerCount: 2
Fore
SplineSet
515 812 m 2
 524 817 536 824 544 824 c 0
 553 824 555 820 555 817 c 0
 555 809 515 785 469 741 c 2
 419 693 l 2
 403 678 390 668 385 668 c 0
 382 668 371 677 359 693 c 2
 323 741 l 2
 289 787 258 808 258 816 c 0
 258 818 260 824 271 824 c 0
 278 824 291 817 298 812 c 2
 395 739 l 1
 515 812 l 2
607 569 m 2
 597 569 591 562 589 548 c 2
 511 -6 l 1
 479 -6 l 1
 179 521 l 1
 113 49 l 1
 113 42 l 2
 113 32 117 27 126 27 c 2
 175 29 l 1
 171 0 l 1
 13 0 l 1
 17 29 l 1
 56 27 l 2
 68 27 75 34 77 49 c 2
 147 548 l 1
 147 553 l 2
 147 562 142 569 132 569 c 2
 93 567 l 1
 97 597 l 1
 249 597 l 1
 498 158 l 1
 553 549 l 2
 553 551 554 553 554 555 c 0
 553 564 549 569 541 569 c 2
 489 567 l 1
 493 597 l 1
 652 597 l 1
 648 567 l 1
 607 569 l 2
EndSplineSet
EndChar

StartChar: Ncommaaccent
Encoding: 325 325 57
Width: 641
Flags: MW
HStem: -111 77<281 333.5> 0 27<56 62 121.5 126> 569 28<132 137 541 545 602 607>
VStem: 313 56
LayerCount: 2
Fore
SplineSet
607 569 m 2
 597 569 591 562 589 548 c 2
 511 -6 l 1
 479 -6 l 1
 179 521 l 1
 113 49 l 1
 113 42 l 2
 113 32 117 27 126 27 c 2
 175 29 l 1
 171 0 l 1
 13 0 l 1
 17 29 l 1
 56 27 l 2
 68 27 75 34 77 49 c 2
 147 548 l 1
 147 553 l 2
 147 562 142 569 132 569 c 2
 93 567 l 1
 97 597 l 1
 249 597 l 1
 498 158 l 1
 553 549 l 2
 553 551 554 553 554 555 c 0
 553 564 549 569 541 569 c 2
 489 567 l 1
 493 597 l 1
 652 597 l 1
 648 567 l 1
 607 569 l 2
256 -200 m 1
 284 -185 311 -158 313 -140 c 0
 316 -117 303 -111 289 -111 c 0
 273 -111 263 -97 263 -81 c 0
 263 -59 282 -34 316 -34 c 0
 351 -34 369 -59 369 -87 c 0
 369 -144 317 -192 270 -213 c 1
 256 -200 l 1
EndSplineSet
EndChar

StartChar: Ntilde
Encoding: 209 209 58
Width: 641
Flags: MW
HStem: 0 27<56 62 121.5 126> 569 28<132 137 541 545 602 607> 675 49<460.5 480.5> 718 49<303.5 324>
VStem: 245 20<676 676> 519 20<766 766>
LayerCount: 2
Fore
SplineSet
245 676 m 1xdc
 252 725 285 767 322 767 c 0xdc
 365 767 441 724 480 724 c 0
 499 724 516 742 519 766 c 1
 539 766 l 1
 532 717 499 675 462 675 c 0xec
 418 675 344 718 304 718 c 0
 285 718 269 700 265 676 c 1
 245 676 l 1xdc
607 569 m 2
 597 569 591 562 589 548 c 2
 511 -6 l 1
 479 -6 l 1
 179 521 l 1
 113 49 l 1
 113 42 l 2
 113 32 117 27 126 27 c 2
 175 29 l 1
 171 0 l 1
 13 0 l 1
 17 29 l 1
 56 27 l 2
 68 27 75 34 77 49 c 2
 147 548 l 1
 147 553 l 2
 147 562 142 569 132 569 c 2
 93 567 l 1
 97 597 l 1
 249 597 l 1
 498 158 l 1
 553 549 l 2
 553 551 554 553 554 555 c 0
 553 564 549 569 541 569 c 2
 489 567 l 1
 493 597 l 1
 652 597 l 1
 648 567 l 1
 607 569 l 2
EndSplineSet
Position2: "'cpsp' Capital Spacing lookup 0 per glyph data 2" dx=5 dy=0 dh=10 dv=0
EndChar

StartChar: O
Encoding: 79 79 59
Width: 649
Flags: MW
HStem: -10 27<251.5 346.5> 580 27<325 421>
VStem: 50 98<140 261.5 140 402> 524 99<333 457.5>
LayerCount: 2
Fore
SplineSet
50 242 m 0
 50 562 271 607 379 607 c 0
 466 607 623 575 623 356 c 0
 623 36 400 -10 293 -10 c 0
 205 -10 50 25 50 242 c 0
148 215 m 0
 148 65 197 17 306 17 c 0
 388 17 444 60 478 139 c 0
 504 200 524 283 524 383 c 0
 524 532 476 580 366 580 c 0
 280 580 222 532 189 443 c 0
 167 385 148 308 148 215 c 0
EndSplineSet
Substitution2: "Single Substitution lookup 21 subtable" ordmasculine
Substitution2: "'aalt' Access All Alternates lookup 0 subtable" ordmasculine
Position2: "'cpsp' Capital Spacing lookup 0 per glyph data 2" dx=5 dy=0 dh=10 dv=0
EndChar

StartChar: Oacute
Encoding: 211 211 60
Width: 649
Flags: MW
HStem: -10 27<251.5 346.5> 580 27<325 421>
VStem: 50 98<140 261.5 140 402> 524 99<333 457.5>
LayerCount: 2
Fore
SplineSet
448 805 m 2
 463 821 468 826 483 826 c 0
 507 826 537 808 537 800 c 0
 537 795 531 791 527 788 c 2
 356 675 l 2
 352 672 343 666 335 666 c 0
 325 666 321 669 321 673 c 0
 321 678 331 687 341 697 c 2
 448 805 l 2
50 242 m 0
 50 562 271 607 379 607 c 0
 466 607 623 575 623 356 c 0
 623 36 400 -10 293 -10 c 0
 205 -10 50 25 50 242 c 0
148 215 m 0
 148 65 197 17 306 17 c 0
 388 17 444 60 478 139 c 0
 504 200 524 283 524 383 c 0
 524 532 476 580 366 580 c 0
 280 580 222 532 189 443 c 0
 167 385 148 308 148 215 c 0
EndSplineSet
Position2: "'cpsp' Capital Spacing lookup 0 per glyph data 2" dx=5 dy=0 dh=10 dv=0
EndChar

StartChar: Ocircumflex
Encoding: 212 212 61
Width: 649
Flags: MW
HStem: -10 27<251.5 346.5> 580 27<325 421>
VStem: 50 98<140 261.5 140 402> 524 99<333 457.5>
LayerCount: 2
Fore
SplineSet
278 678 m 2
 269 673 257 666 249 666 c 0
 240 666 238 670 238 673 c 0
 238 681 278 705 324 749 c 2
 374 797 l 2
 390 812 403 822 408 822 c 0
 411 822 422 813 434 797 c 2
 470 749 l 2
 504 703 535 682 535 674 c 0
 535 672 533 666 522 666 c 0
 515 666 502 673 495 678 c 2
 398 751 l 1
 278 678 l 2
50 242 m 0
 50 562 271 607 379 607 c 0
 466 607 623 575 623 356 c 0
 623 36 400 -10 293 -10 c 0
 205 -10 50 25 50 242 c 0
148 215 m 0
 148 65 197 17 306 17 c 0
 388 17 444 60 478 139 c 0
 504 200 524 283 524 383 c 0
 524 532 476 580 366 580 c 0
 280 580 222 532 189 443 c 0
 167 385 148 308 148 215 c 0
EndSplineSet
Position2: "'cpsp' Capital Spacing lookup 0 per glyph data 2" dx=5 dy=0 dh=10 dv=0
EndChar

StartChar: Odieresis
Encoding: 214 214 62
Width: 649
Flags: MW
HStem: -10 27<251.5 346.5> 580 27<325 421> 677 95<298 319 472 493>
VStem: 50 98<140 261.5 140 402> 253 109<714 734.5> 427 109<714 734.5> 524 99<333 457.5>
LayerCount: 2
Fore
SplineSet
315 772 m 0xfa
 344 772 362 756 362 731 c 0
 362 697 337 677 301 677 c 0
 273 677 253 692 253 718 c 0
 253 751 281 772 315 772 c 0xfa
489 772 m 0xfc
 518 772 536 756 536 731 c 0
 536 697 511 677 475 677 c 0
 447 677 427 692 427 718 c 0
 427 751 455 772 489 772 c 0xfc
50 242 m 0
 50 562 271 607 379 607 c 0
 466 607 623 575 623 356 c 0xfa
 623 36 400 -10 293 -10 c 0
 205 -10 50 25 50 242 c 0
148 215 m 0
 148 65 197 17 306 17 c 0
 388 17 444 60 478 139 c 0
 504 200 524 283 524 383 c 0xfa
 524 532 476 580 366 580 c 0
 280 580 222 532 189 443 c 0
 167 385 148 308 148 215 c 0
EndSplineSet
Position2: "'cpsp' Capital Spacing lookup 0 per glyph data 2" dx=5 dy=0 dh=10 dv=0
EndChar

StartChar: Ograve
Encoding: 210 210 63
Width: 649
Flags: MW
HStem: -10 27<251.5 346.5> 580 27<325 421>
VStem: 50 98<140 261.5 140 402> 524 99<333 457.5>
LayerCount: 2
Fore
SplineSet
276 788 m 2
 273 791 270 794 270 799 c 0
 270 808 305 826 330 826 c 0
 345 826 347 821 359 805 c 2
 441 691 l 2
 446 683 450 677 450 674 c 0
 450 669 445 666 433 666 c 0
 425 666 418 672 415 675 c 2
 276 788 l 2
50 242 m 0
 50 562 271 607 379 607 c 0
 466 607 623 575 623 356 c 0
 623 36 400 -10 293 -10 c 0
 205 -10 50 25 50 242 c 0
148 215 m 0
 148 65 197 17 306 17 c 0
 388 17 444 60 478 139 c 0
 504 200 524 283 524 383 c 0
 524 532 476 580 366 580 c 0
 280 580 222 532 189 443 c 0
 167 385 148 308 148 215 c 0
EndSplineSet
Position2: "'cpsp' Capital Spacing lookup 0 per glyph data 2" dx=5 dy=0 dh=10 dv=0
EndChar

StartChar: Ohungarumlaut
Encoding: 336 336 64
Width: 649
Flags: MW
HStem: -10 27<251.5 346.5> 580 27<325 421> 817 9
VStem: 50 98<140 261.5 140 402> 524 99<333 457.5>
LayerCount: 2
Fore
SplineSet
389 826 m 0
 409 826 438 810 438 801 c 0
 438 799 435 795 429 789 c 0
 421 780 405 765 303 672 c 0
 299 668 292 666 286 666 c 0
 279 666 276 669 276 673 c 0
 276 676 277 679 280 683 c 0
 356 795 368 810 373 817 c 0
 379 825 382 826 389 826 c 0
501 826 m 0
 520 826 549 812 549 802 c 0
 549 800 547 796 541 789 c 0
 533 780 512 759 415 672 c 0
 409 667 403 666 398 666 c 0
 391 666 387 670 387 673 c 0
 387 676 389 679 391 683 c 0
 461 779 485 817 485 817 c 1
 492 825 494 826 501 826 c 0
50 242 m 0
 50 562 271 607 379 607 c 0
 466 607 623 575 623 356 c 0
 623 36 400 -10 293 -10 c 0
 205 -10 50 25 50 242 c 0
148 215 m 0
 148 65 197 17 306 17 c 0
 388 17 444 60 478 139 c 0
 504 200 524 283 524 383 c 0
 524 532 476 580 366 580 c 0
 280 580 222 532 189 443 c 0
 167 385 148 308 148 215 c 0
EndSplineSet
EndChar

StartChar: Omacron
Encoding: 332 332 65
Width: 649
Flags: MW
HStem: -10 27<251.5 346.5> 580 27<325 421> 676 40<270 506 264 512>
VStem: 50 98<140 261.5 140 402> 524 99<333 457.5>
LayerCount: 2
Fore
SplineSet
506 676 m 1
 264 676 l 1
 270 716 l 1
 512 716 l 1
 506 676 l 1
50 242 m 0
 50 562 271 607 379 607 c 0
 466 607 623 575 623 356 c 0
 623 36 400 -10 293 -10 c 0
 205 -10 50 25 50 242 c 0
148 215 m 0
 148 65 197 17 306 17 c 0
 388 17 444 60 478 139 c 0
 504 200 524 283 524 383 c 0
 524 532 476 580 366 580 c 0
 280 580 222 532 189 443 c 0
 167 385 148 308 148 215 c 0
EndSplineSet
EndChar

StartChar: Oslash
Encoding: 216 216 66
Width: 644
Flags: MW
HStem: -10 27<279 346.5> 522 20G<482 482> 580 27<325 392>
VStem: 50 98<191.5 261.5 189.5 402> 524 99<333 407.5 196 409.5>
LayerCount: 2
Fore
SplineSet
542 557 m 1
 588 521 623 459 623 356 c 0
 623 36 400 -10 293 -10 c 0
 255 -10 206 -4 161 21 c 1
 81 -92 l 1
 46 -74 l 1
 128 42 l 1
 84 79 50 141 50 242 c 0
 50 562 271 607 379 607 c 0
 415 607 464 601 508 579 c 1
 584 687 l 1
 619 666 l 1
 542 557 l 1
482 542 m 1
 456 569 418 580 366 580 c 0
 280 580 222 532 189 443 c 0
 167 385 148 308 148 215 c 0
 148 164 154 125 166 95 c 1
 482 542 l 1
188 58 m 1
 213 29 252 17 306 17 c 0
 388 17 444 60 478 139 c 0
 504 200 524 283 524 383 c 0
 524 436 518 476 505 506 c 1
 188 58 l 1
EndSplineSet
Position2: "'cpsp' Capital Spacing lookup 0 per glyph data 2" dx=5 dy=0 dh=10 dv=0
EndChar

StartChar: Otilde
Encoding: 213 213 67
Width: 649
Flags: MW
HStem: -10 27<251.5 346.5> 580 27<325 421> 675 49<460.5 480.5> 718 49<303.5 324>
VStem: 50 98<140 261.5 140 402> 245 20<676 676> 519 20<766 766> 524 99<333 457.5>
LayerCount: 2
Fore
SplineSet
245 676 m 1xdd
 252 725 285 767 322 767 c 0xdd
 365 767 441 724 480 724 c 0
 499 724 516 742 519 766 c 1
 539 766 l 1
 532 717 499 675 462 675 c 0xee
 418 675 344 718 304 718 c 0
 285 718 269 700 265 676 c 1
 245 676 l 1xdd
50 242 m 0
 50 562 271 607 379 607 c 0
 466 607 623 575 623 356 c 0
 623 36 400 -10 293 -10 c 0
 205 -10 50 25 50 242 c 0
148 215 m 0
 148 65 197 17 306 17 c 0
 388 17 444 60 478 139 c 0
 504 200 524 283 524 383 c 0
 524 532 476 580 366 580 c 0
 280 580 222 532 189 443 c 0
 167 385 148 308 148 215 c 0
EndSplineSet
Position2: "'cpsp' Capital Spacing lookup 0 per glyph data 2" dx=5 dy=0 dh=10 dv=0
EndChar

StartChar: OE
Encoding: 338 338 68
Width: 834
Flags: MW
HStem: -10 28<245 299> 0 27<492 603 603 647> 297 27<523 591 519 595> 406 20G<682 711 711 711> 443 154<776 805 776 776> 569 28<564.5 568 568 659> 581 26<320.5 403>
VStem: 50 94<158 252 144.5 347> 651 27<195 241> 682 29<426 426> 779 26
LayerCount: 2
Fore
SplineSet
434 0 m 2x7580
 364 0 300 -10 298 -10 c 0
 137 -10 50 79 50 237 c 0xb380
 50 457 151 607 387 607 c 0
 438 607 465 597 510 597 c 2
 827 597 l 1x7580
 805 443 l 1
 776 443 l 1x79a0
 778 455 779 466 779 476 c 0
 779 543 741 569 659 569 c 2
 568 569 l 2
 561 569 556 564 555 555 c 2
 523 324 l 1
 595 324 l 2
 636 324 673 362 682 426 c 1
 711 426 l 1x7560
 678 195 l 1
 649 195 l 1
 650 203 651 210 651 217 c 0
 651 265 625 297 591 297 c 2
 519 297 l 1
 483 40 l 2
 483 39 483 38 483 37 c 0
 483 30 486 27 492 27 c 2
 603 27 l 2
 691 27 745 82 758 179 c 1
 787 179 l 1
 762 -3 l 1
 745 -1 717 0 675 0 c 2
 434 0 l 2x7580
463 526 m 2xb380
 467 557 429 581 377 581 c 0
 264 581 202 520 172 422 c 1
 150 363 144 292 144 212 c 0
 144 77 192 18 298 18 c 0
 374 18 397 56 402 90 c 2
 463 526 l 2xb380
EndSplineSet
Position2: "'cpsp' Capital Spacing lookup 0 per glyph data 2" dx=5 dy=0 dh=10 dv=0
EndChar

StartChar: P
Encoding: 80 80 69
Width: 507
Flags: MW
HStem: 0 27<61 66.5 183 188> 263 28<207 287 287 303 203 287> 569 28<136 136 254 256 256 310>
VStem: 411 96<412 491>
LayerCount: 2
Fore
SplineSet
330 597 m 2
 451 597 507 552 507 463 c 0
 507 345 426 263 303 263 c 2
 203 263 l 1
 173 49 l 2
 173 47 173 45 173 44 c 0
 173 32 178 27 188 27 c 2
 237 29 l 1
 233 0 l 1
 18 0 l 1
 22 29 l 1
 61 27 l 2
 72 27 79 34 81 49 c 2
 151 547 l 2
 151 549 152 552 152 554 c 0
 152 563 147 570 136 569 c 2
 98 567 l 1
 102 597 l 1
 330 597 l 2
256 569 m 2
 252 569 245 564 244 557 c 2
 207 291 l 1
 287 291 l 2
 353 291 411 366 411 458 c 0
 411 524 374 569 310 569 c 2
 256 569 l 2
EndSplineSet
Position2: "'cpsp' Capital Spacing lookup 0 per glyph data 2" dx=5 dy=0 dh=10 dv=0
EndChar

StartChar: Thorn
Encoding: 222 222 70
Width: 508
Flags: MW
HStem: 0 27<61 67> 162 26<204 270 270 288 190 270> 471 25<233 314 237 295> 569 28<137 142 259 264>
VStem: 398 96<310.5 391>
LayerCount: 2
Fore
SplineSet
313 567 m 1
 264 569 l 2
 254 569 246 559 244 548 c 2
 237 496 l 1
 314 496 l 2
 436 496 494 454 494 362 c 0
 494 243 414 162 288 162 c 2
 190 162 l 1
 174 49 l 2
 174 47 173 44 173 42 c 0
 173 33 177 26 188 27 c 2
 237 29 l 1
 233 0 l 1
 18 0 l 1
 22 29 l 1
 61 27 l 2
 73 27 79 35 81 49 c 2
 151 548 l 2
 151 550 151 552 151 553 c 0
 151 562 147 569 137 569 c 2
 98 567 l 1
 102 597 l 1
 317 597 l 1
 313 567 l 1
233 471 m 1
 195 201 l 2
 195 200 195 200 195 199 c 0
 195 193 199 188 204 188 c 2
 270 188 l 2
 333 188 398 264 398 357 c 0
 398 425 361 471 295 471 c 2
 233 471 l 1
EndSplineSet
Position2: "'cpsp' Capital Spacing lookup 0 per glyph data 2" dx=5 dy=0 dh=10 dv=0
EndChar

StartChar: Q
Encoding: 81 81 71
Width: 649
Flags: MW
HStem: -156 58<481 484.5> -23 20G -10 27<251.5 293> 580 27<325 421>
VStem: 50 98<140 261.5 140 402> 524 99<333 457.5>
LayerCount: 2
Fore
SplineSet
589 -112 m 1xdc
 543 -141 503 -156 466 -156 c 0
 406 -156 354 -110 293 -10 c 1xbc
 205 -10 50 25 50 242 c 0
 50 562 271 607 379 607 c 0
 466 607 623 575 623 356 c 0
 623 97 477 17 364 -3 c 1
 418 -76 458 -98 504 -98 c 0
 528 -98 553 -93 582 -86 c 1
 589 -112 l 1xdc
148 215 m 0xbc
 148 65 197 17 306 17 c 0
 388 17 444 60 478 139 c 0
 504 200 524 283 524 383 c 0
 524 532 476 580 366 580 c 0
 280 580 222 532 189 443 c 0
 167 385 148 308 148 215 c 0xbc
EndSplineSet
Position2: "'cpsp' Capital Spacing lookup 0 per glyph data 2" dx=5 dy=0 dh=10 dv=0
EndChar

StartChar: R
Encoding: 82 82 72
Width: 563
Flags: MW
HStem: -10 36<411 493> 0 27<61 66.5 183 188> 286 27<210 253 206 299> 569 28<133 140 253 256 256 316>
VStem: 371 93<37.5 205.5> 412 93<421.5 501.5>
LayerCount: 2
Fore
SplineSet
320 597 m 2x74
 447 597 505 557 505 468 c 0x74
 505 375 441 317 365 297 c 1
 435 287 464 239 464 172 c 0
 464 149 460 89 460 69 c 0
 460 40 468 26 489 26 c 0
 497 26 504 28 510 32 c 1
 518 13 l 1
 498 2 462 -10 431 -10 c 0
 391 -10 371 11 371 64 c 0
 371 93 377 134 377 161 c 0xb8
 377 250 319 283 253 286 c 1
 206 286 l 1
 173 41 l 1
 173 33 178 27 188 27 c 2
 237 29 l 1
 233 0 l 1
 18 0 l 1
 22 29 l 1
 61 27 l 2
 72 27 79 34 81 49 c 2
 150 542 l 2
 150 545 151 548 151 551 c 0
 151 563 147 569 133 569 c 2
 98 567 l 1
 102 597 l 1
 320 597 l 2x74
256 569 m 2
 250 569 246 566 245 559 c 2
 210 313 l 1
 299 313 l 2
 366 313 412 373 412 465 c 0
 412 538 383 569 316 569 c 2
 256 569 l 2
EndSplineSet
Position2: "'cpsp' Capital Spacing lookup 0 per glyph data 2" dx=5 dy=0 dh=10 dv=0
EndChar

StartChar: Racute
Encoding: 340 340 73
Width: 563
Flags: MW
HStem: -10 36<411 493> 0 27<61 66.5 183 188> 286 27<210 253 206 299> 569 28<133 140 253 256 256 316>
VStem: 371 93<37.5 205.5> 412 93<421.5 501.5>
LayerCount: 2
Fore
SplineSet
404 805 m 2x78
 419 821 424 826 439 826 c 0
 463 826 493 808 493 800 c 0
 493 795 487 791 483 788 c 2
 312 675 l 2
 308 672 299 666 291 666 c 0
 281 666 277 669 277 673 c 0
 277 678 287 687 297 697 c 2
 404 805 l 2x78
320 597 m 2x74
 447 597 505 557 505 468 c 0x74
 505 375 441 317 365 297 c 1
 435 287 464 239 464 172 c 0
 464 149 460 89 460 69 c 0
 460 40 468 26 489 26 c 0
 497 26 504 28 510 32 c 1
 518 13 l 1
 498 2 462 -10 431 -10 c 0
 391 -10 371 11 371 64 c 0
 371 93 377 134 377 161 c 0xb8
 377 250 319 283 253 286 c 1
 206 286 l 1
 173 41 l 1
 173 33 178 27 188 27 c 2
 237 29 l 1
 233 0 l 1
 18 0 l 1
 22 29 l 1
 61 27 l 2
 72 27 79 34 81 49 c 2
 150 542 l 2
 150 545 151 548 151 551 c 0
 151 563 147 569 133 569 c 2
 98 567 l 1
 102 597 l 1
 320 597 l 2x74
256 569 m 2
 250 569 246 566 245 559 c 2
 210 313 l 1
 299 313 l 2
 366 313 412 373 412 465 c 0
 412 538 383 569 316 569 c 2
 256 569 l 2
EndSplineSet
EndChar

StartChar: Rcaron
Encoding: 344 344 74
Width: 563
Flags: MW
HStem: -10 36<411 493> 0 27<61 66.5 183 188> 286 27<210 253 206 299> 569 28<133 140 253 256 256 316>
VStem: 371 93<37.5 205.5> 412 93<421.5 501.5>
LayerCount: 2
Fore
SplineSet
471 812 m 2x78
 480 817 492 824 500 824 c 0
 509 824 511 820 511 817 c 0
 511 809 471 785 425 741 c 2
 375 693 l 2
 359 678 346 668 341 668 c 0
 338 668 327 677 315 693 c 2
 279 741 l 2
 245 787 214 808 214 816 c 0
 214 818 216 824 227 824 c 0
 234 824 247 817 254 812 c 2
 351 739 l 1
 471 812 l 2x78
320 597 m 2x74
 447 597 505 557 505 468 c 0x74
 505 375 441 317 365 297 c 1
 435 287 464 239 464 172 c 0
 464 149 460 89 460 69 c 0
 460 40 468 26 489 26 c 0
 497 26 504 28 510 32 c 1
 518 13 l 1
 498 2 462 -10 431 -10 c 0
 391 -10 371 11 371 64 c 0
 371 93 377 134 377 161 c 0xb8
 377 250 319 283 253 286 c 1
 206 286 l 1
 173 41 l 1
 173 33 178 27 188 27 c 2
 237 29 l 1
 233 0 l 1
 18 0 l 1
 22 29 l 1
 61 27 l 2
 72 27 79 34 81 49 c 2
 150 542 l 2
 150 545 151 548 151 551 c 0
 151 563 147 569 133 569 c 2
 98 567 l 1
 102 597 l 1
 320 597 l 2x74
256 569 m 2
 250 569 246 566 245 559 c 2
 210 313 l 1
 299 313 l 2
 366 313 412 373 412 465 c 0
 412 538 383 569 316 569 c 2
 256 569 l 2
EndSplineSet
EndChar

StartChar: Rcommaaccent
Encoding: 342 342 75
Width: 563
Flags: MW
HStem: -111 77<214 266.5> -10 36<411 493> 0 27<61 66.5 183 188> 286 27<210 253 206 299> 569 28<133 140 253 256 256 316>
VStem: 246 56 371 93<37.5 205.5> 412 93<421.5 501.5>
LayerCount: 2
Fore
SplineSet
320 597 m 2x39
 447 597 505 557 505 468 c 0x39
 505 375 441 317 365 297 c 1
 435 287 464 239 464 172 c 0
 464 149 460 89 460 69 c 0
 460 40 468 26 489 26 c 0
 497 26 504 28 510 32 c 1
 518 13 l 1
 498 2 462 -10 431 -10 c 0
 391 -10 371 11 371 64 c 0
 371 93 377 134 377 161 c 0x5a
 377 250 319 283 253 286 c 1
 206 286 l 1
 173 41 l 1
 173 33 178 27 188 27 c 2
 237 29 l 1
 233 0 l 1
 18 0 l 1
 22 29 l 1
 61 27 l 2
 72 27 79 34 81 49 c 2
 150 542 l 2
 150 545 151 548 151 551 c 0
 151 563 147 569 133 569 c 2
 98 567 l 1
 102 597 l 1
 320 597 l 2x39
256 569 m 2
 250 569 246 566 245 559 c 2
 210 313 l 1
 299 313 l 2
 366 313 412 373 412 465 c 0
 412 538 383 569 316 569 c 2
 256 569 l 2
189 -200 m 1xbe
 217 -185 244 -158 246 -140 c 0
 249 -117 236 -111 222 -111 c 0
 206 -111 196 -97 196 -81 c 0
 196 -59 215 -34 249 -34 c 0
 284 -34 302 -59 302 -87 c 0
 302 -144 250 -192 203 -213 c 1
 189 -200 l 1xbe
EndSplineSet
EndChar

StartChar: S
Encoding: 83 83 76
Width: 479
Flags: MW
HStem: -10 28<212 252.5> 434 138<431 439 431 447 419 439> 580 27<261 311 223 333.5>
VStem: 45 26<114.5 203> 83 88<453.5 481 453.5 483.5> 343 95<120 164.5> 421 25<454 495>
LayerCount: 2
Fore
SplineSet
195 288 m 2xbc
 136 321 83 360 83 441 c 0
 83 526 157 607 289 607 c 0xba
 333 607 359 596 409 578 c 0
 419 574 428 572 434 572 c 0
 444 572 454 573 465 577 c 1
 460 560 446 535 446 458 c 0
 446 448 446 439 447 434 c 1
 419 434 l 1xf2
 420 442 421 450 421 458 c 0
 421 532 370 580 297 580 c 0
 225 580 172 542 171 481 c 0
 171 426 214 395 267 365 c 2xba
 329 330 l 1
 387 296 438 254 438 176 c 0
 438 64 336 -10 228 -10 c 0
 196 -10 166 -4 139 3 c 0
 109 10 84 18 69 18 c 0
 49 18 22 11 20 10 c 1
 26 28 45 57 45 172 c 0
 45 183 45 199 44 203 c 1
 71 203 l 1xb4
 68 82 117 18 221 18 c 0
 284 18 343 67 343 132 c 0
 343 197 297 231 244 261 c 2
 195 288 l 2xbc
EndSplineSet
Position2: "'cpsp' Capital Spacing lookup 0 per glyph data 2" dx=5 dy=0 dh=10 dv=0
EndChar

StartChar: Sacute
Encoding: 346 346 77
Width: 479
Flags: MW
HStem: -10 28<212 252.5> 434 138<431 439 431 447 419 439> 580 27<261 311 223 333.5>
VStem: 45 26<114.5 203> 83 88<453.5 481 453.5 483.5> 343 95<120 164.5> 421 25<454 495>
LayerCount: 2
Fore
SplineSet
367 805 m 2xb2
 382 821 387 826 402 826 c 0
 426 826 456 808 456 800 c 0
 456 795 450 791 446 788 c 2
 275 675 l 2
 271 672 262 666 254 666 c 0
 244 666 240 669 240 673 c 0
 240 678 250 687 260 697 c 2
 367 805 l 2xb2
195 288 m 2xbc
 136 321 83 360 83 441 c 0
 83 526 157 607 289 607 c 0xba
 333 607 359 596 409 578 c 0
 419 574 428 572 434 572 c 0
 444 572 454 573 465 577 c 1
 460 560 446 535 446 458 c 0
 446 448 446 439 447 434 c 1
 419 434 l 1xf2
 420 442 421 450 421 458 c 0
 421 532 370 580 297 580 c 0
 225 580 172 542 171 481 c 0
 171 426 214 395 267 365 c 2xba
 329 330 l 1
 387 296 438 254 438 176 c 0
 438 64 336 -10 228 -10 c 0
 196 -10 166 -4 139 3 c 0
 109 10 84 18 69 18 c 0
 49 18 22 11 20 10 c 1
 26 28 45 57 45 172 c 0
 45 183 45 199 44 203 c 1
 71 203 l 1xb4
 68 82 117 18 221 18 c 0
 284 18 343 67 343 132 c 0
 343 197 297 231 244 261 c 2
 195 288 l 2xbc
EndSplineSet
EndChar

StartChar: Scaron
Encoding: 352 352 78
Width: 479
Flags: MW
HStem: -10 28<212 252.5> 434 138<431 439 431 447 419 439> 580 27<261 311 223 333.5>
VStem: 45 26<114.5 203> 83 88<453.5 481 453.5 483.5> 343 95<120 164.5> 421 25<454 495>
LayerCount: 2
Fore
SplineSet
434 812 m 2xb2
 443 817 455 824 463 824 c 0
 472 824 474 820 474 817 c 0
 474 809 434 785 388 741 c 2
 338 693 l 2
 322 678 309 668 304 668 c 0
 301 668 290 677 278 693 c 2
 242 741 l 2
 208 787 177 808 177 816 c 0
 177 818 179 824 190 824 c 0
 197 824 210 817 217 812 c 2
 314 739 l 1
 434 812 l 2xb2
195 288 m 2xbc
 136 321 83 360 83 441 c 0
 83 526 157 607 289 607 c 0xba
 333 607 359 596 409 578 c 0
 419 574 428 572 434 572 c 0
 444 572 454 573 465 577 c 1
 460 560 446 535 446 458 c 0
 446 448 446 439 447 434 c 1
 419 434 l 1xf2
 420 442 421 450 421 458 c 0
 421 532 370 580 297 580 c 0
 225 580 172 542 171 481 c 0
 171 426 214 395 267 365 c 2xba
 329 330 l 1
 387 296 438 254 438 176 c 0
 438 64 336 -10 228 -10 c 0
 196 -10 166 -4 139 3 c 0
 109 10 84 18 69 18 c 0
 49 18 22 11 20 10 c 1
 26 28 45 57 45 172 c 0
 45 183 45 199 44 203 c 1
 71 203 l 1xb4
 68 82 117 18 221 18 c 0
 284 18 343 67 343 132 c 0
 343 197 297 231 244 261 c 2
 195 288 l 2xbc
EndSplineSet
Position2: "'cpsp' Capital Spacing lookup 0 per glyph data 2" dx=5 dy=0 dh=10 dv=0
EndChar

StartChar: Scedilla
Encoding: 350 350 79
Width: 479
Flags: MW
HStem: -214 27<176.5 178.5 156.5 218.5> -9 27<212 212 248 248> 434 138<419 439 431 439 431 447> 580 27<261 311 223 333.5>
VStem: 45 26<114.5 203> 83 88<453.5 481 453.5 483.5> 166 49<-68.5 -64> 221 68<-143.5 -122.5> 343 95<123.5 164.5> 421 25<454 495>
LayerCount: 2
Fore
SplineSet
419 434 m 1xf840
 420 442 421 450 421 458 c 0
 421 532 370 580 297 580 c 0
 225 580 172 542 171 481 c 0
 171 426 214 395 267 365 c 2xdc40
 329 330 l 1
 387 296 438 254 438 176 c 0
 438 71 349 0 248 -9 c 1
 224 -43 l 2
 218 -51 215 -59 215 -63 c 0xda80
 215 -85 289 -73 289 -117 c 0
 289 -170 252 -214 185 -214 c 0
 168 -214 140 -213 119 -198 c 1
 131 -171 l 1
 138 -182 150 -187 163 -187 c 0
 194 -187 221 -161 221 -130 c 0
 221 -115 208 -103 196 -94 c 2xd940
 176 -80 l 2
 170 -76 166 -71 166 -66 c 0
 166 -62 168 -58 175 -52 c 1
 212 -9 l 1
 186 -8 161 -3 139 3 c 0
 109 10 84 18 69 18 c 0
 49 18 22 11 20 10 c 1
 26 28 45 57 45 172 c 0
 45 183 45 199 44 203 c 1
 71 203 l 1xda40
 68 82 117 18 221 18 c 0
 284 18 343 67 343 132 c 0
 343 197 297 231 244 261 c 2
 195 288 l 2
 136 321 83 360 83 441 c 0
 83 526 157 607 289 607 c 0xdc80
 333 607 359 596 409 578 c 0
 419 574 428 572 434 572 c 0
 444 572 454 573 465 577 c 1
 460 560 446 535 446 458 c 0
 446 448 446 439 447 434 c 1
 419 434 l 1xf840
EndSplineSet
EndChar

StartChar: Scommaaccent
Encoding: 536 536 80
Width: 479
Flags: MW
HStem: -111 77<190 242.5> -10 28<212 252.5> 434 138<431 439 431 447 419 439> 580 27<261 311 223 333.5>
VStem: 45 26<114.5 203> 83 88<453.5 481 453.5 483.5> 222 56 343 95<120 164.5> 421 25<454 495>
LayerCount: 2
Fore
SplineSet
195 288 m 2x5d
 136 321 83 360 83 441 c 0
 83 526 157 607 289 607 c 0x5c80
 333 607 359 596 409 578 c 0
 419 574 428 572 434 572 c 0
 444 572 454 573 465 577 c 1
 460 560 446 535 446 458 c 0
 446 448 446 439 447 434 c 1
 419 434 l 1x7880
 420 442 421 450 421 458 c 0
 421 532 370 580 297 580 c 0
 225 580 172 542 171 481 c 0
 171 426 214 395 267 365 c 2x5c80
 329 330 l 1
 387 296 438 254 438 176 c 0
 438 64 336 -10 228 -10 c 0
 196 -10 166 -4 139 3 c 0
 109 10 84 18 69 18 c 0
 49 18 22 11 20 10 c 1
 26 28 45 57 45 172 c 0
 45 183 45 199 44 203 c 1
 71 203 l 1x59
 68 82 117 18 221 18 c 0
 284 18 343 67 343 132 c 0
 343 197 297 231 244 261 c 2
 195 288 l 2x5d
165 -200 m 1xda80
 193 -185 220 -158 222 -140 c 0
 225 -117 212 -111 198 -111 c 0
 182 -111 172 -97 172 -81 c 0
 172 -59 191 -34 225 -34 c 0
 260 -34 278 -59 278 -87 c 0
 278 -144 226 -192 179 -213 c 1
 165 -200 l 1xda80
EndSplineSet
EndChar

StartChar: T
Encoding: 84 84 81
Width: 512
Flags: MW
HStem: 0 27<167 172.5 289.5 294> 443 154<46 512 46 512 502 512 512 523 108 530 502 502> 569 28<167.5 210 210 250 360 363 363 403> 580 20G<552 552>
VStem: 505 25
LayerCount: 2
Fore
SplineSet
530 443 m 1xc8
 502 443 l 1xc8
 504 456 505 468 505 479 c 0
 505 539 475 569 403 569 c 2
 363 569 l 2
 357 569 352 564 351 558 c 2
 280 49 l 2
 280 47 280 45 280 43 c 0
 280 32 285 27 294 27 c 2
 347 29 l 1
 343 0 l 1
 109 0 l 1
 113 29 l 1
 167 27 l 2
 178 27 185 39 187 52 c 2
 258 557 l 2
 258 558 258 559 258 560 c 0
 258 566 255 569 250 569 c 2
 210 569 l 2xa8
 125 569 86 528 74 443 c 1
 46 443 l 1xc8
 68 599 l 1
 76 598 90 597 108 597 c 2
 512 597 l 2xa8
 534 597 548 598 552 600 c 1x98
 530 443 l 1xc8
EndSplineSet
Position2: "'cpsp' Capital Spacing lookup 0 per glyph data 2" dx=5 dy=0 dh=10 dv=0
EndChar

StartChar: Tcaron
Encoding: 356 356 82
Width: 512
Flags: MW
HStem: 0 27<167 172.5 289.5 294> 443 154<46 512 46 512 502 512 512 523 108 530 502 502> 569 28<167.5 210 210 250 360 363 363 403> 580 20G<552 552>
VStem: 505 25
LayerCount: 2
Fore
SplineSet
442 812 m 2xa8
 451 817 463 824 471 824 c 0
 480 824 482 820 482 817 c 0
 482 809 442 785 396 741 c 2
 346 693 l 2
 330 678 317 668 312 668 c 0
 309 668 298 677 286 693 c 2
 250 741 l 2
 216 787 185 808 185 816 c 0
 185 818 187 824 198 824 c 0
 205 824 218 817 225 812 c 2
 322 739 l 1
 442 812 l 2xa8
502 443 m 1xc8
 504 456 505 468 505 479 c 0
 505 539 475 569 403 569 c 2
 363 569 l 2
 357 569 352 564 351 558 c 2
 280 49 l 1
 280 43 l 2
 280 32 285 27 294 27 c 2
 347 29 l 1
 343 0 l 1
 109 0 l 1
 113 29 l 1
 167 27 l 2
 178 27 185 39 187 52 c 2
 258 557 l 1
 258 560 l 2
 258 566 255 569 250 569 c 2
 210 569 l 2xa8
 125 569 86 528 74 443 c 1
 46 443 l 1xc8
 68 599 l 1
 76 598 90 597 108 597 c 2
 512 597 l 2xa8
 534 597 548 598 552 600 c 1x98
 530 443 l 1
 502 443 l 1xc8
EndSplineSet
EndChar

StartChar: Tcedilla
Encoding: 354 354 83
Width: 512
Flags: MW
HStem: -214 27<175.5 177.5 155.5 217.5> 0 27<167 172.5 167 219 289.5 294> 443 154<46 512 46 512 502 512 512 523 108 530 502 502> 569 28<167.5 210 210 250 360 363 363 403> 580 20G<552 552>
VStem: 165 49<-68.5 -64> 220 68<-143.5 -122.5> 505 25
LayerCount: 2
Fore
SplineSet
512 597 m 2xd3
 534 597 548 598 552 600 c 1xcb
 530 443 l 1
 502 443 l 1xe3
 504 456 505 468 505 479 c 0
 505 539 475 569 403 569 c 2
 363 569 l 2
 357 569 352 564 351 558 c 2
 280 49 l 1
 280 43 l 2
 280 32 285 27 294 27 c 2
 347 29 l 1
 343 0 l 1
 254 0 l 1
 223 -43 l 2
 217 -51 214 -59 214 -63 c 0xd5
 214 -85 288 -73 288 -117 c 0
 288 -170 251 -214 184 -214 c 0
 167 -214 139 -213 118 -198 c 1
 130 -171 l 1
 137 -182 149 -187 162 -187 c 0
 193 -187 220 -161 220 -130 c 0
 220 -115 207 -103 195 -94 c 2xd3
 175 -80 l 2
 169 -76 165 -71 165 -66 c 0
 165 -62 167 -58 174 -52 c 1
 219 0 l 1
 109 0 l 1
 113 29 l 1
 167 27 l 2
 178 27 185 39 187 52 c 2
 258 557 l 1
 258 560 l 2
 258 566 255 569 250 569 c 2
 210 569 l 2xd5
 125 569 86 528 74 443 c 1
 46 443 l 1xe5
 68 599 l 1
 76 598 90 597 108 597 c 2
 512 597 l 2xd3
EndSplineSet
EndChar

StartChar: uni021A
Encoding: 538 538 84
Width: 512
Flags: MW
HStem: -111 77<189 241.5> 0 27<167 172.5 289.5 294> 443 154<46 512 46 512 502 512 512 523 108 530 502 502> 569 28<167.5 210 210 250 360 363 363 403> 580 20G<552 552>
VStem: 221 56 505 25
LayerCount: 2
Fore
SplineSet
502 443 m 1x66
 504 456 505 468 505 479 c 0
 505 539 475 569 403 569 c 2
 363 569 l 2
 357 569 352 564 351 558 c 2
 280 49 l 1
 280 43 l 2
 280 32 285 27 294 27 c 2
 347 29 l 1
 343 0 l 1
 109 0 l 1
 113 29 l 1
 167 27 l 2
 178 27 185 39 187 52 c 2
 258 557 l 1
 258 560 l 2
 258 566 255 569 250 569 c 2
 210 569 l 2x56
 125 569 86 528 74 443 c 1
 46 443 l 1x66
 68 599 l 1
 76 598 90 597 108 597 c 2
 512 597 l 2x56
 534 597 548 598 552 600 c 1x4e
 530 443 l 1
 502 443 l 1x66
164 -200 m 1xd6
 192 -185 219 -158 221 -140 c 0
 224 -117 211 -111 197 -111 c 0
 181 -111 171 -97 171 -81 c 0
 171 -59 190 -34 224 -34 c 0
 259 -34 277 -59 277 -87 c 0
 277 -144 225 -192 178 -213 c 1
 164 -200 l 1xd6
EndSplineSet
EndChar

StartChar: U
Encoding: 85 85 85
Width: 631
Flags: MW
HStem: -10 36<277 375.5> 569 28<123 127 244.5 250 548 552.5 613 618>
VStem: 84 93<120 167>
LayerCount: 2
Fore
SplineSet
657 567 m 1
 618 569 l 2
 608 569 601 562 599 549 c 2
 548 189 l 2
 529 54 448 -10 303 -10 c 0
 162 -10 84 49 84 161 c 0
 84 173 85 186 87 199 c 2
 136 548 l 2
 136 550 136 551 136 553 c 0
 136 562 131 569 123 569 c 2
 84 567 l 1
 88 597 l 1
 303 597 l 1
 299 567 l 1
 250 569 l 2
 239 569 231 562 229 549 c 2
 180 199 l 2
 178 186 177 174 177 163 c 0
 177 77 230 26 324 26 c 0
 438 26 495 82 512 198 c 2
 561 548 l 2
 561 550 561 552 561 553 c 0
 561 563 557 569 548 569 c 2
 499 567 l 1
 503 597 l 1
 661 597 l 1
 657 567 l 1
EndSplineSet
Position2: "'cpsp' Capital Spacing lookup 0 per glyph data 2" dx=5 dy=0 dh=10 dv=0
EndChar

StartChar: Uacute
Encoding: 218 218 86
Width: 631
Flags: MW
HStem: -10 36<277 375.5> 569 28<123 127 244.5 250 548 552.5 613 618>
VStem: 84 93<120 167>
LayerCount: 2
Fore
SplineSet
448 805 m 2
 463 821 468 826 483 826 c 0
 507 826 537 808 537 800 c 0
 537 795 531 791 527 788 c 2
 356 675 l 2
 352 672 343 666 335 666 c 0
 325 666 321 669 321 673 c 0
 321 678 331 687 341 697 c 2
 448 805 l 2
618 569 m 2
 608 569 601 562 599 549 c 2
 548 189 l 2
 529 54 448 -10 303 -10 c 0
 162 -10 84 49 84 161 c 0
 84 173 85 186 87 199 c 2
 136 548 l 1
 136 553 l 2
 136 562 131 569 123 569 c 2
 84 567 l 1
 88 597 l 1
 303 597 l 1
 299 567 l 1
 250 569 l 2
 239 569 231 562 229 549 c 2
 180 199 l 2
 178 186 177 174 177 163 c 0
 177 77 230 26 324 26 c 0
 438 26 495 82 512 198 c 2
 561 548 l 1
 561 553 l 2
 561 563 557 569 548 569 c 2
 499 567 l 1
 503 597 l 1
 661 597 l 1
 657 567 l 1
 618 569 l 2
EndSplineSet
Position2: "'cpsp' Capital Spacing lookup 0 per glyph data 2" dx=5 dy=0 dh=10 dv=0
EndChar

StartChar: Ucircumflex
Encoding: 219 219 87
Width: 631
Flags: MW
HStem: -10 36<277 375.5> 569 28<123 127 244.5 250 548 552.5 613 618>
VStem: 84 93<120 167>
LayerCount: 2
Fore
SplineSet
278 678 m 2
 269 673 257 666 249 666 c 0
 240 666 238 670 238 673 c 0
 238 681 278 705 324 749 c 2
 374 797 l 2
 390 812 403 822 408 822 c 0
 411 822 422 813 434 797 c 2
 470 749 l 2
 504 703 535 682 535 674 c 0
 535 672 533 666 522 666 c 0
 515 666 502 673 495 678 c 2
 398 751 l 1
 278 678 l 2
618 569 m 2
 608 569 601 562 599 549 c 2
 548 189 l 2
 529 54 448 -10 303 -10 c 0
 162 -10 84 49 84 161 c 0
 84 173 85 186 87 199 c 2
 136 548 l 1
 136 553 l 2
 136 562 131 569 123 569 c 2
 84 567 l 1
 88 597 l 1
 303 597 l 1
 299 567 l 1
 250 569 l 2
 239 569 231 562 229 549 c 2
 180 199 l 2
 178 186 177 174 177 163 c 0
 177 77 230 26 324 26 c 0
 438 26 495 82 512 198 c 2
 561 548 l 1
 561 553 l 2
 561 563 557 569 548 569 c 2
 499 567 l 1
 503 597 l 1
 661 597 l 1
 657 567 l 1
 618 569 l 2
EndSplineSet
Position2: "'cpsp' Capital Spacing lookup 0 per glyph data 2" dx=5 dy=0 dh=10 dv=0
EndChar

StartChar: Udieresis
Encoding: 220 220 88
Width: 631
Flags: MW
HStem: -10 36<277 375.5> 569 28<123 127 244.5 250 548 552.5 613 618> 677 95<298 319 472 493>
VStem: 84 93<120 167> 253 109<714 734.5> 427 109<714 734.5>
LayerCount: 2
Fore
SplineSet
315 772 m 0
 344 772 362 756 362 731 c 0
 362 697 337 677 301 677 c 0
 273 677 253 692 253 718 c 0
 253 751 281 772 315 772 c 0
489 772 m 0
 518 772 536 756 536 731 c 0
 536 697 511 677 475 677 c 0
 447 677 427 692 427 718 c 0
 427 751 455 772 489 772 c 0
618 569 m 2
 608 569 601 562 599 549 c 2
 548 189 l 2
 529 54 448 -10 303 -10 c 0
 162 -10 84 49 84 161 c 0
 84 173 85 186 87 199 c 2
 136 548 l 1
 136 553 l 2
 136 562 131 569 123 569 c 2
 84 567 l 1
 88 597 l 1
 303 597 l 1
 299 567 l 1
 250 569 l 2
 239 569 231 562 229 549 c 2
 180 199 l 2
 178 186 177 174 177 163 c 0
 177 77 230 26 324 26 c 0
 438 26 495 82 512 198 c 2
 561 548 l 1
 561 553 l 2
 561 563 557 569 548 569 c 2
 499 567 l 1
 503 597 l 1
 661 597 l 1
 657 567 l 1
 618 569 l 2
EndSplineSet
Position2: "'cpsp' Capital Spacing lookup 0 per glyph data 2" dx=5 dy=0 dh=10 dv=0
EndChar

StartChar: Ugrave
Encoding: 217 217 89
Width: 631
Flags: MW
HStem: -10 36<277 375.5> 569 28<123 127 244.5 250 548 552.5 613 618>
VStem: 84 93<120 167>
LayerCount: 2
Fore
SplineSet
276 788 m 2
 273 791 270 794 270 799 c 0
 270 808 305 826 330 826 c 0
 345 826 347 821 359 805 c 2
 441 691 l 2
 446 683 450 677 450 674 c 0
 450 669 445 666 433 666 c 0
 425 666 418 672 415 675 c 2
 276 788 l 2
618 569 m 2
 608 569 601 562 599 549 c 2
 548 189 l 2
 529 54 448 -10 303 -10 c 0
 162 -10 84 49 84 161 c 0
 84 173 85 186 87 199 c 2
 136 548 l 1
 136 553 l 2
 136 562 131 569 123 569 c 2
 84 567 l 1
 88 597 l 1
 303 597 l 1
 299 567 l 1
 250 569 l 2
 239 569 231 562 229 549 c 2
 180 199 l 2
 178 186 177 174 177 163 c 0
 177 77 230 26 324 26 c 0
 438 26 495 82 512 198 c 2
 561 548 l 1
 561 553 l 2
 561 563 557 569 548 569 c 2
 499 567 l 1
 503 597 l 1
 661 597 l 1
 657 567 l 1
 618 569 l 2
EndSplineSet
Position2: "'cpsp' Capital Spacing lookup 0 per glyph data 2" dx=5 dy=0 dh=10 dv=0
EndChar

StartChar: Uhungarumlaut
Encoding: 368 368 90
Width: 631
Flags: MW
HStem: -10 36<277 375.5> 569 28<123 127 244.5 250 548 552.5 613 618> 817 9
VStem: 84 93<120 167>
LayerCount: 2
Fore
SplineSet
389 826 m 0
 409 826 438 810 438 801 c 0
 438 799 435 795 429 789 c 0
 421 780 405 765 303 672 c 0
 299 668 292 666 286 666 c 0
 279 666 276 669 276 673 c 0
 276 676 277 679 280 683 c 0
 356 795 368 810 373 817 c 0
 379 825 382 826 389 826 c 0
501 826 m 0
 520 826 549 812 549 802 c 0
 549 800 547 796 541 789 c 0
 533 780 512 759 415 672 c 0
 409 667 403 666 398 666 c 0
 391 666 387 670 387 673 c 0
 387 676 389 679 391 683 c 0
 461 779 485 817 485 817 c 1
 492 825 494 826 501 826 c 0
618 569 m 2
 608 569 601 562 599 549 c 2
 548 189 l 2
 529 54 448 -10 303 -10 c 0
 162 -10 84 49 84 161 c 0
 84 173 85 186 87 199 c 2
 136 548 l 1
 136 553 l 2
 136 562 131 569 123 569 c 2
 84 567 l 1
 88 597 l 1
 303 597 l 1
 299 567 l 1
 250 569 l 2
 239 569 231 562 229 549 c 2
 180 199 l 2
 178 186 177 174 177 163 c 0
 177 77 230 26 324 26 c 0
 438 26 495 82 512 198 c 2
 561 548 l 1
 561 553 l 2
 561 563 557 569 548 569 c 2
 499 567 l 1
 503 597 l 1
 661 597 l 1
 657 567 l 1
 618 569 l 2
EndSplineSet
EndChar

StartChar: Umacron
Encoding: 362 362 91
Width: 631
Flags: MW
HStem: -10 36<277 375.5> 569 28<123 127 244.5 250 548 552.5 613 618> 676 40<270 506 264 512>
VStem: 84 93<120 167>
LayerCount: 2
Fore
SplineSet
506 676 m 1
 264 676 l 1
 270 716 l 1
 512 716 l 1
 506 676 l 1
618 569 m 2
 608 569 601 562 599 549 c 2
 548 189 l 2
 529 54 448 -10 303 -10 c 0
 162 -10 84 49 84 161 c 0
 84 173 85 186 87 199 c 2
 136 548 l 1
 136 553 l 2
 136 562 131 569 123 569 c 2
 84 567 l 1
 88 597 l 1
 303 597 l 1
 299 567 l 1
 250 569 l 2
 239 569 231 562 229 549 c 2
 180 199 l 2
 178 186 177 174 177 163 c 0
 177 77 230 26 324 26 c 0
 438 26 495 82 512 198 c 2
 561 548 l 1
 561 553 l 2
 561 563 557 569 548 569 c 2
 499 567 l 1
 503 597 l 1
 661 597 l 1
 657 567 l 1
 618 569 l 2
EndSplineSet
EndChar

StartChar: Uogonek
Encoding: 370 370 92
Width: 631
Flags: MW
HStem: -159 43<362.5 429.5> -10 36<277 315.5> 569 28<123 127 244.5 250 548 552.5 613 618>
VStem: 84 93<120 167> 316 58<-83.5 -80.5>
LayerCount: 2
Fore
SplineSet
661 597 m 1
 657 567 l 1
 618 569 l 2
 608 569 601 562 599 549 c 2
 548 189 l 2
 536 100 496 42 430 13 c 1
 396 -4 374 -36 374 -71 c 0
 374 -96 387 -116 419 -116 c 0
 440 -116 463 -105 488 -85 c 1
 500 -99 l 1
 464 -137 421 -159 379 -159 c 0
 346 -159 316 -138 316 -97 c 0
 316 -64 335 -30 371 -4 c 1
 350 -8 328 -10 303 -10 c 0
 162 -10 84 49 84 161 c 0
 84 173 85 186 87 199 c 2
 136 548 l 1
 136 553 l 2
 136 562 131 569 123 569 c 2
 84 567 l 1
 88 597 l 1
 303 597 l 1
 299 567 l 1
 250 569 l 2
 239 569 231 562 229 549 c 2
 180 199 l 2
 178 186 177 174 177 163 c 0
 177 77 230 26 324 26 c 0
 438 26 495 82 512 198 c 2
 561 548 l 1
 561 553 l 2
 561 563 557 569 548 569 c 2
 499 567 l 1
 503 597 l 1
 661 597 l 1
EndSplineSet
EndChar

StartChar: Uring
Encoding: 366 366 93
Width: 631
Flags: MW
HStem: -10 36<277 375.5> 569 28<123 127 244.5 250 548 552.5 613 618> 666 36<380 402.5 380 412> 793 36<390.5 413.5>
VStem: 84 93<120 167> 316 45<730.5 755.5 730.5 764> 433 46<740.5 765>
LayerCount: 2
Fore
SplineSet
316 738 m 0
 316 790 359 829 408 829 c 0
 453 829 479 802 479 758 c 0
 479 704 439 666 385 666 c 0
 341 666 316 694 316 738 c 0
361 742 m 0
 361 719 370 702 390 702 c 0
 415 702 433 727 433 754 c 0
 433 776 424 793 403 793 c 0
 378 793 361 769 361 742 c 0
618 569 m 2
 608 569 601 562 599 549 c 2
 548 189 l 2
 529 54 448 -10 303 -10 c 0
 162 -10 84 49 84 161 c 0
 84 173 85 186 87 199 c 2
 136 548 l 1
 136 553 l 2
 136 562 131 569 123 569 c 2
 84 567 l 1
 88 597 l 1
 303 597 l 1
 299 567 l 1
 250 569 l 2
 239 569 231 562 229 549 c 2
 180 199 l 2
 178 186 177 174 177 163 c 0
 177 77 230 26 324 26 c 0
 438 26 495 82 512 198 c 2
 561 548 l 1
 561 553 l 2
 561 563 557 569 548 569 c 2
 499 567 l 1
 503 597 l 1
 661 597 l 1
 657 567 l 1
 618 569 l 2
EndSplineSet
EndChar

StartChar: V
Encoding: 86 86 94
Width: 564
Flags: MW
HStem: 569 28<73 76.5 198.5 202 532 535.5 594.5 599>
VStem: 45 594<567 597>
LayerCount: 2
Fore
SplineSet
639 597 m 1
 635 567 l 1
 599 569 l 2
 590 569 585 561 577 546 c 2
 275 -4 l 1
 246 -4 l 1
 91 546 l 2
 87 561 80 569 73 569 c 2
 45 567 l 1
 49 597 l 1
 259 597 l 1
 255 567 l 1
 202 569 l 2
 195 569 190 563 190 555 c 0
 190 552 191 548 192 545 c 2
 311 134 l 1
 536 546 l 2
 539 551 541 556 541 561 c 0
 541 566 539 569 532 569 c 2
 481 567 l 1
 485 597 l 1
 639 597 l 1
EndSplineSet
Position2: "'cpsp' Capital Spacing lookup 0 per glyph data 2" dx=5 dy=0 dh=10 dv=0
EndChar

StartChar: W
Encoding: 87 87 95
Width: 854
Flags: MW
HStem: 569 28<75 79 196 200 443 448 558 561 826 829.5 888 894>
VStem: 45 884<567 597>
LayerCount: 2
Fore
SplineSet
929 597 m 1
 925 567 l 1
 894 569 l 2
 882 569 874 558 869 548 c 2
 620 -10 l 1
 602 -10 l 1
 471 505 l 1
 242 -10 l 1
 221 -10 l 1
 91 547 l 2
 88 562 83 569 75 569 c 2
 45 567 l 1
 49 597 l 1
 260 597 l 1
 256 567 l 1
 200 569 l 2
 192 569 190 565 190 559 c 0
 190 556 191 551 192 547 c 2
 284 160 l 1
 458 557 l 1
 456 565 453 569 443 569 c 2
 402 567 l 1
 406 597 l 1
 609 597 l 1
 605 567 l 1
 561 569 l 2
 555 569 551 564 551 556 c 0
 551 553 551 550 552 547 c 2
 657 145 l 1
 832 549 l 2
 834 553 835 558 835 561 c 0
 835 566 833 569 826 569 c 2
 774 567 l 1
 778 597 l 1
 929 597 l 1
EndSplineSet
Position2: "'cpsp' Capital Spacing lookup 0 per glyph data 2" dx=5 dy=0 dh=10 dv=0
EndChar

StartChar: Wacute
Encoding: 7810 7810 96
Width: 854
Flags: MW
HStem: 569 28<75 79 196 200 443 448 558 561 826 829.5 888 894>
VStem: 45 884<567 597>
LayerCount: 2
Fore
SplineSet
577 805 m 2
 592 821 597 826 612 826 c 0
 636 826 666 808 666 800 c 0
 666 795 660 791 656 788 c 2
 485 675 l 2
 481 672 472 666 464 666 c 0
 454 666 450 669 450 673 c 0
 450 678 460 687 470 697 c 2
 577 805 l 2
925 567 m 1
 894 569 l 2
 882 569 874 558 869 548 c 2
 620 -10 l 1
 602 -10 l 1
 471 505 l 1
 242 -10 l 1
 221 -10 l 1
 91 547 l 2
 88 562 83 569 75 569 c 2
 45 567 l 1
 49 597 l 1
 260 597 l 1
 256 567 l 1
 200 569 l 2
 192 569 190 565 190 559 c 0
 190 556 191 551 192 547 c 2
 284 160 l 1
 458 557 l 1
 456 565 453 569 443 569 c 2
 402 567 l 1
 406 597 l 1
 609 597 l 1
 605 567 l 1
 561 569 l 2
 555 569 551 564 551 556 c 0
 551 553 551 550 552 547 c 2
 657 145 l 1
 832 549 l 2
 834 553 835 558 835 561 c 0
 835 566 833 569 826 569 c 2
 774 567 l 1
 778 597 l 1
 929 597 l 1
 925 567 l 1
EndSplineSet
Position2: "'cpsp' Capital Spacing lookup 0 per glyph data 2" dx=5 dy=0 dh=10 dv=0
EndChar

StartChar: Wcircumflex
Encoding: 372 372 97
Width: 854
Flags: MW
HStem: 569 28<75 79 196 200 443 448 558 561 826 829.5 888 894>
VStem: 45 884<567 597>
LayerCount: 2
Fore
SplineSet
407 678 m 2
 398 673 386 666 378 666 c 0
 369 666 367 670 367 673 c 0
 367 681 407 705 453 749 c 2
 503 797 l 2
 519 812 532 822 537 822 c 0
 540 822 551 813 563 797 c 2
 599 749 l 2
 633 703 664 682 664 674 c 0
 664 672 662 666 651 666 c 0
 644 666 631 673 624 678 c 2
 527 751 l 1
 407 678 l 2
925 567 m 1
 894 569 l 2
 882 569 874 558 869 548 c 2
 620 -10 l 1
 602 -10 l 1
 471 505 l 1
 242 -10 l 1
 221 -10 l 1
 91 547 l 2
 88 562 83 569 75 569 c 2
 45 567 l 1
 49 597 l 1
 260 597 l 1
 256 567 l 1
 200 569 l 2
 192 569 190 565 190 559 c 0
 190 556 191 551 192 547 c 2
 284 160 l 1
 458 557 l 1
 456 565 453 569 443 569 c 2
 402 567 l 1
 406 597 l 1
 609 597 l 1
 605 567 l 1
 561 569 l 2
 555 569 551 564 551 556 c 0
 551 553 551 550 552 547 c 2
 657 145 l 1
 832 549 l 2
 834 553 835 558 835 561 c 0
 835 566 833 569 826 569 c 2
 774 567 l 1
 778 597 l 1
 929 597 l 1
 925 567 l 1
EndSplineSet
Position2: "'cpsp' Capital Spacing lookup 0 per glyph data 2" dx=5 dy=0 dh=10 dv=0
EndChar

StartChar: Wdieresis
Encoding: 7812 7812 98
Width: 854
Flags: MW
HStem: 569 28<75 79 196 200 443 448 558 561 826 829.5 888 894> 677 95<427 448 601 622>
VStem: 382 109<714 734.5> 556 109<714 734.5>
LayerCount: 2
Fore
SplineSet
444 772 m 0
 473 772 491 756 491 731 c 0
 491 697 466 677 430 677 c 0
 402 677 382 692 382 718 c 0
 382 751 410 772 444 772 c 0
618 772 m 0
 647 772 665 756 665 731 c 0
 665 697 640 677 604 677 c 0
 576 677 556 692 556 718 c 0
 556 751 584 772 618 772 c 0
925 567 m 1
 894 569 l 2
 882 569 874 558 869 548 c 2
 620 -10 l 1
 602 -10 l 1
 471 505 l 1
 242 -10 l 1
 221 -10 l 1
 91 547 l 2
 88 562 83 569 75 569 c 2
 45 567 l 1
 49 597 l 1
 260 597 l 1
 256 567 l 1
 200 569 l 2
 192 569 190 565 190 559 c 0
 190 556 191 551 192 547 c 2
 284 160 l 1
 458 557 l 1
 456 565 453 569 443 569 c 2
 402 567 l 1
 406 597 l 1
 609 597 l 1
 605 567 l 1
 561 569 l 2
 555 569 551 564 551 556 c 0
 551 553 551 550 552 547 c 2
 657 145 l 1
 832 549 l 2
 834 553 835 558 835 561 c 0
 835 566 833 569 826 569 c 2
 774 567 l 1
 778 597 l 1
 929 597 l 1
 925 567 l 1
EndSplineSet
Position2: "'cpsp' Capital Spacing lookup 0 per glyph data 2" dx=5 dy=0 dh=10 dv=0
EndChar

StartChar: Wgrave
Encoding: 7808 7808 99
Width: 854
Flags: MW
HStem: 569 28<75 79 196 200 443 448 558 561 826 829.5 888 894>
VStem: 45 884<567 597>
LayerCount: 2
Fore
SplineSet
405 788 m 2
 402 791 399 794 399 799 c 0
 399 808 434 826 459 826 c 0
 474 826 476 821 488 805 c 2
 570 691 l 2
 575 683 579 677 579 674 c 0
 579 669 574 666 562 666 c 0
 554 666 547 672 544 675 c 2
 405 788 l 2
925 567 m 1
 894 569 l 2
 882 569 874 558 869 548 c 2
 620 -10 l 1
 602 -10 l 1
 471 505 l 1
 242 -10 l 1
 221 -10 l 1
 91 547 l 2
 88 562 83 569 75 569 c 2
 45 567 l 1
 49 597 l 1
 260 597 l 1
 256 567 l 1
 200 569 l 2
 192 569 190 565 190 559 c 0
 190 556 191 551 192 547 c 2
 284 160 l 1
 458 557 l 1
 456 565 453 569 443 569 c 2
 402 567 l 1
 406 597 l 1
 609 597 l 1
 605 567 l 1
 561 569 l 2
 555 569 551 564 551 556 c 0
 551 553 551 550 552 547 c 2
 657 145 l 1
 832 549 l 2
 834 553 835 558 835 561 c 0
 835 566 833 569 826 569 c 2
 774 567 l 1
 778 597 l 1
 929 597 l 1
 925 567 l 1
EndSplineSet
Position2: "'cpsp' Capital Spacing lookup 0 per glyph data 2" dx=5 dy=0 dh=10 dv=0
EndChar

StartChar: X
Encoding: 88 88 100
Width: 549
Flags: MW
HStem: 0 27<111.5 114 111.5 156 354 358> 569 28<121 126 260.5 269 468 470.5 543 543>
VStem: -1 579
LayerCount: 2
Fore
SplineSet
578 597 m 1
 574 567 l 1
 543 569 l 2
 533 570 521 562 511 549 c 2
 347 329 l 1
 470 44 l 2
 474 36 483 26 496 27 c 2
 535 30 l 1
 531 0 l 1
 301 0 l 1
 305 30 l 1
 354 27 l 2
 362 27 365 32 365 38 c 0
 365 42 364 46 362 51 c 2
 272 261 l 1
 113 47 l 2
 109 43 107 38 107 34 c 0
 107 30 109 27 114 27 c 2
 160 30 l 1
 156 0 l 1
 -1 0 l 1
 3 30 l 1
 40 28 l 2
 52 28 63 35 74 50 c 2
 258 295 l 1
 147 550 l 2
 141 565 131 569 121 569 c 2
 88 567 l 1
 92 597 l 1
 315 597 l 1
 311 567 l 1
 269 569 l 2
 252 569 250 556 254 548 c 2
 332 363 l 1
 471 549 l 2
 475 554 477 558 477 562 c 0
 477 566 473 569 468 569 c 2
 425 567 l 1
 429 597 l 1
 578 597 l 1
EndSplineSet
Position2: "'cpsp' Capital Spacing lookup 0 per glyph data 2" dx=5 dy=0 dh=10 dv=0
EndChar

StartChar: Y
Encoding: 89 89 101
Width: 491
Flags: MW
HStem: 0 27<169 174.5 290.5 296> 569 28<73 77.5 204 208 453 455.5 516.5 521>
VStem: 45 510<567 597>
LayerCount: 2
Fore
SplineSet
555 597 m 1
 551 567 l 1
 521 569 l 2
 512 569 501 561 492 548 c 2
 315 288 l 1
 281 48 l 2
 281 46 281 44 281 42 c 0
 281 33 285 27 296 27 c 2
 344 29 l 1
 340 0 l 1
 116 0 l 1
 120 29 l 1
 169 27 l 2
 180 27 187 34 189 49 c 2
 219 263 l 1
 92 550 l 2
 86 563 82 569 73 569 c 2
 45 567 l 1
 49 597 l 1
 265 597 l 1
 261 567 l 1
 208 569 l 2
 200 569 197 564 197 558 c 0
 197 553 199 548 200 545 c 2
 299 319 l 1
 456 549 l 2
 458 552 460 557 460 561 c 0
 460 566 458 569 453 569 c 2
 402 567 l 1
 406 597 l 1
 555 597 l 1
EndSplineSet
Position2: "'cpsp' Capital Spacing lookup 0 per glyph data 2" dx=5 dy=0 dh=10 dv=0
EndChar

StartChar: Yacute
Encoding: 221 221 102
Width: 491
Flags: MW
HStem: 0 27<169 174.5 290.5 296> 569 28<73 77.5 204 208 453 455.5 516.5 521>
VStem: 45 510<567 597>
LayerCount: 2
Fore
SplineSet
379 805 m 2
 394 821 399 826 414 826 c 0
 438 826 468 808 468 800 c 0
 468 795 462 791 458 788 c 2
 287 675 l 2
 283 672 274 666 266 666 c 0
 256 666 252 669 252 673 c 0
 252 678 262 687 272 697 c 2
 379 805 l 2
551 567 m 1
 521 569 l 2
 512 569 501 561 492 548 c 2
 315 288 l 1
 281 48 l 1
 281 42 l 2
 281 33 285 27 296 27 c 2
 344 29 l 1
 340 0 l 1
 116 0 l 1
 120 29 l 1
 169 27 l 2
 180 27 187 34 189 49 c 2
 219 263 l 1
 92 550 l 2
 86 563 82 569 73 569 c 2
 45 567 l 1
 49 597 l 1
 265 597 l 1
 261 567 l 1
 208 569 l 2
 200 569 197 564 197 558 c 0
 197 553 199 548 200 545 c 2
 299 319 l 1
 456 549 l 2
 458 552 460 557 460 561 c 0
 460 566 458 569 453 569 c 2
 402 567 l 1
 406 597 l 1
 555 597 l 1
 551 567 l 1
EndSplineSet
Position2: "'cpsp' Capital Spacing lookup 0 per glyph data 2" dx=5 dy=0 dh=10 dv=0
EndChar

StartChar: Ycircumflex
Encoding: 374 374 103
Width: 491
Flags: MW
HStem: 0 27<169 174.5 290.5 296> 569 28<73 77.5 204 208 453 455.5 516.5 521>
VStem: 45 510<567 597>
LayerCount: 2
Fore
SplineSet
209 678 m 2
 200 673 188 666 180 666 c 0
 171 666 169 670 169 673 c 0
 169 681 209 705 255 749 c 2
 305 797 l 2
 321 812 334 822 339 822 c 0
 342 822 353 813 365 797 c 2
 401 749 l 2
 435 703 466 682 466 674 c 0
 466 672 464 666 453 666 c 0
 446 666 433 673 426 678 c 2
 329 751 l 1
 209 678 l 2
551 567 m 1
 521 569 l 2
 512 569 501 561 492 548 c 2
 315 288 l 1
 281 48 l 1
 281 42 l 2
 281 33 285 27 296 27 c 2
 344 29 l 1
 340 0 l 1
 116 0 l 1
 120 29 l 1
 169 27 l 2
 180 27 187 34 189 49 c 2
 219 263 l 1
 92 550 l 2
 86 563 82 569 73 569 c 2
 45 567 l 1
 49 597 l 1
 265 597 l 1
 261 567 l 1
 208 569 l 2
 200 569 197 564 197 558 c 0
 197 553 199 548 200 545 c 2
 299 319 l 1
 456 549 l 2
 458 552 460 557 460 561 c 0
 460 566 458 569 453 569 c 2
 402 567 l 1
 406 597 l 1
 555 597 l 1
 551 567 l 1
EndSplineSet
Position2: "'cpsp' Capital Spacing lookup 0 per glyph data 2" dx=5 dy=0 dh=10 dv=0
EndChar

StartChar: Ydieresis
Encoding: 376 376 104
Width: 491
Flags: MW
HStem: 0 27<169 174.5 290.5 296> 569 28<73 77.5 204 208 453 455.5 516.5 521> 677 95<229 250 403 424>
VStem: 184 109<714 734.5> 358 109<714 734.5>
LayerCount: 2
Fore
SplineSet
246 772 m 0
 275 772 293 756 293 731 c 0
 293 697 268 677 232 677 c 0
 204 677 184 692 184 718 c 0
 184 751 212 772 246 772 c 0
420 772 m 0
 449 772 467 756 467 731 c 0
 467 697 442 677 406 677 c 0
 378 677 358 692 358 718 c 0
 358 751 386 772 420 772 c 0
551 567 m 1
 521 569 l 2
 512 569 501 561 492 548 c 2
 315 288 l 1
 281 48 l 1
 281 42 l 2
 281 33 285 27 296 27 c 2
 344 29 l 1
 340 0 l 1
 116 0 l 1
 120 29 l 1
 169 27 l 2
 180 27 187 34 189 49 c 2
 219 263 l 1
 92 550 l 2
 86 563 82 569 73 569 c 2
 45 567 l 1
 49 597 l 1
 265 597 l 1
 261 567 l 1
 208 569 l 2
 200 569 197 564 197 558 c 0
 197 553 199 548 200 545 c 2
 299 319 l 1
 456 549 l 2
 458 552 460 557 460 561 c 0
 460 566 458 569 453 569 c 2
 402 567 l 1
 406 597 l 1
 555 597 l 1
 551 567 l 1
EndSplineSet
Position2: "'cpsp' Capital Spacing lookup 0 per glyph data 2" dx=5 dy=0 dh=10 dv=0
EndChar

StartChar: Ygrave
Encoding: 7922 7922 105
Width: 491
Flags: MW
HStem: 0 27<169 174.5 290.5 296> 569 28<73 77.5 204 208 453 455.5 516.5 521>
VStem: 45 510<567 597>
LayerCount: 2
Fore
SplineSet
207 788 m 2
 204 791 201 794 201 799 c 0
 201 808 236 826 261 826 c 0
 276 826 278 821 290 805 c 2
 372 691 l 2
 377 683 381 677 381 674 c 0
 381 669 376 666 364 666 c 0
 356 666 349 672 346 675 c 2
 207 788 l 2
551 567 m 1
 521 569 l 2
 512 569 501 561 492 548 c 2
 315 288 l 1
 281 48 l 1
 281 42 l 2
 281 33 285 27 296 27 c 2
 344 29 l 1
 340 0 l 1
 116 0 l 1
 120 29 l 1
 169 27 l 2
 180 27 187 34 189 49 c 2
 219 263 l 1
 92 550 l 2
 86 563 82 569 73 569 c 2
 45 567 l 1
 49 597 l 1
 265 597 l 1
 261 567 l 1
 208 569 l 2
 200 569 197 564 197 558 c 0
 197 553 199 548 200 545 c 2
 299 319 l 1
 456 549 l 2
 458 552 460 557 460 561 c 0
 460 566 458 569 453 569 c 2
 402 567 l 1
 406 597 l 1
 555 597 l 1
 551 567 l 1
EndSplineSet
Position2: "'cpsp' Capital Spacing lookup 0 per glyph data 2" dx=5 dy=0 dh=10 dv=0
EndChar

StartChar: Z
Encoding: 90 90 106
Width: 497
Flags: MW
HStem: 1 27<7 7 113 280 280 323.5 3 7> 570 28<202.5 248 248 391>
VStem: 3 502
LayerCount: 2
Fore
SplineSet
502 574 m 1
 113 28 l 1
 280 28 l 2
 367 28 430 80 442 168 c 1
 471 168 l 1
 439 -4 l 1
 430 0 394 1 330 1 c 2
 3 1 l 1
 7 28 l 1
 391 570 l 1
 248 570 l 2
 157 570 107 531 95 444 c 1
 66 444 l 1
 88 601 l 1
 107 601 172 598 195 598 c 2
 505 598 l 1
 502 574 l 1
EndSplineSet
Position2: "'cpsp' Capital Spacing lookup 0 per glyph data 2" dx=5 dy=0 dh=10 dv=0
EndChar

StartChar: Zacute
Encoding: 377 377 107
Width: 497
Flags: MW
HStem: 1 27<7 7 113 280 280 323.5 3 7> 570 28<202.5 248 248 391>
VStem: 3 502
LayerCount: 2
Fore
SplineSet
376 805 m 2
 391 821 396 826 411 826 c 0
 435 826 465 808 465 800 c 0
 465 795 459 791 455 788 c 2
 284 675 l 2
 280 672 271 666 263 666 c 0
 253 666 249 669 249 673 c 0
 249 678 259 687 269 697 c 2
 376 805 l 2
113 28 m 1
 280 28 l 2
 367 28 430 80 442 168 c 1
 471 168 l 1
 439 -4 l 1
 430 0 394 1 330 1 c 2
 3 1 l 1
 7 28 l 1
 391 570 l 1
 248 570 l 2
 157 570 107 531 95 444 c 1
 66 444 l 1
 88 601 l 1
 107 601 172 598 195 598 c 2
 505 598 l 1
 502 574 l 1
 113 28 l 1
EndSplineSet
EndChar

StartChar: Zcaron
Encoding: 381 381 108
Width: 497
Flags: MW
HStem: 1 27<7 7 113 280 280 323.5 3 7> 570 28<202.5 248 248 391>
VStem: 3 502
LayerCount: 2
Fore
SplineSet
443 812 m 2
 452 817 464 824 472 824 c 0
 481 824 483 820 483 817 c 0
 483 809 443 785 397 741 c 2
 347 693 l 2
 331 678 318 668 313 668 c 0
 310 668 299 677 287 693 c 2
 251 741 l 2
 217 787 186 808 186 816 c 0
 186 818 188 824 199 824 c 0
 206 824 219 817 226 812 c 2
 323 739 l 1
 443 812 l 2
113 28 m 1
 280 28 l 2
 367 28 430 80 442 168 c 1
 471 168 l 1
 439 -4 l 1
 430 0 394 1 330 1 c 2
 3 1 l 1
 7 28 l 1
 391 570 l 1
 248 570 l 2
 157 570 107 531 95 444 c 1
 66 444 l 1
 88 601 l 1
 107 601 172 598 195 598 c 2
 505 598 l 1
 502 574 l 1
 113 28 l 1
EndSplineSet
Position2: "'cpsp' Capital Spacing lookup 0 per glyph data 2" dx=5 dy=0 dh=10 dv=0
EndChar

StartChar: Zdotaccent
Encoding: 379 379 109
Width: 497
Flags: MW
HStem: 1 27<7 7 113 280 280 323.5 3 7> 570 28<202.5 248 248 391> 678 95<312 333>
VStem: 267 109<715 735.5>
LayerCount: 2
Fore
SplineSet
329 773 m 0
 358 773 376 757 376 732 c 0
 376 698 351 678 315 678 c 0
 287 678 267 693 267 719 c 0
 267 752 295 773 329 773 c 0
113 28 m 1
 280 28 l 2
 367 28 430 80 442 168 c 1
 471 168 l 1
 439 -4 l 1
 430 0 394 1 330 1 c 2
 3 1 l 1
 7 28 l 1
 391 570 l 1
 248 570 l 2
 157 570 107 531 95 444 c 1
 66 444 l 1
 88 601 l 1
 107 601 172 598 195 598 c 2
 505 598 l 1
 502 574 l 1
 113 28 l 1
EndSplineSet
EndChar

StartChar: a
Encoding: 97 97 110
Width: 466
Flags: MW
HStem: -10 55<145 151.5> 400 30<238.5 291 209 295.5>
VStem: 28 89<97 140 97 182> 294 83<20.5 102>
LayerCount: 2
Fore
SplineSet
419 330 m 1
 397 230 377 120 377 84 c 0
 377 73 381 67 390 67 c 0
 398 67 411 69 428 80 c 1
 440 60 l 1
 396 7 346 -10 318 -10 c 0
 299 -10 294 5 294 36 c 0
 294 65 304 123 315 187 c 1
 238 41 183 -10 120 -10 c 0
 61 -10 28 36 28 112 c 0
 28 252 143 430 275 430 c 0
 307 430 336 415 353 393 c 1
 359 415 l 1
 443 429 l 1
 419 330 l 1
156 45 m 0
 217 45 340 244 340 346 c 0
 340 376 314 400 277 400 c 0
 200 400 152 320 131 232 c 1
 121 195 117 157 117 123 c 0
 117 71 134 45 156 45 c 0
EndSplineSet
Substitution2: "Single Substitution lookup 21 subtable" ordfeminine
Substitution2: "'aalt' Access All Alternates lookup 0 subtable" ordfeminine
EndChar

StartChar: aacute
Encoding: 225 225 111
Width: 466
Flags: MW
HStem: -10 55<145 151.5> 400 30<238.5 291 209 295.5>
VStem: 28 89<97 140 97 182> 294 83<20.5 102>
LayerCount: 2
Fore
SplineSet
344 632 m 2
 359 648 364 653 379 653 c 0
 403 653 433 635 433 627 c 0
 433 622 427 618 423 615 c 2
 252 502 l 2
 248 499 239 493 231 493 c 0
 221 493 217 496 217 500 c 0
 217 505 227 514 237 524 c 2
 344 632 l 2
419 330 m 1
 397 230 377 120 377 84 c 0
 377 73 381 67 390 67 c 0
 398 67 411 69 428 80 c 1
 440 60 l 1
 396 7 346 -10 318 -10 c 0
 299 -10 294 5 294 36 c 0
 294 65 304 123 315 187 c 1
 238 41 183 -10 120 -10 c 0
 61 -10 28 36 28 112 c 0
 28 252 143 430 275 430 c 0
 307 430 336 415 353 393 c 1
 359 415 l 1
 443 429 l 1
 419 330 l 1
156 45 m 0
 217 45 340 244 340 346 c 0
 340 376 314 400 277 400 c 0
 200 400 152 320 131 232 c 1
 121 195 117 157 117 123 c 0
 117 71 134 45 156 45 c 0
EndSplineSet
EndChar

StartChar: abreve
Encoding: 259 259 112
Width: 466
Flags: MW
HStem: -10 55<145 151.5> 400 30<238.5 291 209 295.5> 518 50<267 318 267 324>
VStem: 28 89<97 140 97 182> 178 44<642 642> 294 83<20.5 102>
LayerCount: 2
Fore
SplineSet
429 642 m 1
 411 569 362 518 286 518 c 0
 211 518 176 569 178 642 c 1
 222 642 l 1
 225 606 241 568 293 568 c 0
 343 568 373 606 386 642 c 1
 429 642 l 1
419 330 m 1
 397 230 377 120 377 84 c 0
 377 73 381 67 390 67 c 0
 398 67 411 69 428 80 c 1
 440 60 l 1
 396 7 346 -10 318 -10 c 0
 299 -10 294 5 294 36 c 0
 294 65 304 123 315 187 c 1
 238 41 183 -10 120 -10 c 0
 61 -10 28 36 28 112 c 0
 28 252 143 430 275 430 c 0
 307 430 336 415 353 393 c 1
 359 415 l 1
 443 429 l 1
 419 330 l 1
156 45 m 0
 217 45 340 244 340 346 c 0
 340 376 314 400 277 400 c 0
 200 400 152 320 131 232 c 1
 121 195 117 157 117 123 c 0
 117 71 134 45 156 45 c 0
EndSplineSet
EndChar

StartChar: acircumflex
Encoding: 226 226 113
Width: 466
Flags: MW
HStem: -10 55<145 151.5> 400 30<238.5 291 209 295.5>
VStem: 28 89<97 140 97 182> 294 83<20.5 102>
LayerCount: 2
Fore
SplineSet
174 505 m 2
 165 500 153 493 145 493 c 0
 136 493 134 497 134 500 c 0
 134 508 174 532 220 576 c 2
 270 624 l 2
 286 639 299 649 304 649 c 0
 307 649 318 640 330 624 c 2
 366 576 l 2
 400 530 431 509 431 501 c 0
 431 499 429 493 418 493 c 0
 411 493 398 500 391 505 c 2
 294 578 l 1
 174 505 l 2
419 330 m 1
 397 230 377 120 377 84 c 0
 377 73 381 67 390 67 c 0
 398 67 411 69 428 80 c 1
 440 60 l 1
 396 7 346 -10 318 -10 c 0
 299 -10 294 5 294 36 c 0
 294 65 304 123 315 187 c 1
 238 41 183 -10 120 -10 c 0
 61 -10 28 36 28 112 c 0
 28 252 143 430 275 430 c 0
 307 430 336 415 353 393 c 1
 359 415 l 1
 443 429 l 1
 419 330 l 1
156 45 m 0
 217 45 340 244 340 346 c 0
 340 376 314 400 277 400 c 0
 200 400 152 320 131 232 c 1
 121 195 117 157 117 123 c 0
 117 71 134 45 156 45 c 0
EndSplineSet
EndChar

StartChar: adieresis
Encoding: 228 228 114
Width: 466
Flags: MW
HStem: -10 55<145 151.5> 400 30<238.5 291 209 295.5> 548 95<199 220 373 394>
VStem: 28 89<97 140 97 182> 154 109<585 605.5> 294 83<20.5 102> 328 109<585 605.5>
LayerCount: 2
Fore
SplineSet
216 643 m 0xfa
 245 643 263 627 263 602 c 0
 263 568 238 548 202 548 c 0
 174 548 154 563 154 589 c 0
 154 622 182 643 216 643 c 0xfa
390 643 m 0
 419 643 437 627 437 602 c 0
 437 568 412 548 376 548 c 0
 348 548 328 563 328 589 c 0
 328 622 356 643 390 643 c 0
419 330 m 1xfc
 397 230 377 120 377 84 c 0
 377 73 381 67 390 67 c 0
 398 67 411 69 428 80 c 1
 440 60 l 1
 396 7 346 -10 318 -10 c 0
 299 -10 294 5 294 36 c 0
 294 65 304 123 315 187 c 1
 238 41 183 -10 120 -10 c 0
 61 -10 28 36 28 112 c 0
 28 252 143 430 275 430 c 0
 307 430 336 415 353 393 c 1
 359 415 l 1
 443 429 l 1
 419 330 l 1xfc
156 45 m 0
 217 45 340 244 340 346 c 0
 340 376 314 400 277 400 c 0
 200 400 152 320 131 232 c 1
 121 195 117 157 117 123 c 0
 117 71 134 45 156 45 c 0
EndSplineSet
EndChar

StartChar: agrave
Encoding: 224 224 115
Width: 466
Flags: MW
HStem: -10 55<145 151.5> 400 30<238.5 291 209 295.5>
VStem: 28 89<97 140 97 182> 294 83<20.5 102>
LayerCount: 2
Fore
SplineSet
174 615 m 2
 171 618 168 621 168 626 c 0
 168 635 203 653 228 653 c 0
 243 653 245 648 257 632 c 2
 339 518 l 2
 344 510 348 504 348 501 c 0
 348 496 343 493 331 493 c 0
 323 493 316 499 313 502 c 2
 174 615 l 2
419 330 m 1
 397 230 377 120 377 84 c 0
 377 73 381 67 390 67 c 0
 398 67 411 69 428 80 c 1
 440 60 l 1
 396 7 346 -10 318 -10 c 0
 299 -10 294 5 294 36 c 0
 294 65 304 123 315 187 c 1
 238 41 183 -10 120 -10 c 0
 61 -10 28 36 28 112 c 0
 28 252 143 430 275 430 c 0
 307 430 336 415 353 393 c 1
 359 415 l 1
 443 429 l 1
 419 330 l 1
156 45 m 0
 217 45 340 244 340 346 c 0
 340 376 314 400 277 400 c 0
 200 400 152 320 131 232 c 1
 121 195 117 157 117 123 c 0
 117 71 134 45 156 45 c 0
EndSplineSet
EndChar

StartChar: amacron
Encoding: 257 257 116
Width: 466
Flags: MW
HStem: -10 55<145 151.5> 400 30<238.5 291 209 295.5> 567 40<177 413 171 419>
VStem: 28 89<97 140 97 182> 294 83<20.5 102>
LayerCount: 2
Fore
SplineSet
413 567 m 1
 171 567 l 1
 177 607 l 1
 419 607 l 1
 413 567 l 1
419 330 m 1
 397 230 377 120 377 84 c 0
 377 73 381 67 390 67 c 0
 398 67 411 69 428 80 c 1
 440 60 l 1
 396 7 346 -10 318 -10 c 0
 299 -10 294 5 294 36 c 0
 294 65 304 123 315 187 c 1
 238 41 183 -10 120 -10 c 0
 61 -10 28 36 28 112 c 0
 28 252 143 430 275 430 c 0
 307 430 336 415 353 393 c 1
 359 415 l 1
 443 429 l 1
 419 330 l 1
156 45 m 0
 217 45 340 244 340 346 c 0
 340 376 314 400 277 400 c 0
 200 400 152 320 131 232 c 1
 121 195 117 157 117 123 c 0
 117 71 134 45 156 45 c 0
EndSplineSet
EndChar

StartChar: aogonek
Encoding: 261 261 117
Width: 466
Flags: MW
HStem: -159 43<318.5 385.5> -10 55<145 151.5> 400 30<238.5 291 209 295.5>
VStem: 28 89<97 140 97 182> 272 58<-83.5 -81.5> 294 83<20.5 102>
LayerCount: 2
Fore
SplineSet
456 -99 m 1xf8
 420 -137 377 -159 335 -159 c 0
 302 -159 272 -138 272 -97 c 0xf8
 272 -66 288 -35 320 -10 c 1
 318 -10 l 2
 299 -10 294 5 294 36 c 0
 294 65 304 123 315 187 c 1
 238 41 183 -10 120 -10 c 0
 61 -10 28 36 28 112 c 0
 28 252 143 430 275 430 c 0
 307 430 336 415 353 393 c 1
 359 415 l 1
 443 429 l 1
 419 330 l 1
 397 230 377 120 377 84 c 0
 377 73 381 67 390 67 c 0
 398 67 411 69 428 80 c 1
 440 60 l 1xf4
 418 33 394 15 372 5 c 1
 346 -13 330 -41 330 -71 c 0
 330 -96 343 -116 375 -116 c 0
 396 -116 419 -105 444 -85 c 1
 456 -99 l 1xf8
156 45 m 0
 217 45 340 244 340 346 c 0
 340 376 314 400 277 400 c 0
 200 400 152 320 131 232 c 1
 121 195 117 157 117 123 c 0
 117 71 134 45 156 45 c 0
EndSplineSet
EndChar

StartChar: aring
Encoding: 229 229 118
Width: 466
Flags: MW
HStem: -10 55<145 151.5> 400 30<238.5 291 209 295.5> 493 36<278 300.5 278 310> 620 36<288.5 311.5>
VStem: 28 89<97 140 97 182> 214 45<557.5 582.5 557.5 591> 294 83<20.5 102> 331 46<567.5 592>
LayerCount: 2
Fore
SplineSet
214 565 m 0xfd
 214 617 257 656 306 656 c 0
 351 656 377 629 377 585 c 0
 377 531 337 493 283 493 c 0
 239 493 214 521 214 565 c 0xfd
259 569 m 0
 259 546 268 529 288 529 c 0
 313 529 331 554 331 581 c 0
 331 603 322 620 301 620 c 0
 276 620 259 596 259 569 c 0
419 330 m 1xfe
 397 230 377 120 377 84 c 0
 377 73 381 67 390 67 c 0
 398 67 411 69 428 80 c 1
 440 60 l 1
 396 7 346 -10 318 -10 c 0
 299 -10 294 5 294 36 c 0
 294 65 304 123 315 187 c 1
 238 41 183 -10 120 -10 c 0
 61 -10 28 36 28 112 c 0
 28 252 143 430 275 430 c 0
 307 430 336 415 353 393 c 1
 359 415 l 1
 443 429 l 1
 419 330 l 1xfe
156 45 m 0
 217 45 340 244 340 346 c 0
 340 376 314 400 277 400 c 0
 200 400 152 320 131 232 c 1
 121 195 117 157 117 123 c 0
 117 71 134 45 156 45 c 0
EndSplineSet
EndChar

StartChar: atilde
Encoding: 227 227 119
Width: 466
Flags: MW
HStem: -10 55<145 151.5> 400 30<238.5 291 209 295.5> 529 49<361.5 381.5> 572 49<204.5 225>
VStem: 28 89<97 140 97 182> 146 20<530 530> 294 83<20.5 102> 420 20<620 620>
LayerCount: 2
Fore
SplineSet
146 530 m 1xdf
 153 579 186 621 223 621 c 0xdf
 266 621 342 578 381 578 c 0
 400 578 417 596 420 620 c 1
 440 620 l 1
 433 571 400 529 363 529 c 0xeb
 319 529 245 572 205 572 c 0
 186 572 170 554 166 530 c 1
 146 530 l 1xdf
419 330 m 1xdb
 397 230 377 120 377 84 c 0
 377 73 381 67 390 67 c 0
 398 67 411 69 428 80 c 1
 440 60 l 1
 396 7 346 -10 318 -10 c 0
 299 -10 294 5 294 36 c 0
 294 65 304 123 315 187 c 1
 238 41 183 -10 120 -10 c 0
 61 -10 28 36 28 112 c 0
 28 252 143 430 275 430 c 0
 307 430 336 415 353 393 c 1
 359 415 l 1
 443 429 l 1
 419 330 l 1xdb
156 45 m 0
 217 45 340 244 340 346 c 0
 340 376 314 400 277 400 c 0
 200 400 152 320 131 232 c 1
 121 195 117 157 117 123 c 0
 117 71 134 45 156 45 c 0
EndSplineSet
EndChar

StartChar: ae
Encoding: 230 230 120
Width: 643
Flags: MW
HStem: -9 54<414 443.5> 181 32 380 30<327 380 380 382> 400 30<492.5 526>
VStem: 13 89<100 135 100 175.5> 271 88 563 71<306.5 353.5>
LayerCount: 2
Fore
SplineSet
590 84 m 1xde
 541 33 476 -9 411 -9 c 0
 335 -9 278 45 271 130 c 1
 217 31 168 -10 106 -10 c 0
 46 -10 13 40 13 103 c 0
 13 248 188 410 376 410 c 0xee
 393 410 408 409 420 406 c 1
 447 421 477 430 508 430 c 0
 582 430 634 385 634 332 c 0
 634 266 560 195 360 181 c 1
 359 172 359 163 359 154 c 0
 359 86 392 45 436 45 c 0
 471 45 516 67 568 100 c 1
 590 84 l 1xde
563 338 m 0
 563 369 546 400 506 400 c 0
 458 400 422 366 397 319 c 0
 381 287 369 250 364 213 c 1
 495 223 563 275 563 338 c 0
274 191 m 1
 286 264 327 334 382 380 c 1
 380 380 l 2xee
 274 380 200 325 155 261 c 0
 119 211 102 155 102 115 c 0
 102 85 114 45 141 45 c 0
 185 45 240 114 274 191 c 1
EndSplineSet
EndChar

StartChar: b
Encoding: 98 98 121
Width: 457
Flags: MW
HStem: -7 30<180.5 231 180.5 248> 375 55<305.5 311.5>
VStem: 53 70<64 134> 120 93<607.5 716.5> 346 89<265 309>
LayerCount: 2
Fore
SplineSet
57 698 m 1xd8
 101 721 150 730 175 730 c 0
 202 730 213 725 213 708 c 0
 213 687 168 441 142 240 c 1xd8
 204 377 276 430 335 430 c 0
 396 430 435 378 435 301 c 0
 435 163 328 -7 168 -7 c 0
 93 -7 53 26 53 84 c 0xe8
 53 184 120 564 120 651 c 0
 120 667 108 676 89 676 c 0
 81 676 68 674 63 673 c 1
 57 698 l 1xd8
299 375 m 0xe8
 242 375 123 196 123 95 c 0
 123 33 167 23 194 23 c 0
 268 23 311 99 331 174 c 0
 341 213 346 251 346 279 c 0
 346 339 324 375 299 375 c 0xe8
EndSplineSet
EndChar

StartChar: c
Encoding: 99 99 122
Width: 406
Flags: MW
HStem: -9 54<167.5 201> 400 30<236.5 278>
VStem: 26 89<124 184.5 124 218> 316 71<346 363 323.5 372>
LayerCount: 2
Fore
SplineSet
346 84 m 1
 297 33 231 -9 171 -9 c 0
 80 -9 26 54 26 145 c 0
 26 291 141 430 265 430 c 0
 334 430 387 389 387 337 c 0
 387 310 372 278 332 278 c 0
 313 278 300 285 300 304 c 0
 300 325 316 334 316 358 c 0
 316 386 293 400 263 400 c 0
 210 400 174 358 149 307 c 0
 128 264 115 211 115 158 c 0
 115 90 143 45 192 45 c 0
 232 45 282 74 324 100 c 1
 346 84 l 1
EndSplineSet
EndChar

StartChar: cacute
Encoding: 263 263 123
Width: 406
Flags: MW
HStem: -9 54<167.5 201> 400 30<236.5 278>
VStem: 26 89<124 184.5 124 218> 316 71<346 363 323.5 372>
LayerCount: 2
Fore
SplineSet
297 632 m 2
 312 648 317 653 332 653 c 0
 356 653 386 635 386 627 c 0
 386 622 380 618 376 615 c 2
 205 502 l 2
 201 499 192 493 184 493 c 0
 174 493 170 496 170 500 c 0
 170 505 180 514 190 524 c 2
 297 632 l 2
346 84 m 1
 297 33 231 -9 171 -9 c 0
 80 -9 26 54 26 145 c 0
 26 291 141 430 265 430 c 0
 334 430 387 389 387 337 c 0
 387 310 372 278 332 278 c 0
 313 278 300 285 300 304 c 0
 300 325 316 334 316 358 c 0
 316 386 293 400 263 400 c 0
 210 400 174 358 149 307 c 0
 128 264 115 211 115 158 c 0
 115 90 143 45 192 45 c 0
 232 45 282 74 324 100 c 1
 346 84 l 1
EndSplineSet
EndChar

StartChar: ccaron
Encoding: 269 269 124
Width: 406
Flags: MW
HStem: -9 54<167.5 201> 400 30<236.5 278>
VStem: 26 89<124 184.5 124 218> 316 71<346 363 323.5 372>
LayerCount: 2
Fore
SplineSet
366 645 m 2
 375 650 387 657 395 657 c 0
 404 657 406 653 406 650 c 0
 406 642 366 618 320 574 c 2
 270 526 l 2
 254 511 241 501 236 501 c 0
 233 501 222 510 210 526 c 2
 174 574 l 2
 140 620 109 641 109 649 c 0
 109 651 111 657 122 657 c 0
 129 657 142 650 149 645 c 2
 246 572 l 1
 366 645 l 2
346 84 m 1
 297 33 231 -9 171 -9 c 0
 80 -9 26 54 26 145 c 0
 26 291 141 430 265 430 c 0
 334 430 387 389 387 337 c 0
 387 310 372 278 332 278 c 0
 313 278 300 285 300 304 c 0
 300 325 316 334 316 358 c 0
 316 386 293 400 263 400 c 0
 210 400 174 358 149 307 c 0
 128 264 115 211 115 158 c 0
 115 90 143 45 192 45 c 0
 232 45 282 74 324 100 c 1
 346 84 l 1
EndSplineSet
EndChar

StartChar: ccedilla
Encoding: 231 231 125
Width: 406
Flags: MW
HStem: -214 27<121.5 123.5 101.5 163.5> -9 54<158 212> 400 30<236.5 278>
VStem: 26 89<124 184.5 124 218> 111 49<-68.5 -64> 166 68<-143.5 -122.5> 316 71<346 363 323.5 372>
LayerCount: 2
Fore
SplineSet
158 -9 m 1xf6
 75 -3 26 59 26 145 c 0
 26 291 141 430 265 430 c 0
 334 430 387 389 387 337 c 0
 387 310 372 278 332 278 c 0
 313 278 300 285 300 304 c 0
 300 325 316 334 316 358 c 0
 316 386 293 400 263 400 c 0
 210 400 174 358 149 307 c 0
 128 264 115 211 115 158 c 0
 115 90 143 45 192 45 c 0xf6
 232 45 282 74 324 100 c 1
 346 84 l 1
 303 40 248 2 195 -7 c 1
 169 -43 l 2
 163 -51 160 -59 160 -63 c 0xea
 160 -85 234 -73 234 -117 c 0
 234 -170 197 -214 130 -214 c 0
 113 -214 85 -213 64 -198 c 1
 76 -171 l 1
 83 -182 95 -187 108 -187 c 0
 139 -187 166 -161 166 -130 c 0
 166 -115 153 -103 141 -94 c 2xf6
 121 -80 l 2
 115 -76 111 -71 111 -66 c 0
 111 -62 113 -58 120 -52 c 1xea
 158 -9 l 1xf6
EndSplineSet
EndChar

StartChar: d
Encoding: 100 100 126
Width: 476
Flags: MW
HStem: -10 55<146 153> 400 30<221.5 270> 675 55
VStem: 23 88<112 158.5 112 190> 301 86<25 151>
LayerCount: 2
Fore
SplineSet
313 698 m 1
 359 724 398 730 432 730 c 0
 456 730 470 727 470 708 c 0
 470 699 467 675 463 651 c 0
 443 531 387 208 387 94 c 0
 387 83 388 67 404 67 c 0
 409 67 424 69 441 80 c 1
 453 60 l 1
 404 7 357 -10 331 -10 c 0
 307 -10 301 11 301 39 c 0
 301 68 305 123 316 186 c 1
 254 43 183 -10 123 -10 c 0
 62 -10 23 42 23 120 c 0
 23 260 123 430 253 430 c 0
 296 430 329 412 346 391 c 1
 360 467 378 643 378 651 c 0
 378 667 365 675 343 675 c 0
 336 675 328 675 319 673 c 1
 313 698 l 1
159 45 m 0
 216 45 334 228 334 326 c 0
 334 390 283 400 257 400 c 0
 186 400 143 323 124 245 c 0
 115 209 111 173 111 144 c 0
 111 80 133 45 159 45 c 0
EndSplineSet
EndChar

StartChar: eth
Encoding: 240 240 127
Width: 449
Flags: MW
HStem: -10 32<169.5 213.5 169.5 245> 402 28<236.5 262 199.5 281> 518 20G<235 235> 526 20G<310 310> 585 22<136 179.5>
VStem: 28 88<112.5 175 107 234.5> 334 88<248.5 319>
LayerCount: 2
Fore
SplineSet
310 546 m 1xde
 382 486 422 387 422 269 c 0
 422 112 315 -10 175 -10 c 0
 61 -10 28 74 28 151 c 0
 28 318 149 430 250 430 c 0
 274 430 297 424 317 411 c 1
 305 455 282 495 256 517 c 1
 145 456 l 1
 134 483 l 1
 235 538 l 1xee
 197 569 166 585 136 585 c 1
 158 607 l 1
 201 607 248 592 286 566 c 1
 386 621 l 1
 396 594 l 1
 310 546 l 1xde
300 119 m 0
 321 164 334 221 334 276 c 0
 334 362 303 402 259 402 c 0
 214 402 174 359 148 300 c 0
 128 255 116 201 116 149 c 0
 116 65 147 22 192 22 c 0
 235 22 274 62 300 119 c 0
EndSplineSet
EndChar

StartChar: dcaron
Encoding: 271 271 128
Width: 476
Flags: MW
HStem: -10 55<146 153> 400 30<221.5 270> 530 77<501 546> 587 20G<514.5 546> 675 55
VStem: 23 88<112 158.5 112 190> 301 86<25 151> 483 96<552 568 528 571>
LayerCount: 2
Fore
SplineSet
313 698 m 1xdf
 359 724 398 730 432 730 c 0
 456 730 470 727 470 708 c 0
 470 699 467 675 463 651 c 0
 443 531 387 208 387 94 c 0
 387 83 388 67 404 67 c 0
 409 67 424 69 441 80 c 1
 453 60 l 1
 404 7 357 -10 331 -10 c 0
 307 -10 301 11 301 39 c 0
 301 68 305 123 316 186 c 1
 254 43 183 -10 123 -10 c 0
 62 -10 23 42 23 120 c 0
 23 260 123 430 253 430 c 0
 296 430 329 412 346 391 c 1
 360 467 378 643 378 651 c 0
 378 667 365 675 343 675 c 0
 336 675 328 675 319 673 c 1
 313 698 l 1xdf
476 451 m 1
 499 467 521 493 523 511 c 0
 523 513 523 514 523 515 c 0
 523 527 516 530 509 530 c 0xef
 493 530 483 544 483 560 c 0
 483 582 498 607 531 607 c 0
 561 607 579 582 579 554 c 0
 579 502 532 457 490 438 c 1
 476 451 l 1
159 45 m 0
 216 45 334 228 334 326 c 0
 334 390 283 400 257 400 c 0
 186 400 143 323 124 245 c 0
 115 209 111 173 111 144 c 0
 111 80 133 45 159 45 c 0
EndSplineSet
EndChar

StartChar: dcroat
Encoding: 273 273 129
Width: 476
Flags: MW
HStem: -10 55<146 153> 400 30<221.5 270> 558 40<283 369 277 373 454 519> 675 55
VStem: 23 88<112 158.5 112 190> 301 86<25 139.5> 378 92<651 717.5>
LayerCount: 2
Fore
SplineSet
447 558 m 1xfc
 423 410 387 185 387 94 c 0
 387 83 388 67 404 67 c 0
 409 67 424 69 441 80 c 1
 453 60 l 1
 404 7 357 -10 331 -10 c 0
 307 -10 301 11 301 39 c 0
 301 68 305 123 316 186 c 1xfc
 254 43 183 -10 123 -10 c 0
 62 -10 23 42 23 120 c 0
 23 260 123 430 253 430 c 0
 296 430 329 412 346 391 c 1
 353 432 362 501 369 558 c 1
 277 558 l 1
 283 598 l 1
 373 598 l 1
 378 651 l 1
 378 667 365 675 343 675 c 0
 336 675 328 675 319 673 c 1
 313 698 l 1
 359 724 398 730 432 730 c 0
 456 730 470 727 470 708 c 0
 470 699 467 675 463 651 c 2
 454 598 l 1
 525 598 l 1
 519 558 l 1xfa
 447 558 l 1xfc
159 45 m 0
 216 45 334 228 334 326 c 0
 334 390 283 400 257 400 c 0
 186 400 143 323 124 245 c 0
 115 209 111 173 111 144 c 0
 111 80 133 45 159 45 c 0
EndSplineSet
EndChar

StartChar: e
Encoding: 101 101 130
Width: 399
Flags: MW
HStem: -9 54<170 199.5> 181 32 400 30<238 282>
VStem: 26 89<120 158.5 120 214.5> 319 71<306.5 353.5>
LayerCount: 2
Fore
SplineSet
346 84 m 1
 297 33 232 -9 167 -9 c 0
 86 -9 26 53 26 147 c 0
 26 282 138 430 264 430 c 0
 338 430 390 385 390 332 c 0
 390 266 316 195 116 181 c 1
 115 172 115 163 115 154 c 0
 115 86 148 45 192 45 c 0
 227 45 272 67 324 100 c 1
 346 84 l 1
262 400 m 0
 214 400 178 366 153 319 c 0
 137 287 125 250 120 213 c 1
 251 223 319 275 319 338 c 0
 319 369 302 400 262 400 c 0
EndSplineSet
EndChar

StartChar: eacute
Encoding: 233 233 131
Width: 399
Flags: MW
HStem: -9 54<170 199.5> 181 32 400 30<238 282>
VStem: 26 89<120 158.5 120 214.5> 319 71<306.5 353.5>
LayerCount: 2
Fore
SplineSet
309 632 m 2
 324 648 329 653 344 653 c 0
 368 653 398 635 398 627 c 0
 398 622 392 618 388 615 c 2
 217 502 l 2
 213 499 204 493 196 493 c 0
 186 493 182 496 182 500 c 0
 182 505 192 514 202 524 c 2
 309 632 l 2
346 84 m 1
 297 33 232 -9 167 -9 c 0
 86 -9 26 53 26 147 c 0
 26 282 138 430 264 430 c 0
 338 430 390 385 390 332 c 0
 390 266 316 195 116 181 c 1
 115 172 115 163 115 154 c 0
 115 86 148 45 192 45 c 0
 227 45 272 67 324 100 c 1
 346 84 l 1
262 400 m 0
 214 400 178 366 153 319 c 0
 137 287 125 250 120 213 c 1
 251 223 319 275 319 338 c 0
 319 369 302 400 262 400 c 0
EndSplineSet
EndChar

StartChar: ecaron
Encoding: 283 283 132
Width: 399
Flags: MW
HStem: -9 54<170 199.5> 181 32 400 30<238 282>
VStem: 26 89<120 158.5 120 214.5> 319 71<306.5 353.5>
LayerCount: 2
Fore
SplineSet
378 645 m 2
 387 650 399 657 407 657 c 0
 416 657 418 653 418 650 c 0
 418 642 378 618 332 574 c 2
 282 526 l 2
 266 511 253 501 248 501 c 0
 245 501 234 510 222 526 c 2
 186 574 l 2
 152 620 121 641 121 649 c 0
 121 651 123 657 134 657 c 0
 141 657 154 650 161 645 c 2
 258 572 l 1
 378 645 l 2
346 84 m 1
 297 33 232 -9 167 -9 c 0
 86 -9 26 53 26 147 c 0
 26 282 138 430 264 430 c 0
 338 430 390 385 390 332 c 0
 390 266 316 195 116 181 c 1
 115 172 115 163 115 154 c 0
 115 86 148 45 192 45 c 0
 227 45 272 67 324 100 c 1
 346 84 l 1
262 400 m 0
 214 400 178 366 153 319 c 0
 137 287 125 250 120 213 c 1
 251 223 319 275 319 338 c 0
 319 369 302 400 262 400 c 0
EndSplineSet
EndChar

StartChar: ecircumflex
Encoding: 234 234 133
Width: 399
Flags: MW
HStem: -9 54<170 199.5> 181 32 400 30<238 282>
VStem: 26 89<120 158.5 120 214.5> 319 71<306.5 353.5>
LayerCount: 2
Fore
SplineSet
139 505 m 2
 130 500 118 493 110 493 c 0
 101 493 99 497 99 500 c 0
 99 508 139 532 185 576 c 2
 235 624 l 2
 251 639 264 649 269 649 c 0
 272 649 283 640 295 624 c 2
 331 576 l 2
 365 530 396 509 396 501 c 0
 396 499 394 493 383 493 c 0
 376 493 363 500 356 505 c 2
 259 578 l 1
 139 505 l 2
346 84 m 1
 297 33 232 -9 167 -9 c 0
 86 -9 26 53 26 147 c 0
 26 282 138 430 264 430 c 0
 338 430 390 385 390 332 c 0
 390 266 316 195 116 181 c 1
 115 172 115 163 115 154 c 0
 115 86 148 45 192 45 c 0
 227 45 272 67 324 100 c 1
 346 84 l 1
262 400 m 0
 214 400 178 366 153 319 c 0
 137 287 125 250 120 213 c 1
 251 223 319 275 319 338 c 0
 319 369 302 400 262 400 c 0
EndSplineSet
EndChar

StartChar: edieresis
Encoding: 235 235 134
Width: 399
Flags: MW
HStem: -9 54<170 199.5> 181 32 400 30<238 282> 548 95<164 185 338 359>
VStem: 26 89<120 158.5 120 214.5> 119 109<585 605.5> 293 109<585 605.5> 319 71<306.5 353.5>
LayerCount: 2
Fore
SplineSet
181 643 m 0xf6
 210 643 228 627 228 602 c 0
 228 568 203 548 167 548 c 0
 139 548 119 563 119 589 c 0
 119 622 147 643 181 643 c 0xf6
355 643 m 0
 384 643 402 627 402 602 c 0
 402 568 377 548 341 548 c 0
 313 548 293 563 293 589 c 0
 293 622 321 643 355 643 c 0
346 84 m 1
 297 33 232 -9 167 -9 c 0
 86 -9 26 53 26 147 c 0
 26 282 138 430 264 430 c 0
 338 430 390 385 390 332 c 0
 390 266 316 195 116 181 c 1
 115 172 115 163 115 154 c 0
 115 86 148 45 192 45 c 0xf9
 227 45 272 67 324 100 c 1
 346 84 l 1
262 400 m 0xf9
 214 400 178 366 153 319 c 0
 137 287 125 250 120 213 c 1
 251 223 319 275 319 338 c 0
 319 369 302 400 262 400 c 0xf9
EndSplineSet
EndChar

StartChar: edotaccent
Encoding: 279 279 135
Width: 399
Flags: MW
HStem: -9 54<170 199.5> 181 32 400 30<238 282> 548 95<250 271>
VStem: 26 89<120 158.5 120 214.5> 205 109<585 605.5> 319 71<306.5 353.5>
LayerCount: 2
Fore
SplineSet
267 643 m 0
 296 643 314 627 314 602 c 0
 314 568 289 548 253 548 c 0
 225 548 205 563 205 589 c 0
 205 622 233 643 267 643 c 0
346 84 m 1
 297 33 232 -9 167 -9 c 0
 86 -9 26 53 26 147 c 0
 26 282 138 430 264 430 c 0
 338 430 390 385 390 332 c 0xfa
 390 266 316 195 116 181 c 1
 115 172 115 163 115 154 c 0
 115 86 148 45 192 45 c 0
 227 45 272 67 324 100 c 1
 346 84 l 1
262 400 m 0xfa
 214 400 178 366 153 319 c 0
 137 287 125 250 120 213 c 1
 251 223 319 275 319 338 c 0
 319 369 302 400 262 400 c 0xfa
EndSplineSet
EndChar

StartChar: egrave
Encoding: 232 232 136
Width: 399
Flags: MW
HStem: -9 54<170 199.5> 181 32 400 30<238 282>
VStem: 26 89<120 158.5 120 214.5> 319 71<306.5 353.5>
LayerCount: 2
Fore
SplineSet
139 615 m 2
 136 618 133 621 133 626 c 0
 133 635 168 653 193 653 c 0
 208 653 210 648 222 632 c 2
 304 518 l 2
 309 510 313 504 313 501 c 0
 313 496 308 493 296 493 c 0
 288 493 281 499 278 502 c 2
 139 615 l 2
346 84 m 1
 297 33 232 -9 167 -9 c 0
 86 -9 26 53 26 147 c 0
 26 282 138 430 264 430 c 0
 338 430 390 385 390 332 c 0
 390 266 316 195 116 181 c 1
 115 172 115 163 115 154 c 0
 115 86 148 45 192 45 c 0
 227 45 272 67 324 100 c 1
 346 84 l 1
262 400 m 0
 214 400 178 366 153 319 c 0
 137 287 125 250 120 213 c 1
 251 223 319 275 319 338 c 0
 319 369 302 400 262 400 c 0
EndSplineSet
EndChar

StartChar: emacron
Encoding: 275 275 137
Width: 399
Flags: MW
HStem: -9 54<170 199.5> 181 32 400 30<238 282> 567 40<142 378 136 384>
VStem: 26 89<120 158.5 120 214.5> 319 71<306.5 353.5>
LayerCount: 2
Fore
SplineSet
378 567 m 1
 136 567 l 1
 142 607 l 1
 384 607 l 1
 378 567 l 1
346 84 m 1
 297 33 232 -9 167 -9 c 0
 86 -9 26 53 26 147 c 0
 26 282 138 430 264 430 c 0
 338 430 390 385 390 332 c 0
 390 266 316 195 116 181 c 1
 115 172 115 163 115 154 c 0
 115 86 148 45 192 45 c 0
 227 45 272 67 324 100 c 1
 346 84 l 1
262 400 m 0
 214 400 178 366 153 319 c 0
 137 287 125 250 120 213 c 1
 251 223 319 275 319 338 c 0
 319 369 302 400 262 400 c 0
EndSplineSet
EndChar

StartChar: eogonek
Encoding: 281 281 138
Width: 399
Flags: MW
HStem: -159 43<184.5 251.5> -9 54<170 170.5> 181 32 400 30<238 282>
VStem: 26 89<120 158.5 120 214.5> 138 58<-83.5 -81> 319 71<306.5 353.5>
LayerCount: 2
Fore
SplineSet
322 -99 m 1
 286 -137 243 -159 201 -159 c 0
 168 -159 138 -138 138 -97 c 0
 138 -65 156 -33 189 -7 c 1xfe
 182 -8 174 -9 167 -9 c 0
 86 -9 26 53 26 147 c 0
 26 282 138 430 264 430 c 0
 338 430 390 385 390 332 c 0
 390 266 316 195 116 181 c 1
 115 172 115 163 115 154 c 0
 115 86 148 45 192 45 c 0xfa
 227 45 272 67 324 100 c 1
 346 84 l 1
 318 55 284 28 249 11 c 1
 217 -6 196 -37 196 -71 c 0
 196 -96 209 -116 241 -116 c 0xfe
 262 -116 285 -105 310 -85 c 1
 322 -99 l 1
153 319 m 0
 137 287 125 250 120 213 c 1
 251 223 319 275 319 338 c 0
 319 369 302 400 262 400 c 0
 214 400 178 366 153 319 c 0
EndSplineSet
EndChar

StartChar: f
Encoding: 102 102 139
Width: 284
Flags: MW
HStem: -245 27<-38.5 2.5 -38.5 26.5> 389 31<56 115 29 119 205 281> 405 15<310 310> 703 27<294.5 335>
VStem: -136 76<-198.5 -187.5 -201 -167.5> 120 87 359 74<653 664.5 626 672.5>
LayerCount: 2
Fore
SplineSet
121 440 m 1xde
 139 600 206 730 324 730 c 0
 389 730 433 690 433 639 c 0
 433 613 421 588 386 588 c 0
 368 588 350 594 350 617 c 0
 350 634 359 643 359 663 c 0
 359 682 351 703 319 703 c 0
 270 703 231 652 209 454 c 1
 205 420 l 1
 310 420 l 1xde
 310 405 l 1xbe
 281 389 l 1
 202 389 l 1
 170 102 l 2
 148 -94 90 -245 -37 -245 c 0
 -89 -245 -136 -219 -136 -178 c 0
 -136 -157 -123 -134 -91 -134 c 0
 -73 -134 -54 -141 -54 -162 c 0
 -54 -174 -60 -182 -60 -193 c 0
 -60 -209 -48 -218 -29 -218 c 0
 34 -218 58 -123 80 72 c 2
 115 389 l 1
 29 389 l 1
 56 420 l 1
 119 420 l 1
 121 440 l 1xde
EndSplineSet
Substitution2: "Single Substitution lookup 27 subtable" f.ss04
Substitution2: "Single Substitution lookup 26 subtable" f.ss06
Substitution2: "Single Substitution lookup 25 subtable" f.ss02
Substitution2: "Single Substitution lookup 24 subtable" f.ss01
Substitution2: "Single Substitution lookup 23 subtable" f.ss07
Substitution2: "Single Substitution lookup 22 subtable" f.ss03
Substitution2: "Single Substitution lookup 21 subtable" f.ss05
Substitution2: "'ss04' Style Set 4 lookup 19 subtable" f.ss04
Substitution2: "'ss03' Style Set 3 lookup 18 subtable" f.ss03
Substitution2: "'ss02' Style Set 2 lookup 17 subtable" f.ss02
Substitution2: "'ss01' Style Set 1 lookup 16 subtable" f.ss01
Substitution2: "'salt' Stylistic Alternatives lookup 15 subtable" f.ss01
AlternateSubs2: "'aalt' Access All Alternates lookup 1 subtable" f.ss01 f.ss02 f.ss03 f.ss04
Position2: "Single Positioning lookup 3 subtable" dx=0 dy=0 dh=50 dv=0
EndChar

StartChar: g
Encoding: 103 103 140
Width: 428
Flags: MW
HStem: -245 26<86.5 177.5 86.5 193> 130 27<166 208.5 166 224.5> 403 20 403 27<211.5 254> 424 81<417 443>
VStem: -36 52<-161 -109> 25 66<84.5 86.5> 41 86<221.5 241.5 205 292> 293 86<318.5 338 268.5 355> 308 69<-150.5 -97.5>
LayerCount: 2
Fore
SplineSet
88 148 m 1xd540
 55 168 41 202 41 241 c 0
 41 343 134 430 253 430 c 0xd540
 274 430 292 427 307 423 c 1xe440
 347 466 404 505 430 505 c 0
 462 505 471 484 471 467 c 0
 471 448 454 424 432 424 c 0
 401 424 408 447 392 447 c 0
 382 447 350 435 328 414 c 1
 365 393 379 357 379 319 c 0
 379 218 284 130 165 130 c 0
 144 130 126 133 111 138 c 1
 101 126 91 113 91 101 c 0xce80
 91 68 154 60 221 37 c 0
 296 11 377 -13 377 -102 c 0
 377 -199 260 -245 126 -245 c 0
 14 -245 -36 -207 -36 -140 c 0xd440
 -36 -78 21 -30 87 3 c 1
 51 19 25 39 25 71 c 0xd640
 25 102 51 123 81 143 c 1
 88 148 l 1xd540
277 230 m 0xd580
 288 259 293 303 293 334 c 0
 293 376 275 403 233 403 c 0
 190 403 162 380 143 330 c 0
 132 301 127 257 127 226 c 0
 127 184 145 157 187 157 c 0
 230 157 258 180 277 230 c 0xd580
308 -125 m 0xd440
 308 -70 247 -47 181 -27 c 0
 161 -21 140 -15 120 -9 c 1
 73 -27 16 -74 16 -138 c 0
 16 -184 44 -219 129 -219 c 0
 226 -219 308 -183 308 -125 c 0xd440
EndSplineSet
EndChar

StartChar: gbreve
Encoding: 287 287 141
Width: 428
Flags: MW
HStem: -245 26<86.5 177.5 86.5 193> 130 27<166 208.5 166 224.5> 403 20 403 27<211.5 254> 424 81<417 443> 518 50<223 274 223 280>
VStem: -36 52<-161 -109> 25 66<84.5 86.5> 41 86<221.5 241.5 205 292> 134 44<642 642> 293 86<318.5 338 268.5 355> 308 69<-150.5 -97.5>
LayerCount: 2
Fore
SplineSet
385 642 m 1xd650
 367 569 318 518 242 518 c 0
 167 518 132 569 134 642 c 1
 178 642 l 1
 181 606 197 568 249 568 c 0
 299 568 329 606 342 642 c 1
 385 642 l 1xd650
88 148 m 1xd690
 55 168 41 202 41 241 c 0
 41 343 134 430 253 430 c 0xd690
 274 430 292 427 307 423 c 1xe650
 347 466 404 505 430 505 c 0
 462 505 471 484 471 467 c 0
 471 448 454 424 432 424 c 0
 401 424 408 447 392 447 c 0
 382 447 350 435 328 414 c 1
 365 393 379 357 379 319 c 0
 379 218 284 130 165 130 c 0
 144 130 126 133 111 138 c 1
 101 126 91 113 91 101 c 0xcf60
 91 68 154 60 221 37 c 0
 296 11 377 -13 377 -102 c 0
 377 -199 260 -245 126 -245 c 0
 14 -245 -36 -207 -36 -140 c 0xd650
 -36 -78 21 -30 87 3 c 1
 51 19 25 39 25 71 c 0xd750
 25 102 51 123 81 143 c 1
 88 148 l 1xd690
277 230 m 0xd6a0
 288 259 293 303 293 334 c 0
 293 376 275 403 233 403 c 0
 190 403 162 380 143 330 c 0
 132 301 127 257 127 226 c 0
 127 184 145 157 187 157 c 0
 230 157 258 180 277 230 c 0xd6a0
308 -125 m 0xd650
 308 -70 247 -47 181 -27 c 2
 120 -9 l 1
 73 -27 16 -74 16 -138 c 0
 16 -184 44 -219 129 -219 c 0
 226 -219 308 -183 308 -125 c 0xd650
EndSplineSet
EndChar

StartChar: gcommaaccent
Encoding: 291 291 142
Width: 428
Flags: MW
HStem: -245 26<86.5 177.5 86.5 193> 130 27<166 208.5 166 224.5> 403 20 403 27<211.5 254> 424 81<417 443> 486 77<242.5 295>
VStem: -36 52<-161 -109> 25 66<84.5 86.5> 41 86<221.5 241.5 205 292> 207 56 293 86<318.5 338 268.5 355> 308 69<-150.5 -97.5>
LayerCount: 2
Fore
SplineSet
320 652 m 1xd650
 292 637 265 610 263 592 c 0
 260 569 273 563 287 563 c 0
 303 563 313 549 313 533 c 0
 313 511 294 486 260 486 c 0
 225 486 207 511 207 539 c 0
 207 596 259 644 306 665 c 1
 320 652 l 1xd650
88 148 m 1xd6d0
 55 168 41 202 41 241 c 0
 41 343 134 430 253 430 c 0xd6d0
 274 430 292 427 307 423 c 1xe650
 347 466 404 505 430 505 c 0
 462 505 471 484 471 467 c 0
 471 448 454 424 432 424 c 0
 401 424 408 447 392 447 c 0
 382 447 350 435 328 414 c 1
 365 393 379 357 379 319 c 0
 379 218 284 130 165 130 c 0
 144 130 126 133 111 138 c 1
 101 126 91 113 91 101 c 0xcb60
 91 68 154 60 221 37 c 0
 296 11 377 -13 377 -102 c 0
 377 -199 260 -245 126 -245 c 0
 14 -245 -36 -207 -36 -140 c 0xd650
 -36 -78 21 -30 87 3 c 1
 51 19 25 39 25 71 c 0xd750
 25 102 51 123 81 143 c 1
 88 148 l 1xd6d0
277 230 m 0xd6e0
 288 259 293 303 293 334 c 0
 293 376 275 403 233 403 c 0
 190 403 162 380 143 330 c 0
 132 301 127 257 127 226 c 0
 127 184 145 157 187 157 c 0
 230 157 258 180 277 230 c 0xd6e0
308 -125 m 0xd650
 308 -70 247 -47 181 -27 c 2
 120 -9 l 1
 73 -27 16 -74 16 -138 c 0
 16 -184 44 -219 129 -219 c 0
 226 -219 308 -183 308 -125 c 0xd650
EndSplineSet
EndChar

StartChar: h
Encoding: 104 104 143
Width: 499
Flags: MW
HStem: -10 77<339 420> 375 55<310 334.5> 675 55
VStem: 133 93<615.5 717.5> 316 82<21 108> 364 82<308 339.5>
LayerCount: 2
Fore
SplineSet
466 60 m 1xc8
 424 16 377 -10 348 -10 c 0
 330 -10 316 7 316 35 c 0xc8
 316 90 364 256 364 324 c 0
 364 355 348 375 321 375 c 0
 258 375 167 229 138 112 c 1
 124 0 l 1
 45 0 l 1
 59 87 133 580 133 651 c 0
 133 667 120 675 100 675 c 0
 93 675 85 675 76 673 c 1
 70 698 l 1
 118 722 164 730 188 730 c 0
 212 730 226 727 226 708 c 0
 226 700 222 674 216 640 c 0
 208 589 195 518 187 464 c 2
 152 222 l 1
 193 317 263 430 357 430 c 0
 412 430 446 393 446 340 c 0x74
 446 276 398 126 398 90 c 0
 398 83 400 67 417 67 c 0
 423 67 437 69 454 80 c 1
 466 60 l 1xc8
EndSplineSet
EndChar

StartChar: i
Encoding: 105 105 144
Width: 260
Flags: MW
HStem: -10 77<90.5 167.5> 406 20G<148 173.5> 548 95<161 182>
VStem: 64 84<20.5 106> 103 93<336 413.5> 116 109<585 605.5>
LayerCount: 2
Fore
SplineSet
178 643 m 0xe4
 207 643 225 627 225 602 c 0
 225 568 200 548 164 548 c 0
 136 548 116 563 116 589 c 0
 116 622 144 643 178 643 c 0xe4
213 60 m 1xf0
 171 16 131 -10 102 -10 c 0
 79 -10 64 5 64 36 c 0xf0
 64 68 79 146 90 223 c 0
 99 283 103 325 103 347 c 0
 103 367 86 373 72 373 c 0
 67 373 60 372 56 371 c 1
 51 400 l 1
 90 416 131 426 165 426 c 0
 182 426 196 423 196 404 c 0xe8
 196 392 178 310 164 230 c 0
 154 173 148 118 148 94 c 0
 148 83 149 67 165 67 c 0
 170 67 184 69 201 80 c 1
 213 60 l 1xf0
EndSplineSet
Substitution2: "'locl' Localized Forms in Latin lookup 7 subtable" i.loclTRK
Substitution2: "'locl' Localized Forms in Latin lookup 6 subtable" i.loclTRK
Substitution2: "'locl' Localized Forms in Latin lookup 4 subtable" i.loclTRK
Substitution2: "'locl' Localized Forms in Latin lookup 3 subtable" i.loclTRK
Substitution2: "'locl' Localized Forms in Latin lookup 2 subtable" i.loclTRK
Substitution2: "'aalt' Access All Alternates lookup 0 subtable" i.loclTRK
EndChar

StartChar: dotlessi
Encoding: 305 305 145
Width: 256
Flags: MW
HStem: -10 77<90.5 167.5> 406 20G<148 173.5>
VStem: 64 84<20.5 106> 103 93<336 413.5>
LayerCount: 2
Fore
SplineSet
213 60 m 1xe0
 171 16 131 -10 102 -10 c 0
 79 -10 64 5 64 36 c 0xe0
 64 68 79 146 90 223 c 0
 99 283 103 325 103 347 c 0
 103 367 86 373 72 373 c 0
 67 373 60 372 56 371 c 1
 51 400 l 1
 90 416 131 426 165 426 c 0
 182 426 196 423 196 404 c 0xd0
 196 392 178 310 164 230 c 0
 154 173 148 118 148 94 c 0
 148 83 149 67 165 67 c 0
 170 67 184 69 201 80 c 1
 213 60 l 1xe0
EndSplineSet
EndChar

StartChar: iacute
Encoding: 237 237 146
Width: 256
Flags: MW
HStem: -10 77<90.5 167.5> 406 20G<148 173.5>
VStem: 64 84<20.5 106> 103 93<336 413.5>
LayerCount: 2
Fore
SplineSet
226 632 m 2xe0
 241 648 246 653 261 653 c 0
 285 653 315 635 315 627 c 0
 315 622 309 618 305 615 c 2
 134 502 l 2
 130 499 121 493 113 493 c 0
 103 493 99 496 99 500 c 0
 99 505 109 514 119 524 c 2
 226 632 l 2xe0
213 60 m 1
 171 16 131 -10 102 -10 c 0
 79 -10 64 5 64 36 c 0xe0
 64 68 79 146 90 223 c 0
 99 283 103 325 103 347 c 0
 103 367 86 373 72 373 c 0
 67 373 60 372 56 371 c 1
 51 400 l 1
 90 416 131 426 165 426 c 0
 182 426 196 423 196 404 c 0xd0
 196 392 178 310 164 230 c 0
 154 173 148 118 148 94 c 0
 148 83 149 67 165 67 c 0
 170 67 184 69 201 80 c 1
 213 60 l 1
EndSplineSet
EndChar

StartChar: icircumflex
Encoding: 238 238 147
Width: 256
Flags: MW
HStem: -10 77<90.5 167.5> 406 20G<148 173.5>
VStem: 64 84<20.5 106> 103 93<336 413.5>
LayerCount: 2
Fore
SplineSet
169 644 m 1xe0
 176 653 184 659 187 659 c 0
 190 659 196 653 201 644 c 2
 280 521 l 2
 288 509 293 501 293 500 c 0
 293 496 287 493 282 493 c 0
 273 493 262 499 255 506 c 2
 176 583 l 1
 75 506 l 2
 66 499 53 493 44 493 c 0
 40 493 35 496 35 499 c 0
 35 501 42 509 53 521 c 2
 169 644 l 1xe0
213 60 m 1
 171 16 131 -10 102 -10 c 0
 79 -10 64 5 64 36 c 0xe0
 64 68 79 146 90 223 c 0
 99 283 103 325 103 347 c 0
 103 367 86 373 72 373 c 0
 67 373 60 372 56 371 c 1
 51 400 l 1
 90 416 131 426 165 426 c 0
 182 426 196 423 196 404 c 0xd0
 196 392 178 310 164 230 c 0
 154 173 148 118 148 94 c 0
 148 83 149 67 165 67 c 0
 170 67 184 69 201 80 c 1
 213 60 l 1
EndSplineSet
EndChar

StartChar: idieresis
Encoding: 239 239 148
Width: 256
Flags: MW
HStem: -10 77<90.5 167.5> 406 20G<148 173.5> 548 95<81 102 255 276>
VStem: 36 109<585 605.5> 64 84<20.5 106> 103 93<336 413.5> 210 109<585 605.5>
LayerCount: 2
Fore
SplineSet
98 643 m 0xf2
 127 643 145 627 145 602 c 0
 145 568 120 548 84 548 c 0
 56 548 36 563 36 589 c 0
 36 622 64 643 98 643 c 0xf2
272 643 m 0
 301 643 319 627 319 602 c 0
 319 568 294 548 258 548 c 0
 230 548 210 563 210 589 c 0
 210 622 238 643 272 643 c 0
213 60 m 1xea
 171 16 131 -10 102 -10 c 0
 79 -10 64 5 64 36 c 0xea
 64 68 79 146 90 223 c 0
 99 283 103 325 103 347 c 0
 103 367 86 373 72 373 c 0
 67 373 60 372 56 371 c 1
 51 400 l 1
 90 416 131 426 165 426 c 0
 182 426 196 423 196 404 c 0xe6
 196 392 178 310 164 230 c 0
 154 173 148 118 148 94 c 0
 148 83 149 67 165 67 c 0
 170 67 184 69 201 80 c 1
 213 60 l 1xea
EndSplineSet
EndChar

StartChar: igrave
Encoding: 236 236 149
Width: 256
Flags: MW
HStem: -10 77<90.5 167.5> 406 20G<148 173.5>
VStem: 64 84<20.5 106> 103 93<336 413.5>
LayerCount: 2
Fore
SplineSet
56 615 m 2xe0
 53 618 50 621 50 626 c 0
 50 635 85 653 110 653 c 0
 125 653 127 648 139 632 c 2
 221 518 l 2
 226 510 230 504 230 501 c 0
 230 496 225 493 213 493 c 0
 205 493 198 499 195 502 c 2
 56 615 l 2xe0
213 60 m 1
 171 16 131 -10 102 -10 c 0
 79 -10 64 5 64 36 c 0xe0
 64 68 79 146 90 223 c 0
 99 283 103 325 103 347 c 0
 103 367 86 373 72 373 c 0
 67 373 60 372 56 371 c 1
 51 400 l 1
 90 416 131 426 165 426 c 0
 182 426 196 423 196 404 c 0xd0
 196 392 178 310 164 230 c 0
 154 173 148 118 148 94 c 0
 148 83 149 67 165 67 c 0
 170 67 184 69 201 80 c 1
 213 60 l 1
EndSplineSet
EndChar

StartChar: ij
Encoding: 307 307 150
Width: 502
Flags: MW
HStem: -245 27<221.5 257.5 221.5 274.5> -10 77<90.5 167.5> 373 53 403 23 406 20G<148 173.5 405 431> 548 95<161 182 422 443>
VStem: 64 84<20.5 106> 103 93<336 413.5> 116 109<585 605.5> 124 76<-198.5 -187.5 -201 -167.5> 377 109<585 605.5>
LayerCount: 2
Fore
SplineSet
178 643 m 0x8ca0
 207 643 225 627 225 602 c 0
 225 568 200 548 164 548 c 0
 136 548 116 563 116 589 c 0
 116 622 144 643 178 643 c 0x8ca0
439 643 m 0
 468 643 486 627 486 602 c 0
 486 568 461 548 425 548 c 0
 397 548 377 563 377 589 c 0
 377 622 405 643 439 643 c 0
213 60 m 1xca20
 171 16 131 -10 102 -10 c 0
 79 -10 64 5 64 36 c 0xca20
 64 68 79 146 90 223 c 0
 99 283 103 325 103 347 c 0
 103 367 86 373 72 373 c 0
 67 373 60 372 56 371 c 1xa120
 51 400 l 1
 90 416 131 426 165 426 c 0
 182 426 196 423 196 404 c 0x8920
 196 392 178 310 164 230 c 0
 154 173 148 118 148 94 c 0
 148 83 149 67 165 67 c 0
 170 67 184 69 201 80 c 1
 213 60 l 1xca20
308 400 m 1xa220
 347 416 388 426 422 426 c 0
 440 426 453 423 453 403 c 1x9220
 453 406 405 95 394 11 c 0
 373 -148 326 -245 223 -245 c 0
 171 -245 124 -219 124 -178 c 0
 124 -157 137 -134 169 -134 c 0
 187 -134 206 -141 206 -162 c 0
 206 -174 200 -182 200 -193 c 0
 200 -209 213 -218 230 -218 c 0
 285 -218 299 -123 326 72 c 2
 347 225 l 2
 355 284 360 327 360 342 c 0
 360 369 343 373 330 373 c 0
 323 373 317 372 313 371 c 1xa060
 308 400 l 1xa220
EndSplineSet
EndChar

StartChar: imacron
Encoding: 299 299 151
Width: 256
Flags: MW
HStem: -10 77<90.5 167.5> 406 20G<148 173.5> 567 40<59 295 53 301>
VStem: 64 84<20.5 106> 103 93<336 413.5>
LayerCount: 2
Fore
SplineSet
295 567 m 1xf0
 53 567 l 1
 59 607 l 1
 301 607 l 1
 295 567 l 1xf0
213 60 m 1
 171 16 131 -10 102 -10 c 0
 79 -10 64 5 64 36 c 0xf0
 64 68 79 146 90 223 c 0
 99 283 103 325 103 347 c 0
 103 367 86 373 72 373 c 0
 67 373 60 372 56 371 c 1
 51 400 l 1
 90 416 131 426 165 426 c 0
 182 426 196 423 196 404 c 0xe8
 196 392 178 310 164 230 c 0
 154 173 148 118 148 94 c 0
 148 83 149 67 165 67 c 0
 170 67 184 69 201 80 c 1
 213 60 l 1
EndSplineSet
EndChar

StartChar: iogonek
Encoding: 303 303 152
Width: 256
Flags: MW
HStem: -160 43<89.5 156.5> 406 20G<148 173.5> 548 95<167 188>
VStem: 43 58<-84.5 -82> 64 84<22.5 106> 103 93<336 413.5> 122 109<585 605.5>
LayerCount: 2
Fore
SplineSet
170 548 m 0xf2
 142 548 122 563 122 589 c 0
 122 622 150 643 184 643 c 0
 213 643 231 627 231 602 c 0
 231 568 206 548 170 548 c 0xf2
213 60 m 1xe8
 187 33 161 12 139 1 c 1
 115 -17 101 -43 101 -72 c 0
 101 -97 114 -117 146 -117 c 0
 167 -117 190 -106 215 -86 c 1
 227 -100 l 1
 191 -138 148 -160 106 -160 c 0
 73 -160 43 -139 43 -98 c 0xf0
 43 -66 60 -34 93 -9 c 1
 75 -6 64 9 64 36 c 0xe8
 64 68 79 146 90 223 c 0
 99 283 103 325 103 347 c 0
 103 367 86 373 72 373 c 0
 67 373 60 372 56 371 c 1
 51 400 l 1
 90 416 131 426 165 426 c 0
 182 426 196 423 196 404 c 0xe4
 196 392 178 310 164 230 c 0
 154 173 148 118 148 94 c 0
 148 83 149 67 165 67 c 0
 170 67 184 69 201 80 c 1
 213 60 l 1xe8
EndSplineSet
EndChar

StartChar: j
Encoding: 106 106 153
Width: 242
Flags: MW
HStem: -245 27<-38.5 -2.5 -38.5 14.5> 403 23 406 20G<145 171> 548 95<162 183>
VStem: -136 76<-198.5 -187.5 -201 -167.5> 117 109<585 605.5>
LayerCount: 2
Fore
SplineSet
179 643 m 0xbc
 208 643 226 627 226 602 c 0
 226 568 201 548 165 548 c 0
 137 548 117 563 117 589 c 0
 117 622 145 643 179 643 c 0xbc
48 400 m 1
 87 416 128 426 162 426 c 0
 180 426 193 423 193 403 c 1xdc
 193 406 145 95 134 11 c 0
 113 -148 66 -245 -37 -245 c 0
 -89 -245 -136 -219 -136 -178 c 0
 -136 -157 -123 -134 -91 -134 c 0
 -73 -134 -54 -141 -54 -162 c 0
 -54 -174 -60 -182 -60 -193 c 0
 -60 -209 -47 -218 -30 -218 c 0
 25 -218 39 -123 66 72 c 2
 87 225 l 2
 95 284 100 327 100 342 c 0
 100 369 83 373 70 373 c 0
 63 373 57 372 53 371 c 1
 48 400 l 1
EndSplineSet
Substitution2: "Single Substitution lookup 23 subtable" j.ss01
EndChar

StartChar: dotlessj
Encoding: 567 567 154
Width: 242
Flags: MW
HStem: -245 27<-38.5 -2.5 -38.5 14.5> 403 23 406 20G<145 171>
VStem: -136 76<-198.5 -187.5 -201 -167.5>
LayerCount: 2
Fore
SplineSet
48 400 m 1xb0
 87 416 128 426 162 426 c 0
 180 426 193 423 193 403 c 1xd0
 193 406 145 95 134 11 c 0
 113 -148 66 -245 -37 -245 c 0
 -89 -245 -136 -219 -136 -178 c 0
 -136 -157 -123 -134 -91 -134 c 0
 -73 -134 -54 -141 -54 -162 c 0
 -54 -174 -60 -182 -60 -193 c 0
 -60 -209 -47 -218 -30 -218 c 0
 25 -218 39 -123 66 72 c 2
 87 225 l 2
 95 284 100 327 100 342 c 0
 100 369 83 373 70 373 c 0
 63 373 57 372 53 371 c 1
 48 400 l 1xb0
EndSplineSet
EndChar

StartChar: k
Encoding: 107 107 155
Width: 481
Flags: MW
HStem: -10 70<325.5 385.5> 375 55<310 329> 675 55
VStem: 133 93<615.5 717.5> 353 84<332 347.5>
LayerCount: 2
Fore
SplineSet
448 60 m 1
 410 18 371 -10 342 -10 c 0
 309 -10 296 10 286 40 c 2
 229 206 l 1
 317 236 353 290 353 333 c 0
 353 362 337 375 321 375 c 0
 258 375 167 229 138 112 c 1
 124 0 l 1
 45 0 l 1
 59 87 133 580 133 651 c 0
 133 667 120 675 100 675 c 0
 93 675 85 675 76 673 c 1
 70 698 l 1
 118 722 164 730 188 730 c 0
 212 730 226 727 226 708 c 0
 226 700 222 674 216 640 c 0
 208 589 195 518 187 464 c 2
 152 222 l 1
 193 317 263 430 357 430 c 0
 406 430 437 397 437 357 c 0
 437 307 388 255 307 219 c 1
 357 85 l 2
 361 73 367 60 382 60 c 0
 389 60 410 63 436 80 c 1
 448 60 l 1
EndSplineSet
EndChar

StartChar: kcommaaccent
Encoding: 311 311 156
Width: 481
Flags: MW
HStem: -111 77<188 240.5> -10 70<325.5 385.5> 375 55<310 329> 675 55
VStem: 133 93<615.5 717.5> 220 56 353 84<332 347.5>
LayerCount: 2
Fore
SplineSet
448 60 m 1x66
 410 18 371 -10 342 -10 c 0
 309 -10 296 10 286 40 c 2
 229 206 l 1
 317 236 353 290 353 333 c 0
 353 362 337 375 321 375 c 0
 258 375 167 229 138 112 c 1
 124 0 l 1
 45 0 l 1
 59 87 133 580 133 651 c 0
 133 667 120 675 100 675 c 0
 93 675 85 675 76 673 c 1
 70 698 l 1
 118 722 164 730 188 730 c 0
 212 730 226 727 226 708 c 0
 226 700 222 674 216 640 c 0
 208 589 195 518 187 464 c 2
 152 222 l 1x7a
 193 317 263 430 357 430 c 0
 406 430 437 397 437 357 c 0
 437 307 388 255 307 219 c 1
 357 85 l 2
 361 73 367 60 382 60 c 0
 389 60 410 63 436 80 c 1
 448 60 l 1x66
163 -200 m 1
 191 -185 218 -158 220 -140 c 0
 223 -117 210 -111 196 -111 c 0
 180 -111 170 -97 170 -81 c 0
 170 -59 189 -34 223 -34 c 0
 258 -34 276 -59 276 -87 c 0xe6
 276 -144 224 -192 177 -213 c 1
 163 -200 l 1
EndSplineSet
EndChar

StartChar: l
Encoding: 108 108 157
Width: 236
Flags: MW
HStem: -10 77<70.5 151.5> 675 55
VStem: 43 87<20.5 94> 123 93<630 717.5>
LayerCount: 2
Fore
SplineSet
202 60 m 1xa0
 160 16 114 -10 82 -10 c 0
 59 -10 43 5 43 36 c 0xa0
 43 63 67 219 89 370 c 0
 107 491 123 609 123 651 c 0
 123 667 110 675 90 675 c 0
 83 675 75 675 66 673 c 1
 60 698 l 1
 106 720 149 730 183 730 c 0
 202 730 216 727 216 708 c 0x50
 216 691 203 625 189 539 c 0
 164 385 133 174 130 94 c 0
 130 83 131 67 149 67 c 0
 154 67 173 69 190 80 c 1
 202 60 l 1xa0
EndSplineSet
EndChar

StartChar: lacute
Encoding: 314 314 158
Width: 236
Flags: MW
HStem: -10 77<70.5 151.5> -10 888<70.5 300> 675 55
VStem: 43 87<20.5 94> 123 93<630 717.5 699.5 767>
LayerCount: 2
Fore
SplineSet
263 866 m 2x50
 277 876 284 878 291 878 c 0
 309 878 336 855 335 845 c 0
 334 840 330 837 324 834 c 2
 154 762 l 2
 149 760 143 758 136 758 c 0
 129 758 123 761 123 767 c 1
 124 771 129 777 138 783 c 2
 263 866 l 2x50
202 60 m 1x90
 160 16 114 -10 82 -10 c 0
 59 -10 43 5 43 36 c 0x90
 43 63 67 219 89 370 c 0
 107 491 123 609 123 651 c 0
 123 667 110 675 90 675 c 0
 83 675 75 675 66 673 c 1
 60 698 l 1
 106 720 149 730 183 730 c 0
 202 730 216 727 216 708 c 0x28
 216 691 203 625 189 539 c 0
 164 385 133 174 130 94 c 0
 130 83 131 67 149 67 c 0
 154 67 173 69 190 80 c 1
 202 60 l 1x90
EndSplineSet
EndChar

StartChar: lcaron
Encoding: 318 318 159
Width: 236
Flags: MW
HStem: -10 77<70.5 151.5> 530 77<248 293> 587 20G<261.5 293> 675 55
VStem: 43 87<20.5 94> 123 93<630 717.5> 230 96<552 568 528 571>
LayerCount: 2
Fore
SplineSet
202 60 m 1xaa
 160 16 114 -10 82 -10 c 0
 59 -10 43 5 43 36 c 0xaa
 43 63 67 219 89 370 c 0
 107 491 123 609 123 651 c 0
 123 667 110 675 90 675 c 0
 83 675 75 675 66 673 c 1
 60 698 l 1
 106 720 149 730 183 730 c 0
 202 730 216 727 216 708 c 0xb6
 216 691 203 625 189 539 c 0
 164 385 133 174 130 94 c 0
 130 83 131 67 149 67 c 0
 154 67 173 69 190 80 c 1
 202 60 l 1xaa
223 451 m 1
 246 467 268 493 270 511 c 0
 270 513 270 514 270 515 c 0
 270 527 263 530 256 530 c 0xca
 240 530 230 544 230 560 c 0
 230 582 245 607 278 607 c 0
 308 607 326 582 326 554 c 0
 326 502 279 457 237 438 c 1
 223 451 l 1
EndSplineSet
EndChar

StartChar: lcommaaccent
Encoding: 316 316 160
Width: 236
Flags: MW
HStem: -111 77<53 105.5> -10 77<70.5 151.5> 675 55
VStem: 43 87<20.5 94> 85 56 123 93<630 717.5>
LayerCount: 2
Fore
SplineSet
202 60 m 1x50
 160 16 114 -10 82 -10 c 0
 59 -10 43 5 43 36 c 0x50
 43 63 67 219 89 370 c 0
 107 491 123 609 123 651 c 0
 123 667 110 675 90 675 c 0
 83 675 75 675 66 673 c 1
 60 698 l 1
 106 720 149 730 183 730 c 0
 202 730 216 727 216 708 c 0x24
 216 691 203 625 189 539 c 0
 164 385 133 174 130 94 c 0
 130 83 131 67 149 67 c 0
 154 67 173 69 190 80 c 1
 202 60 l 1x50
28 -200 m 1x88
 56 -185 83 -158 85 -140 c 0
 88 -117 75 -111 61 -111 c 0
 45 -111 35 -97 35 -81 c 0
 35 -59 54 -34 88 -34 c 0
 123 -34 141 -59 141 -87 c 0
 141 -144 89 -192 42 -213 c 1
 28 -200 l 1x88
EndSplineSet
EndChar

StartChar: ldot
Encoding: 320 320 161
Width: 236
Flags: MW
HStem: -10 77<70.5 151.5> 284 105<230.5 248> 675 55
VStem: 43 87<20.5 94> 123 93<630 717.5> 186 106<326.5 346>
LayerCount: 2
Fore
SplineSet
202 60 m 1xf4
 160 16 114 -10 82 -10 c 0
 59 -10 43 5 43 36 c 0xf4
 43 63 67 219 89 370 c 0
 107 491 123 609 123 651 c 0
 123 667 110 675 90 675 c 0
 83 675 75 675 66 673 c 1
 60 698 l 1
 106 720 149 730 183 730 c 0
 202 730 216 727 216 708 c 0xe8
 216 691 203 625 189 539 c 0
 164 385 133 174 130 94 c 0
 130 83 131 67 149 67 c 0
 154 67 173 69 190 80 c 1
 202 60 l 1xf4
186 329 m 0
 186 363 214 389 247 389 c 0
 274 389 292 370 292 344 c 0
 292 309 265 284 231 284 c 0
 205 284 186 303 186 329 c 0
EndSplineSet
Ligature2: "Ligature Substitution lookup 20 subtable" l periodcentered
EndChar

StartChar: lslash
Encoding: 322 322 162
Width: 249
Flags: MW
HStem: -10 77<70.5 151.5> -10 740<70.5 192.5> 675 55
VStem: 43 87<20.5 94> 123 93<631.5 717.5>
LayerCount: 2
Fore
SplineSet
169 409 m 1x50
 150 283 132 153 130 94 c 0
 130 83 131 67 149 67 c 0
 154 67 173 69 190 80 c 1
 202 60 l 1
 160 16 114 -10 82 -10 c 0
 59 -10 43 5 43 36 c 0
 43 62 65 207 86 352 c 1
 17 299 l 1
 24 346 l 1x90
 93 399 l 1
 109 510 123 612 123 651 c 0
 123 667 110 675 90 675 c 0
 83 675 75 675 66 673 c 1
 60 698 l 1
 106 720 149 730 183 730 c 0
 202 730 216 727 216 708 c 0x28
 216 691 203 625 189 539 c 2
 176 456 l 1
 249 513 l 1
 242 465 l 1x48
 169 409 l 1x50
EndSplineSet
EndChar

StartChar: m
Encoding: 109 109 163
Width: 761
Flags: MW
HStem: -10 77<599.5 682> 373 53 375 55<314 335 576.5 596.5> 406 20G<132.5 160>
VStem: 98 90<309.5 415> 360 81<329 342.5> 578 82<21 108> 626 82<308 339.5>
LayerCount: 2
Fore
SplineSet
728 60 m 1xa6
 686 16 639 -10 610 -10 c 0
 589 -10 578 7 578 35 c 0xa6
 578 90 626 256 626 324 c 0
 626 355 610 375 583 375 c 0
 521 375 434 229 406 113 c 1
 392 0 l 1
 314 0 l 1
 331 100 360 267 360 328 c 0
 360 357 346 375 324 375 c 0x2d
 264 375 177 240 144 127 c 1
 144 125 l 1
 129 0 l 1
 51 0 l 1
 68 103 98 278 98 341 c 0
 98 361 89 373 69 373 c 0
 64 373 57 372 53 371 c 1x4d
 48 400 l 1
 79 413 114 426 151 426 c 0
 169 426 188 423 188 407 c 0x1d
 188 390 170 299 159 230 c 1
 200 324 268 430 360 430 c 0
 407 430 441 393 441 340 c 0
 441 318 436 285 429 250 c 1
 471 339 534 430 619 430 c 0
 674 430 708 393 708 340 c 0x2d
 708 276 660 126 660 90 c 0
 660 83 662 67 679 67 c 0
 685 67 699 69 716 80 c 1
 728 60 l 1xa6
EndSplineSet
EndChar

StartChar: n
Encoding: 110 110 164
Width: 504
Flags: MW
HStem: -10 77<344 425> 373 53 375 55<315 339.5> 406 20G<132.5 160>
VStem: 98 90<309.5 415> 321 82<21 108> 369 82<308 339.5>
LayerCount: 2
Fore
SplineSet
471 60 m 1xa4
 429 16 382 -10 353 -10 c 0
 335 -10 321 7 321 35 c 0xa4
 321 90 369 256 369 324 c 0
 369 355 353 375 326 375 c 0x2a
 264 375 173 229 143 114 c 1
 129 0 l 1
 51 0 l 1
 68 103 98 278 98 341 c 0
 98 361 89 373 69 373 c 0
 64 373 57 372 53 371 c 1x4a
 48 400 l 1
 79 413 114 426 151 426 c 0
 169 426 188 423 188 407 c 0x1a
 188 389 169 292 158 222 c 1
 198 318 268 430 362 430 c 0
 417 430 451 393 451 340 c 0x2a
 451 276 403 126 403 90 c 0
 403 83 405 67 422 67 c 0
 428 67 442 69 459 80 c 1
 471 60 l 1xa4
EndSplineSet
EndChar

StartChar: nacute
Encoding: 324 324 165
Width: 504
Flags: MW
HStem: -10 77<344 425> 373 53 375 55<315 339.5> 406 20G<132.5 160>
VStem: 98 90<309.5 415> 321 82<21 108> 369 82<308 339.5>
LayerCount: 2
Fore
SplineSet
349 632 m 2x22
 364 648 369 653 384 653 c 0
 408 653 438 635 438 627 c 0
 438 622 432 618 428 615 c 2
 257 502 l 2
 253 499 244 493 236 493 c 0
 226 493 222 496 222 500 c 0
 222 505 232 514 242 524 c 2
 349 632 l 2x22
471 60 m 1xa4
 429 16 382 -10 353 -10 c 0
 335 -10 321 7 321 35 c 0xa4
 321 90 369 256 369 324 c 0
 369 355 353 375 326 375 c 0x2a
 264 375 173 229 143 114 c 1
 129 0 l 1
 51 0 l 1
 68 103 98 278 98 341 c 0
 98 361 89 373 69 373 c 0
 64 373 57 372 53 371 c 1x4a
 48 400 l 1
 79 413 114 426 151 426 c 0
 169 426 188 423 188 407 c 0x1a
 188 389 169 292 158 222 c 1
 198 318 268 430 362 430 c 0
 417 430 451 393 451 340 c 0x2a
 451 276 403 126 403 90 c 0
 403 83 405 67 422 67 c 0
 428 67 442 69 459 80 c 1
 471 60 l 1xa4
EndSplineSet
EndChar

StartChar: ncaron
Encoding: 328 328 166
Width: 504
Flags: MW
HStem: -10 77<344 425> 373 53 375 55<315 339.5> 406 20G<132.5 160>
VStem: 98 90<309.5 415> 321 82<21 108> 369 82<308 339.5>
LayerCount: 2
Fore
SplineSet
418 645 m 2x22
 427 650 439 657 447 657 c 0
 456 657 458 653 458 650 c 0
 458 642 418 618 372 574 c 2
 322 526 l 2
 306 511 293 501 288 501 c 0
 285 501 274 510 262 526 c 2
 226 574 l 2
 192 620 161 641 161 649 c 0
 161 651 163 657 174 657 c 0
 181 657 194 650 201 645 c 2
 298 572 l 1
 418 645 l 2x22
471 60 m 1xa4
 429 16 382 -10 353 -10 c 0
 335 -10 321 7 321 35 c 0xa4
 321 90 369 256 369 324 c 0
 369 355 353 375 326 375 c 0x2a
 264 375 173 229 143 114 c 1
 129 0 l 1
 51 0 l 1
 68 103 98 278 98 341 c 0
 98 361 89 373 69 373 c 0
 64 373 57 372 53 371 c 1x4a
 48 400 l 1
 79 413 114 426 151 426 c 0
 169 426 188 423 188 407 c 0x1a
 188 389 169 292 158 222 c 1
 198 318 268 430 362 430 c 0
 417 430 451 393 451 340 c 0x2a
 451 276 403 126 403 90 c 0
 403 83 405 67 422 67 c 0
 428 67 442 69 459 80 c 1
 471 60 l 1xa4
EndSplineSet
EndChar

StartChar: ncommaaccent
Encoding: 326 326 167
Width: 504
Flags: MW
HStem: -111 77<180 232.5> -10 77<344 425> 373 53 375 55<315 339.5> 406 20G<132.5 160>
VStem: 98 90<309.5 415> 212 56 321 82<21 108> 369 82<308 339.5>
LayerCount: 2
Fore
SplineSet
471 60 m 1x53
 429 16 382 -10 353 -10 c 0
 335 -10 321 7 321 35 c 0x53
 321 90 369 256 369 324 c 0
 369 355 353 375 326 375 c 0x1680
 264 375 173 229 143 114 c 1
 129 0 l 1
 51 0 l 1
 68 103 98 278 98 341 c 0
 98 361 89 373 69 373 c 0
 64 373 57 372 53 371 c 1x2680
 48 400 l 1
 79 413 114 426 151 426 c 0
 169 426 188 423 188 407 c 0x0e80
 188 389 169 292 158 222 c 1
 198 318 268 430 362 430 c 0
 417 430 451 393 451 340 c 0x1680
 451 276 403 126 403 90 c 0
 403 83 405 67 422 67 c 0
 428 67 442 69 459 80 c 1
 471 60 l 1x53
155 -200 m 1x9280
 183 -185 210 -158 212 -140 c 0
 215 -117 202 -111 188 -111 c 0
 172 -111 162 -97 162 -81 c 0
 162 -59 181 -34 215 -34 c 0
 250 -34 268 -59 268 -87 c 0
 268 -144 216 -192 169 -213 c 1
 155 -200 l 1x9280
EndSplineSet
EndChar

StartChar: ntilde
Encoding: 241 241 168
Width: 504
Flags: MW
HStem: -10 77<344 425> 373 53 375 55<315 339.5> 406 20G<132.5 160> 529 49<366.5 386.5> 572 49<209.5 230>
VStem: 98 90<309.5 415> 151 20<530 530> 321 82<21 108> 369 82<308 339.5> 425 20<620 620>
LayerCount: 2
Fore
SplineSet
151 530 m 1x2540
 158 579 191 621 228 621 c 0x2540
 271 621 347 578 386 578 c 0
 405 578 422 596 425 620 c 1
 445 620 l 1
 438 571 405 529 368 529 c 0x2920
 324 529 250 572 210 572 c 0
 191 572 175 554 171 530 c 1
 151 530 l 1x2540
471 60 m 1xa580
 429 16 382 -10 353 -10 c 0
 335 -10 321 7 321 35 c 0xa580
 321 90 369 256 369 324 c 0
 369 355 353 375 326 375 c 0x2640
 264 375 173 229 143 114 c 1
 129 0 l 1
 51 0 l 1
 68 103 98 278 98 341 c 0
 98 361 89 373 69 373 c 0
 64 373 57 372 53 371 c 1x4640
 48 400 l 1
 79 413 114 426 151 426 c 0
 169 426 188 423 188 407 c 0x1640
 188 389 169 292 158 222 c 1
 198 318 268 430 362 430 c 0
 417 430 451 393 451 340 c 0x2640
 451 276 403 126 403 90 c 0
 403 83 405 67 422 67 c 0
 428 67 442 69 459 80 c 1
 471 60 l 1xa580
EndSplineSet
EndChar

StartChar: o
Encoding: 111 111 169
Width: 451
Flags: MW
HStem: -10 32<168.5 222 168.5 253.5> 398 32<230.5 282.5>
VStem: 28 88<109.5 170 106.5 226.5> 335 88<252.5 310.5 193.5 313.5>
LayerCount: 2
Fore
SplineSet
272 430 m 0
 382 430 423 357 423 264 c 0
 423 123 328 -10 179 -10 c 0
 69 -10 28 63 28 156 c 0
 28 297 123 430 272 430 c 0
258 398 m 0
 203 398 162 345 140 285 c 0
 124 241 116 192 116 148 c 0
 116 65 144 22 193 22 c 0
 251 22 295 81 317 152 c 0
 329 191 335 233 335 272 c 0
 335 355 307 398 258 398 c 0
EndSplineSet
Substitution2: "Single Substitution lookup 21 subtable" ordmasculine
Substitution2: "'aalt' Access All Alternates lookup 0 subtable" ordmasculine
EndChar

StartChar: oacute
Encoding: 243 243 170
Width: 451
Flags: MW
HStem: -10 32<168.5 222 168.5 253.5> 398 32<230.5 282.5>
VStem: 28 88<109.5 170 106.5 226.5> 335 88<252.5 310.5 193.5 313.5>
LayerCount: 2
Fore
SplineSet
344 632 m 2
 359 648 364 653 379 653 c 0
 403 653 433 635 433 627 c 0
 433 622 427 618 423 615 c 2
 252 502 l 2
 248 499 239 493 231 493 c 0
 221 493 217 496 217 500 c 0
 217 505 227 514 237 524 c 2
 344 632 l 2
272 430 m 0
 382 430 423 357 423 264 c 0
 423 123 328 -10 179 -10 c 0
 69 -10 28 63 28 156 c 0
 28 297 123 430 272 430 c 0
258 398 m 0
 203 398 162 345 140 285 c 0
 124 241 116 192 116 148 c 0
 116 65 144 22 193 22 c 0
 251 22 295 81 317 152 c 0
 329 191 335 233 335 272 c 0
 335 355 307 398 258 398 c 0
EndSplineSet
EndChar

StartChar: ocircumflex
Encoding: 244 244 171
Width: 451
Flags: MW
HStem: -10 32<168.5 222 168.5 253.5> 398 32<230.5 282.5>
VStem: 28 88<109.5 170 106.5 226.5> 335 88<252.5 310.5 193.5 313.5>
LayerCount: 2
Fore
SplineSet
174 505 m 2
 165 500 153 493 145 493 c 0
 136 493 134 497 134 500 c 0
 134 508 174 532 220 576 c 2
 270 624 l 2
 286 639 299 649 304 649 c 0
 307 649 318 640 330 624 c 2
 366 576 l 2
 400 530 431 509 431 501 c 0
 431 499 429 493 418 493 c 0
 411 493 398 500 391 505 c 2
 294 578 l 1
 174 505 l 2
272 430 m 0
 382 430 423 357 423 264 c 0
 423 123 328 -10 179 -10 c 0
 69 -10 28 63 28 156 c 0
 28 297 123 430 272 430 c 0
258 398 m 0
 203 398 162 345 140 285 c 0
 124 241 116 192 116 148 c 0
 116 65 144 22 193 22 c 0
 251 22 295 81 317 152 c 0
 329 191 335 233 335 272 c 0
 335 355 307 398 258 398 c 0
EndSplineSet
EndChar

StartChar: odieresis
Encoding: 246 246 172
Width: 451
Flags: MW
HStem: -10 32<168.5 222 168.5 253.5> 398 32<230.5 282.5> 548 95<199 220 373 394>
VStem: 28 88<109.5 170 106.5 226.5> 154 109<585 605.5> 328 109<585 605.5> 335 88<252.5 310.5 193.5 313.5>
LayerCount: 2
Fore
SplineSet
216 643 m 0xfa
 245 643 263 627 263 602 c 0
 263 568 238 548 202 548 c 0
 174 548 154 563 154 589 c 0
 154 622 182 643 216 643 c 0xfa
390 643 m 0xfc
 419 643 437 627 437 602 c 0
 437 568 412 548 376 548 c 0
 348 548 328 563 328 589 c 0
 328 622 356 643 390 643 c 0xfc
272 430 m 0xfa
 382 430 423 357 423 264 c 0
 423 123 328 -10 179 -10 c 0
 69 -10 28 63 28 156 c 0
 28 297 123 430 272 430 c 0xfa
258 398 m 0
 203 398 162 345 140 285 c 0
 124 241 116 192 116 148 c 0
 116 65 144 22 193 22 c 0
 251 22 295 81 317 152 c 0
 329 191 335 233 335 272 c 0
 335 355 307 398 258 398 c 0
EndSplineSet
EndChar

StartChar: ograve
Encoding: 242 242 173
Width: 451
Flags: MW
HStem: -10 32<168.5 222 168.5 253.5> 398 32<230.5 282.5>
VStem: 28 88<109.5 170 106.5 226.5> 335 88<252.5 310.5 193.5 313.5>
LayerCount: 2
Fore
SplineSet
174 615 m 2
 171 618 168 621 168 626 c 0
 168 635 203 653 228 653 c 0
 243 653 245 648 257 632 c 2
 339 518 l 2
 344 510 348 504 348 501 c 0
 348 496 343 493 331 493 c 0
 323 493 316 499 313 502 c 2
 174 615 l 2
272 430 m 0
 382 430 423 357 423 264 c 0
 423 123 328 -10 179 -10 c 0
 69 -10 28 63 28 156 c 0
 28 297 123 430 272 430 c 0
258 398 m 0
 203 398 162 345 140 285 c 0
 124 241 116 192 116 148 c 0
 116 65 144 22 193 22 c 0
 251 22 295 81 317 152 c 0
 329 191 335 233 335 272 c 0
 335 355 307 398 258 398 c 0
EndSplineSet
EndChar

StartChar: ohungarumlaut
Encoding: 337 337 174
Width: 451
Flags: MW
HStem: -10 32<168.5 222 168.5 253.5> 398 32<230.5 282.5> 644 9
VStem: 28 88<109.5 170 106.5 226.5> 335 88<252.5 310.5 193.5 313.5>
LayerCount: 2
Fore
SplineSet
286 653 m 0
 306 653 335 637 335 628 c 0
 335 626 332 622 326 616 c 0
 318 607 302 592 200 499 c 0
 196 495 189 493 183 493 c 0
 176 493 173 496 173 500 c 0
 173 503 174 506 177 510 c 0
 253 622 265 637 270 644 c 0
 276 652 279 653 286 653 c 0
398 653 m 0
 417 653 446 639 446 629 c 0
 446 627 444 623 438 616 c 0
 430 607 409 586 312 499 c 0
 306 494 300 493 295 493 c 0
 288 493 284 497 284 500 c 0
 284 503 286 506 288 510 c 0
 358 606 382 644 382 644 c 1
 389 652 391 653 398 653 c 0
272 430 m 0
 382 430 423 357 423 264 c 0
 423 123 328 -10 179 -10 c 0
 69 -10 28 63 28 156 c 0
 28 297 123 430 272 430 c 0
258 398 m 0
 203 398 162 345 140 285 c 0
 124 241 116 192 116 148 c 0
 116 65 144 22 193 22 c 0
 251 22 295 81 317 152 c 0
 329 191 335 233 335 272 c 0
 335 355 307 398 258 398 c 0
EndSplineSet
EndChar

StartChar: omacron
Encoding: 333 333 175
Width: 451
Flags: MW
HStem: -10 32<168.5 222 168.5 253.5> 398 32<230.5 282.5> 567 40<177 413 171 419>
VStem: 28 88<109.5 170 106.5 226.5> 335 88<252.5 310.5 193.5 313.5>
LayerCount: 2
Fore
SplineSet
413 567 m 1
 171 567 l 1
 177 607 l 1
 419 607 l 1
 413 567 l 1
272 430 m 0
 382 430 423 357 423 264 c 0
 423 123 328 -10 179 -10 c 0
 69 -10 28 63 28 156 c 0
 28 297 123 430 272 430 c 0
258 398 m 0
 203 398 162 345 140 285 c 0
 124 241 116 192 116 148 c 0
 116 65 144 22 193 22 c 0
 251 22 295 81 317 152 c 0
 329 191 335 233 335 272 c 0
 335 355 307 398 258 398 c 0
EndSplineSet
EndChar

StartChar: oslash
Encoding: 248 248 176
Width: 459
Flags: MW
HStem: -10 32<182.5 222 182.5 253.5> 398 32<230.5 270.5>
VStem: 28 88<136 170 136 226.5> 335 88<252.5 281>
LayerCount: 2
Fore
SplineSet
381 391 m 1
 410 361 423 315 423 264 c 0
 423 123 328 -10 179 -10 c 0
 153 -10 132 -6 113 1 c 1
 54 -85 l 1
 18 -67 l 1
 79 21 l 1
 43 51 28 100 28 156 c 0
 28 297 123 430 272 430 c 0
 303 430 328 424 349 414 c 1
 411 504 l 1
 443 482 l 1
 381 391 l 1
315 365 m 1
 302 387 283 398 258 398 c 0
 203 398 162 345 140 285 c 0
 124 241 116 192 116 148 c 0
 116 124 118 103 123 86 c 1
 315 365 l 1
143 45 m 1
 156 30 172 22 193 22 c 0
 251 22 295 81 317 152 c 0
 329 191 335 233 335 272 c 0
 335 290 334 305 331 319 c 1
 143 45 l 1
EndSplineSet
EndChar

StartChar: otilde
Encoding: 245 245 177
Width: 451
Flags: MW
HStem: -10 32<168.5 222 168.5 253.5> 398 32<230.5 282.5> 529 49<361.5 381.5> 572 49<204.5 225>
VStem: 28 88<109.5 170 106.5 226.5> 146 20<530 530> 335 88<252.5 310.5 193.5 313.5> 420 20<620 620>
LayerCount: 2
Fore
SplineSet
146 530 m 1xde
 153 579 186 621 223 621 c 0xde
 266 621 342 578 381 578 c 0
 400 578 417 596 420 620 c 1
 440 620 l 1
 433 571 400 529 363 529 c 0xe9
 319 529 245 572 205 572 c 0
 186 572 170 554 166 530 c 1
 146 530 l 1xde
272 430 m 0xda
 382 430 423 357 423 264 c 0
 423 123 328 -10 179 -10 c 0
 69 -10 28 63 28 156 c 0
 28 297 123 430 272 430 c 0xda
258 398 m 0
 203 398 162 345 140 285 c 0
 124 241 116 192 116 148 c 0
 116 65 144 22 193 22 c 0
 251 22 295 81 317 152 c 0
 329 191 335 233 335 272 c 0
 335 355 307 398 258 398 c 0
EndSplineSet
EndChar

StartChar: oe
Encoding: 339 339 178
Width: 699
Flags: MW
HStem: -12 54<470 499.5> -10 32<168.5 213> 178 32 397 30<538 582> 398 32<230.5 282.5>
VStem: 28 88<109.5 170 106.5 226.5> 335 85 619 71<303.5 350.5>
LayerCount: 2
Fore
SplineSet
646 81 m 1xb7
 597 30 532 -12 467 -12 c 0x8f
 413 -12 369 15 345 61 c 1
 303 18 247 -10 179 -10 c 0
 69 -10 28 63 28 156 c 0
 28 297 123 430 272 430 c 0x4f
 345 430 388 398 408 348 c 1
 451 396 506 427 564 427 c 0
 638 427 690 382 690 329 c 0
 690 263 616 192 416 178 c 1
 415 169 415 160 415 151 c 0
 415 83 448 42 492 42 c 0
 527 42 572 64 624 97 c 1
 646 81 l 1xb7
193 22 m 0x4f
 251 22 295 81 317 152 c 0
 329 191 335 233 335 272 c 0
 335 355 307 398 258 398 c 0
 203 398 162 345 140 285 c 0
 124 241 116 192 116 148 c 0
 116 65 144 22 193 22 c 0x4f
562 397 m 0x77
 514 397 478 363 453 316 c 0
 437 284 425 247 420 210 c 1
 551 220 619 272 619 335 c 0
 619 366 602 397 562 397 c 0x77
EndSplineSet
EndChar

StartChar: p
Encoding: 112 112 179
Width: 472
Flags: MW
HStem: -239 24<7 7 104 107> -10 30<201 252.5 201 284> 373 53 375 55<318.5 325.5> 406 20G<128.5 156>
VStem: 94 90<314.5 415> 361 89<263.5 308>
LayerCount: 2
Fore
SplineSet
44 400 m 1xe6
 75 413 110 426 147 426 c 0
 165 426 184 423 184 407 c 0xce
 184 390 168 306 156 238 c 1
 218 378 289 430 348 430 c 0xd6
 411 430 450 378 450 300 c 0
 450 161 350 -10 218 -10 c 0
 177 -10 144 7 126 30 c 1
 112 -68 99 -168 98 -203 c 0
 98 -211 101 -215 107 -215 c 2
 170 -213 l 1
 166 -239 l 1
 -28 -239 l 1
 -24 -213 l 1
 7 -215 l 1
 15 -214 19 -208 21 -195 c 0
 38 -92 94 288 94 341 c 0
 94 361 85 373 65 373 c 0
 60 373 53 372 49 371 c 1
 44 400 l 1xe6
349 182 m 0xd2
 358 217 361 251 361 276 c 0
 361 340 339 375 312 375 c 0
 255 375 137 192 137 94 c 0
 137 30 188 20 214 20 c 0
 291 20 331 103 349 182 c 0xd2
EndSplineSet
EndChar

StartChar: thorn
Encoding: 254 254 180
Width: 460
Flags: MW
HStem: -239 24<-5 -5 92 95> -10 30<189 227.5 189 272> 375 55<306 313.5> 675 55
VStem: 121 93<590 717.5> 349 89<254 308>
LayerCount: 2
Fore
SplineSet
58 698 m 1
 106 722 152 730 176 730 c 0
 200 730 214 727 214 708 c 0
 214 692 184 524 175 464 c 2
 142 232 l 1
 204 376 276 430 336 430 c 0
 399 430 438 378 438 300 c 0
 438 161 338 -10 206 -10 c 0
 165 -10 131 7 114 31 c 1
 100 -67 87 -171 86 -203 c 0
 86 -211 89 -215 95 -215 c 2
 158 -213 l 1
 154 -239 l 1
 -40 -239 l 1
 -36 -213 l 1
 -5 -215 l 1
 3 -214 7 -208 9 -195 c 0
 35 -13 121 529 121 651 c 0
 121 667 108 675 88 675 c 0
 81 675 73 675 64 673 c 1
 58 698 l 1
311 103 m 0
 338 160 349 232 349 276 c 0
 349 340 327 375 300 375 c 0
 243 375 125 192 125 94 c 0
 125 30 176 20 202 20 c 0
 253 20 288 56 311 103 c 0
EndSplineSet
EndChar

StartChar: q
Encoding: 113 113 181
Width: 452
Flags: MW
HStem: -239 24<248 248 349 352> -10 55<146.5 153> 400 30<220 270>
VStem: 23 89<112 157 112 190>
LayerCount: 2
Fore
SplineSet
439 428 m 1
 386 222 343 -167 343 -202 c 0
 343 -211 346 -215 352 -215 c 2
 415 -213 l 1
 411 -239 l 1
 213 -239 l 1
 217 -213 l 1
 248 -215 l 1
 256 -214 260 -208 262 -195 c 0
 279 -69 293 57 315 183 c 1
 253 43 183 -10 123 -10 c 0
 62 -10 23 42 23 120 c 0
 23 260 123 430 253 430 c 0
 295 430 324 414 341 390 c 1
 347 411 l 1
 439 428 l 1
159 45 m 0
 216 45 334 228 334 326 c 0
 334 390 283 400 257 400 c 0
 183 400 142 319 124 242 c 0
 116 205 112 170 112 144 c 0
 112 80 134 45 159 45 c 0
EndSplineSet
EndChar

StartChar: r
Encoding: 114 114 182
Width: 368
Flags: MW
HStem: 373 53 380 50<275 288.5> 406 20G<132.5 160>
VStem: 98 90<309.5 415> 301 74<357.5 367.5>
LayerCount: 2
Fore
SplineSet
48 400 m 1x98
 79 413 114 426 151 426 c 0
 169 426 188 423 188 407 c 0x38
 188 392 174 319 163 255 c 1
 196 340 243 430 307 430 c 0
 349 430 375 394 375 358 c 0
 375 331 360 298 323 298 c 0
 302 298 289 308 289 326 c 0
 289 343 301 352 301 363 c 0
 301 372 294 380 283 380 c 0x58
 234 380 164 219 141 96 c 1
 129 0 l 1
 51 0 l 1
 68 103 98 278 98 341 c 0
 98 361 89 373 69 373 c 0
 64 373 57 372 53 371 c 1
 48 400 l 1x98
EndSplineSet
EndChar

StartChar: racute
Encoding: 341 341 183
Width: 368
Flags: MW
HStem: 373 53 380 50<275 288.5> 406 20G<132.5 160>
VStem: 98 90<309.5 415> 301 74<357.5 367.5>
LayerCount: 2
Fore
SplineSet
237 632 m 2x58
 252 648 257 653 272 653 c 0
 296 653 326 635 326 627 c 0
 326 622 320 618 316 615 c 2
 145 502 l 2
 141 499 132 493 124 493 c 0
 114 493 110 496 110 500 c 0
 110 505 120 514 130 524 c 2
 237 632 l 2x58
48 400 m 1x98
 79 413 114 426 151 426 c 0
 169 426 188 423 188 407 c 0x38
 188 392 174 319 163 255 c 1
 196 340 243 430 307 430 c 0
 349 430 375 394 375 358 c 0
 375 331 360 298 323 298 c 0
 302 298 289 308 289 326 c 0
 289 343 301 352 301 363 c 0
 301 372 294 380 283 380 c 0x58
 234 380 164 219 141 96 c 1
 129 0 l 1
 51 0 l 1
 68 103 98 278 98 341 c 0
 98 361 89 373 69 373 c 0
 64 373 57 372 53 371 c 1
 48 400 l 1x98
EndSplineSet
EndChar

StartChar: rcaron
Encoding: 345 345 184
Width: 368
Flags: MW
HStem: 373 53 380 50<275 288.5> 406 20G<132.5 160>
VStem: 98 90<309.5 415> 301 74<357.5 367.5>
LayerCount: 2
Fore
SplineSet
306 645 m 2x58
 315 650 327 657 335 657 c 0
 344 657 346 653 346 650 c 0
 346 642 306 618 260 574 c 2
 210 526 l 2
 194 511 181 501 176 501 c 0
 173 501 162 510 150 526 c 2
 114 574 l 2
 80 620 49 641 49 649 c 0
 49 651 51 657 62 657 c 0
 69 657 82 650 89 645 c 2
 186 572 l 1
 306 645 l 2x58
48 400 m 1x98
 79 413 114 426 151 426 c 0
 169 426 188 423 188 407 c 0x38
 188 392 174 319 163 255 c 1
 196 340 243 430 307 430 c 0
 349 430 375 394 375 358 c 0
 375 331 360 298 323 298 c 0
 302 298 289 308 289 326 c 0
 289 343 301 352 301 363 c 0
 301 372 294 380 283 380 c 0x58
 234 380 164 219 141 96 c 1
 129 0 l 1
 51 0 l 1
 68 103 98 278 98 341 c 0
 98 361 89 373 69 373 c 0
 64 373 57 372 53 371 c 1
 48 400 l 1x98
EndSplineSet
EndChar

StartChar: rcommaaccent
Encoding: 343 343 185
Width: 368
Flags: MW
HStem: -111 77<61 113.5> 373 53 380 50<275 288.5> 406 20G<132.5 160>
VStem: 93 56 98 90<309.5 415> 301 74<357.5 367.5>
LayerCount: 2
Fore
SplineSet
48 400 m 1xc6
 79 413 114 426 151 426 c 0
 169 426 188 423 188 407 c 0x96
 188 392 174 319 163 255 c 1
 196 340 243 430 307 430 c 0
 349 430 375 394 375 358 c 0
 375 331 360 298 323 298 c 0
 302 298 289 308 289 326 c 0
 289 343 301 352 301 363 c 0
 301 372 294 380 283 380 c 0xa6
 234 380 164 219 141 96 c 1
 129 0 l 1
 51 0 l 1
 68 103 98 278 98 341 c 0
 98 361 89 373 69 373 c 0
 64 373 57 372 53 371 c 1
 48 400 l 1xc6
36 -200 m 1xaa
 64 -185 91 -158 93 -140 c 0
 96 -117 83 -111 69 -111 c 0
 53 -111 43 -97 43 -81 c 0
 43 -59 62 -34 96 -34 c 0
 131 -34 149 -59 149 -87 c 0
 149 -144 97 -192 50 -213 c 1
 36 -200 l 1xaa
EndSplineSet
EndChar

StartChar: s
Encoding: 115 115 186
Width: 352
Flags: MW
HStem: -10 27<116 165.5 116 186> 403 27<179.5 226.5>
VStem: -7 76<56 67.5 46 98> 37 79<329 336.5> 238 80<78 91> 269 76<352.5 365 325 374.5>
LayerCount: 2
Fore
SplineSet
292 287 m 0xd4
 272 287 256 299 256 313 c 0
 256 333 269 343 269 362 c 0xd4
 269 387 246 403 207 403 c 0
 152 403 116 370 116 329 c 0xd8
 118 237 318 238 318 121 c 0
 318 35 234 -10 138 -10 c 0
 48 -10 -7 31 -7 81 c 0
 -7 115 14 137 45 137 c 0
 66 137 84 125 84 111 c 0
 84 91 69 77 69 58 c 0xe8
 69 34 91 17 141 17 c 0
 190 17 238 39 238 91 c 1xd8
 236 178 37 175 37 298 c 0
 37 375 118 430 208 430 c 0
 289 430 345 389 345 341 c 0
 345 309 324 287 292 287 c 0xd4
EndSplineSet
EndChar

StartChar: sacute
Encoding: 347 347 187
Width: 352
Flags: MW
HStem: -10 27<116 165.5 116 186> 403 27<179.5 226.5>
VStem: -7 76<56 67.5 46 98> 37 79<329 336.5> 238 80<78 91> 269 76<352.5 365 325 374.5>
LayerCount: 2
Fore
SplineSet
277 632 m 2xd8
 292 648 297 653 312 653 c 0
 336 653 366 635 366 627 c 0
 366 622 360 618 356 615 c 2
 185 502 l 2
 181 499 172 493 164 493 c 0
 154 493 150 496 150 500 c 0
 150 505 160 514 170 524 c 2
 277 632 l 2xd8
292 287 m 0xd4
 272 287 256 299 256 313 c 0
 256 333 269 343 269 362 c 0xd4
 269 387 246 403 207 403 c 0
 152 403 116 370 116 329 c 0xd8
 118 237 318 238 318 121 c 0
 318 35 234 -10 138 -10 c 0
 48 -10 -7 31 -7 81 c 0
 -7 115 14 137 45 137 c 0
 66 137 84 125 84 111 c 0
 84 91 69 77 69 58 c 0xe8
 69 34 91 17 141 17 c 0
 190 17 238 39 238 91 c 1xd8
 236 178 37 175 37 298 c 0
 37 375 118 430 208 430 c 0
 289 430 345 389 345 341 c 0
 345 309 324 287 292 287 c 0xd4
EndSplineSet
EndChar

StartChar: scaron
Encoding: 353 353 188
Width: 352
Flags: MW
HStem: -10 27<116 165.5 116 186> 403 27<179.5 226.5>
VStem: -7 76<56 67.5 46 98> 37 79<329 336.5> 238 80<78 91> 269 76<352.5 365 325 374.5>
LayerCount: 2
Fore
SplineSet
346 645 m 2xd8
 355 650 367 657 375 657 c 0
 384 657 386 653 386 650 c 0
 386 642 346 618 300 574 c 2
 250 526 l 2
 234 511 221 501 216 501 c 0
 213 501 202 510 190 526 c 2
 154 574 l 2
 120 620 89 641 89 649 c 0
 89 651 91 657 102 657 c 0
 109 657 122 650 129 645 c 2
 226 572 l 1
 346 645 l 2xd8
292 287 m 0xd4
 272 287 256 299 256 313 c 0
 256 333 269 343 269 362 c 0xd4
 269 387 246 403 207 403 c 0
 152 403 116 370 116 329 c 0xd8
 118 237 318 238 318 121 c 0
 318 35 234 -10 138 -10 c 0
 48 -10 -7 31 -7 81 c 0
 -7 115 14 137 45 137 c 0
 66 137 84 125 84 111 c 0
 84 91 69 77 69 58 c 0xe8
 69 34 91 17 141 17 c 0
 190 17 238 39 238 91 c 1xd8
 236 178 37 175 37 298 c 0
 37 375 118 430 208 430 c 0
 289 430 345 389 345 341 c 0
 345 309 324 287 292 287 c 0xd4
EndSplineSet
EndChar

StartChar: scedilla
Encoding: 351 351 189
Width: 352
Flags: MW
HStem: -214 27<83.5 85.5 63.5 125.5> -9 26<119 119> 403 27<179.5 226.5>
VStem: -7 76<58 67.5 46 98> 37 79<329 336.5> 73 49<-68.5 -64> 128 68<-143.5 -122.5> 238 80<80.5 91> 269 76<352.5 365 325 374.5>
LayerCount: 2
Fore
SplineSet
119 -9 m 1xf3
 40 -4 -7 35 -7 81 c 0
 -7 115 14 137 45 137 c 0
 66 137 84 125 84 111 c 0
 84 91 69 77 69 58 c 0xf3
 69 34 91 17 141 17 c 0
 190 17 238 39 238 91 c 1xeb
 236 178 37 175 37 298 c 0
 37 375 118 430 208 430 c 0
 289 430 345 389 345 341 c 0
 345 309 324 287 292 287 c 0
 272 287 256 299 256 313 c 0
 256 333 269 343 269 362 c 0xea80
 269 387 246 403 207 403 c 0
 152 403 116 370 116 329 c 0xeb
 118 237 318 238 318 121 c 0
 318 40 244 -4 155 -10 c 1
 131 -43 l 2
 125 -51 122 -59 122 -63 c 0xe5
 122 -85 196 -73 196 -117 c 0
 196 -170 159 -214 92 -214 c 0
 75 -214 47 -213 26 -198 c 1
 38 -171 l 1
 45 -182 57 -187 70 -187 c 0
 101 -187 128 -161 128 -130 c 0
 128 -115 115 -103 103 -94 c 2xf3
 83 -80 l 2
 77 -76 73 -71 73 -66 c 0
 73 -62 75 -58 82 -52 c 1xe5
 119 -9 l 1xf3
EndSplineSet
EndChar

StartChar: scommaaccent
Encoding: 537 537 190
Width: 352
Flags: MW
HStem: -111 77<97 149.5> -10 27<116 165.5 116 186> 403 27<179.5 226.5>
VStem: -7 76<56 67.5 46 98> 37 79<329 336.5> 129 56 238 80<78 91> 269 76<352.5 365 325 374.5>
LayerCount: 2
Fore
SplineSet
292 287 m 0x69
 272 287 256 299 256 313 c 0
 256 333 269 343 269 362 c 0x69
 269 387 246 403 207 403 c 0
 152 403 116 370 116 329 c 0x6a
 118 237 318 238 318 121 c 0
 318 35 234 -10 138 -10 c 0
 48 -10 -7 31 -7 81 c 0
 -7 115 14 137 45 137 c 0
 66 137 84 125 84 111 c 0
 84 91 69 77 69 58 c 0x72
 69 34 91 17 141 17 c 0
 190 17 238 39 238 91 c 1x6a
 236 178 37 175 37 298 c 0
 37 375 118 430 208 430 c 0
 289 430 345 389 345 341 c 0
 345 309 324 287 292 287 c 0x69
72 -200 m 1xee
 100 -185 127 -158 129 -140 c 0
 132 -117 119 -111 105 -111 c 0
 89 -111 79 -97 79 -81 c 0
 79 -59 98 -34 132 -34 c 0
 167 -34 185 -59 185 -87 c 0
 185 -144 133 -192 86 -213 c 1
 72 -200 l 1xee
EndSplineSet
EndChar

StartChar: germandbls
Encoding: 223 223 191
Width: 558
Flags: MW
HStem: -245 27<-38.5 2.5 -38.5 26.5> -10 27<338 385.5 338 398.5> 703 27<325.5 377.5>
VStem: -136 76<-198.5 -187.5 -201 -167.5> 225 73<55.5 67.5 45.5 93> 270 76<376.5 442> 428 74<600.5 650.5> 445 77<95.5 165>
LayerCount: 2
Fore
SplineSet
121 440 m 2xf5
 139 601 222 730 365 730 c 0
 450 730 502 684 502 624 c 0xf6
 502 566 454 538 411 510 c 0
 377 487 346 463 346 424 c 0xf5
 346 329 522 289 522 144 c 0
 522 47 444 -10 353 -10 c 0
 275 -10 225 31 225 80 c 0
 225 106 240 137 279 137 c 0
 298 137 311 130 311 111 c 0
 311 91 298 78 298 57 c 0xf9
 298 34 314 17 362 17 c 0
 409 17 445 33 445 96 c 0xf5
 445 234 270 265 270 400 c 0
 270 484 338 498 384 534 c 0
 409 553 428 578 428 623 c 0
 428 678 399 703 356 703 c 0xf6
 295 703 231 653 209 454 c 2
 170 102 l 2
 148 -94 90 -245 -37 -245 c 0
 -89 -245 -136 -219 -136 -178 c 0
 -136 -157 -123 -134 -91 -134 c 0
 -73 -134 -54 -141 -54 -162 c 0
 -54 -174 -60 -182 -60 -193 c 0
 -60 -209 -48 -218 -29 -218 c 0
 34 -218 58 -123 80 72 c 2
 121 440 l 2xf5
EndSplineSet
EndChar

StartChar: t
Encoding: 116 116 192
Width: 322
Flags: MW
HStem: -9 60<113.5 196.5> 389 31<70 118 43 123 207 285> 405 15<314 314> 520 20G<230 230>
VStem: 69 87<39 105>
LayerCount: 2
Fore
SplineSet
201 389 m 1xd8
 192 339 183 288 177 254 c 0
 168 201 156 119 156 91 c 0
 156 68 164 51 184 51 c 0
 209 51 240 76 264 100 c 1
 286 84 l 1
 246 31 201 -9 140 -9 c 0
 87 -9 69 21 69 57 c 0
 69 86 79 143 92 226 c 2
 118 389 l 1
 43 389 l 1
 70 420 l 1
 123 420 l 1
 140 524 l 1
 230 540 l 1
 207 420 l 1
 314 420 l 1xd8
 314 405 l 1xb8
 285 389 l 1
 201 389 l 1xd8
EndSplineSet
EndChar

StartChar: tcaron
Encoding: 357 357 193
Width: 322
Flags: MW
HStem: -9 60<113.5 196.5> 389 31<70 118 43 123 207 285> 405 15<314 314> 520 20G<230 230> 530 77<285 330> 587 20G<298.5 330>
VStem: 69 87<39 105> 267 96<552 568 528 571>
LayerCount: 2
Fore
SplineSet
260 451 m 1xd7
 283 467 305 493 307 511 c 0
 307 513 307 514 307 515 c 0
 307 527 300 530 293 530 c 0xcb
 277 530 267 544 267 560 c 0
 267 582 282 607 315 607 c 0
 345 607 363 582 363 554 c 0
 363 502 316 457 274 438 c 1
 260 451 l 1xd7
201 389 m 1
 177 254 l 2
 168 201 156 119 156 91 c 0
 156 68 164 51 184 51 c 0
 209 51 240 76 264 100 c 1
 286 84 l 1
 246 31 201 -9 140 -9 c 0
 87 -9 69 21 69 57 c 0
 69 86 79 143 92 226 c 2
 118 389 l 1
 43 389 l 1
 70 420 l 1
 123 420 l 1
 140 524 l 1
 230 540 l 1
 207 420 l 1
 314 420 l 1xd7
 314 405 l 1xb7
 285 389 l 1
 201 389 l 1
EndSplineSet
EndChar

StartChar: tcedilla
Encoding: 355 355 194
Width: 322
Flags: MW
HStem: -214 27<90.5 92.5 70.5 132.5> 389 31<70 118 43 123 207 285> 405 15<314 314> 520 20G<230 230>
VStem: 69 87<40.5 105> 80 49<-68.5 -64> 135 68<-143.5 -122.5>
LayerCount: 2
Fore
SplineSet
201 389 m 1xd2
 177 254 l 2
 168 201 156 119 156 91 c 0
 156 68 164 51 184 51 c 0xd8
 209 51 240 76 264 100 c 1
 286 84 l 1
 251 38 213 2 164 -7 c 1
 138 -43 l 2
 132 -51 129 -59 129 -63 c 0xd4
 129 -85 203 -73 203 -117 c 0
 203 -170 166 -214 99 -214 c 0
 82 -214 54 -213 33 -198 c 1
 45 -171 l 1
 52 -182 64 -187 77 -187 c 0
 108 -187 135 -161 135 -130 c 0
 135 -115 122 -103 110 -94 c 2xd2
 90 -80 l 2
 84 -76 80 -71 80 -66 c 0
 80 -62 82 -58 89 -52 c 1xd4
 127 -8 l 1
 84 -4 69 24 69 57 c 0
 69 86 79 143 92 226 c 2
 118 389 l 1
 43 389 l 1
 70 420 l 1
 123 420 l 1
 140 524 l 1
 230 540 l 1
 207 420 l 1
 314 420 l 1xd8
 314 405 l 1xb2
 285 389 l 1
 201 389 l 1xd2
EndSplineSet
EndChar

StartChar: uni021B
Encoding: 539 539 195
Width: 322
Flags: MW
HStem: -111 77<104 156.5> -9 60<113.5 196.5> 389 31<70 118 43 123 207 285> 405 15<314 314> 520 20G<230 230>
VStem: 69 87<39 105> 136 56
LayerCount: 2
Fore
SplineSet
201 389 m 1x6a
 177 254 l 2
 168 201 156 119 156 91 c 0
 156 68 164 51 184 51 c 0
 209 51 240 76 264 100 c 1
 286 84 l 1
 246 31 201 -9 140 -9 c 0
 87 -9 69 21 69 57 c 0
 69 86 79 143 92 226 c 2
 118 389 l 1
 43 389 l 1
 70 420 l 1
 123 420 l 1
 140 524 l 1
 230 540 l 1
 207 420 l 1
 314 420 l 1x6c
 314 405 l 1x5a
 285 389 l 1
 201 389 l 1x6a
79 -200 m 1xea
 107 -185 134 -158 136 -140 c 0
 139 -117 126 -111 112 -111 c 0
 96 -111 86 -97 86 -81 c 0
 86 -59 105 -34 139 -34 c 0
 174 -34 192 -59 192 -87 c 0
 192 -144 140 -192 93 -213 c 1
 79 -200 l 1xea
EndSplineSet
EndChar

StartChar: u
Encoding: 117 117 196
Width: 489
Flags: MW
HStem: -10 55<157.5 167> 406 20G<137.5 165> 408 20G<458 458>
VStem: 54 82<84 101> 104 85<328 414.5> 314 86<20.5 105>
LayerCount: 2
Fore
SplineSet
463 60 m 1xb4
 414 7 368 -10 338 -10 c 0
 319 -10 314 5 314 36 c 0
 314 64 322 118 331 179 c 1
 255 39 198 -10 136 -10 c 0
 80 -10 54 26 54 70 c 0xb4
 54 132 104 310 104 346 c 0
 104 368 87 373 67 373 c 0
 59 373 51 372 47 371 c 1
 42 400 l 1
 81 413 118 426 157 426 c 0
 173 426 189 422 189 407 c 0xcc
 189 377 136 157 136 99 c 0
 136 69 145 45 170 45 c 0
 228 45 319 188 348 292 c 1
 366 411 l 1
 458 428 l 1
 418 224 400 126 400 84 c 0
 400 73 404 67 413 67 c 0
 421 67 434 69 451 80 c 1
 463 60 l 1xb4
EndSplineSet
EndChar

StartChar: uacute
Encoding: 250 250 197
Width: 489
Flags: MW
HStem: -10 55<157.5 167> 406 20G<137.5 165> 408 20G<458 458>
VStem: 54 82<84 101> 104 85<328 414.5> 314 86<20.5 105>
LayerCount: 2
Fore
SplineSet
348 632 m 2xb4
 363 648 368 653 383 653 c 0
 407 653 437 635 437 627 c 0
 437 622 431 618 427 615 c 2
 256 502 l 2
 252 499 243 493 235 493 c 0
 225 493 221 496 221 500 c 0
 221 505 231 514 241 524 c 2
 348 632 l 2xb4
463 60 m 1
 414 7 368 -10 338 -10 c 0
 319 -10 314 5 314 36 c 0
 314 64 322 118 331 179 c 1
 255 39 198 -10 136 -10 c 0
 80 -10 54 26 54 70 c 0xb4
 54 132 104 310 104 346 c 0
 104 368 87 373 67 373 c 0
 59 373 51 372 47 371 c 1
 42 400 l 1
 81 413 118 426 157 426 c 0
 173 426 189 422 189 407 c 0xcc
 189 377 136 157 136 99 c 0
 136 69 145 45 170 45 c 0
 228 45 319 188 348 292 c 1
 366 411 l 1
 458 428 l 1
 418 224 400 126 400 84 c 0
 400 73 404 67 413 67 c 0
 421 67 434 69 451 80 c 1
 463 60 l 1
EndSplineSet
EndChar

StartChar: ucircumflex
Encoding: 251 251 198
Width: 489
Flags: MW
HStem: -10 55<157.5 167> 406 20G<137.5 165> 408 20G<458 458>
VStem: 54 82<84 101> 104 85<328 414.5> 314 86<20.5 105>
LayerCount: 2
Fore
SplineSet
178 505 m 2xb4
 169 500 157 493 149 493 c 0
 140 493 138 497 138 500 c 0
 138 508 178 532 224 576 c 2
 274 624 l 2
 290 639 303 649 308 649 c 0
 311 649 322 640 334 624 c 2
 370 576 l 2
 404 530 435 509 435 501 c 0
 435 499 433 493 422 493 c 0
 415 493 402 500 395 505 c 2
 298 578 l 1
 178 505 l 2xb4
463 60 m 1
 414 7 368 -10 338 -10 c 0
 319 -10 314 5 314 36 c 0
 314 64 322 118 331 179 c 1
 255 39 198 -10 136 -10 c 0
 80 -10 54 26 54 70 c 0xb4
 54 132 104 310 104 346 c 0
 104 368 87 373 67 373 c 0
 59 373 51 372 47 371 c 1
 42 400 l 1
 81 413 118 426 157 426 c 0
 173 426 189 422 189 407 c 0xcc
 189 377 136 157 136 99 c 0
 136 69 145 45 170 45 c 0
 228 45 319 188 348 292 c 1
 366 411 l 1
 458 428 l 1
 418 224 400 126 400 84 c 0
 400 73 404 67 413 67 c 0
 421 67 434 69 451 80 c 1
 463 60 l 1
EndSplineSet
EndChar

StartChar: udieresis
Encoding: 252 252 199
Width: 489
Flags: MW
HStem: -10 55<157.5 167> 406 20G<137.5 165> 408 20G<458 458> 548 95<203 224 377 398>
VStem: 54 82<84 101> 104 85<328 414.5> 158 109<585 605.5> 314 86<20.5 105> 332 109<585 605.5>
LayerCount: 2
Fore
SplineSet
220 643 m 0xba80
 249 643 267 627 267 602 c 0
 267 568 242 548 206 548 c 0
 178 548 158 563 158 589 c 0
 158 622 186 643 220 643 c 0xba80
394 643 m 0
 423 643 441 627 441 602 c 0
 441 568 416 548 380 548 c 0
 352 548 332 563 332 589 c 0
 332 622 360 643 394 643 c 0
463 60 m 1xb9
 414 7 368 -10 338 -10 c 0
 319 -10 314 5 314 36 c 0
 314 64 322 118 331 179 c 1
 255 39 198 -10 136 -10 c 0
 80 -10 54 26 54 70 c 0xb9
 54 132 104 310 104 346 c 0
 104 368 87 373 67 373 c 0
 59 373 51 372 47 371 c 1
 42 400 l 1
 81 413 118 426 157 426 c 0
 173 426 189 422 189 407 c 0xd480
 189 377 136 157 136 99 c 0
 136 69 145 45 170 45 c 0
 228 45 319 188 348 292 c 1
 366 411 l 1
 458 428 l 1
 418 224 400 126 400 84 c 0
 400 73 404 67 413 67 c 0
 421 67 434 69 451 80 c 1
 463 60 l 1xb9
EndSplineSet
EndChar

StartChar: ugrave
Encoding: 249 249 200
Width: 489
Flags: MW
HStem: -10 55<157.5 167> 406 20G<137.5 165> 408 20G<458 458>
VStem: 54 82<84 101> 104 85<328 414.5> 314 86<20.5 105>
LayerCount: 2
Fore
SplineSet
178 615 m 2xb4
 175 618 172 621 172 626 c 0
 172 635 207 653 232 653 c 0
 247 653 249 648 261 632 c 2
 343 518 l 2
 348 510 352 504 352 501 c 0
 352 496 347 493 335 493 c 0
 327 493 320 499 317 502 c 2
 178 615 l 2xb4
463 60 m 1
 414 7 368 -10 338 -10 c 0
 319 -10 314 5 314 36 c 0
 314 64 322 118 331 179 c 1
 255 39 198 -10 136 -10 c 0
 80 -10 54 26 54 70 c 0xb4
 54 132 104 310 104 346 c 0
 104 368 87 373 67 373 c 0
 59 373 51 372 47 371 c 1
 42 400 l 1
 81 413 118 426 157 426 c 0
 173 426 189 422 189 407 c 0xcc
 189 377 136 157 136 99 c 0
 136 69 145 45 170 45 c 0
 228 45 319 188 348 292 c 1
 366 411 l 1
 458 428 l 1
 418 224 400 126 400 84 c 0
 400 73 404 67 413 67 c 0
 421 67 434 69 451 80 c 1
 463 60 l 1
EndSplineSet
EndChar

StartChar: uhungarumlaut
Encoding: 369 369 201
Width: 489
Flags: MW
HStem: -10 55<157.5 167> 406 20G<137.5 165> 408 20G<458 458> 644 9
VStem: 54 82<84 101> 104 85<328 414.5> 314 86<20.5 105>
LayerCount: 2
Fore
SplineSet
290 653 m 0xba
 310 653 339 637 339 628 c 0
 339 626 336 622 330 616 c 0
 322 607 306 592 204 499 c 0
 200 495 193 493 187 493 c 0
 180 493 177 496 177 500 c 0
 177 503 178 506 181 510 c 0
 257 622 269 637 274 644 c 0
 280 652 283 653 290 653 c 0xba
402 653 m 0
 421 653 450 639 450 629 c 0
 450 627 448 623 442 616 c 0
 434 607 413 586 316 499 c 0
 310 494 304 493 299 493 c 0
 292 493 288 497 288 500 c 0
 288 503 290 506 292 510 c 0
 362 606 386 644 386 644 c 1
 393 652 395 653 402 653 c 0
463 60 m 1
 414 7 368 -10 338 -10 c 0
 319 -10 314 5 314 36 c 0
 314 64 322 118 331 179 c 1
 255 39 198 -10 136 -10 c 0
 80 -10 54 26 54 70 c 0xba
 54 132 104 310 104 346 c 0
 104 368 87 373 67 373 c 0
 59 373 51 372 47 371 c 1
 42 400 l 1
 81 413 118 426 157 426 c 0
 173 426 189 422 189 407 c 0xd6
 189 377 136 157 136 99 c 0
 136 69 145 45 170 45 c 0
 228 45 319 188 348 292 c 1
 366 411 l 1
 458 428 l 1
 418 224 400 126 400 84 c 0
 400 73 404 67 413 67 c 0
 421 67 434 69 451 80 c 1
 463 60 l 1
EndSplineSet
EndChar

StartChar: umacron
Encoding: 363 363 202
Width: 489
Flags: MW
HStem: -10 55<157.5 167> 406 20G<137.5 165> 408 20G<458 458> 567 40<181 417 175 423>
VStem: 54 82<84 101> 104 85<328 414.5> 314 86<20.5 105>
LayerCount: 2
Fore
SplineSet
417 567 m 1xba
 175 567 l 1
 181 607 l 1
 423 607 l 1
 417 567 l 1xba
463 60 m 1
 414 7 368 -10 338 -10 c 0
 319 -10 314 5 314 36 c 0
 314 64 322 118 331 179 c 1
 255 39 198 -10 136 -10 c 0
 80 -10 54 26 54 70 c 0xba
 54 132 104 310 104 346 c 0
 104 368 87 373 67 373 c 0
 59 373 51 372 47 371 c 1
 42 400 l 1
 81 413 118 426 157 426 c 0
 173 426 189 422 189 407 c 0xd6
 189 377 136 157 136 99 c 0
 136 69 145 45 170 45 c 0
 228 45 319 188 348 292 c 1
 366 411 l 1
 458 428 l 1
 418 224 400 126 400 84 c 0
 400 73 404 67 413 67 c 0
 421 67 434 69 451 80 c 1
 463 60 l 1
EndSplineSet
EndChar

StartChar: uogonek
Encoding: 371 371 203
Width: 489
Flags: MW
HStem: -159 43<339.5 406.5> -10 55<157.5 167> 406 20G<137.5 165> 408 20G<458 458>
VStem: 54 82<84 101> 104 85<328 414.5> 293 58<-83.5 -81.5> 314 86<20.5 105>
LayerCount: 2
Fore
SplineSet
477 -99 m 1xda
 441 -137 398 -159 356 -159 c 0
 323 -159 293 -138 293 -97 c 0xda
 293 -66 309 -35 341 -10 c 1
 338 -10 l 2
 319 -10 314 5 314 36 c 0
 314 64 322 118 331 179 c 1
 255 39 198 -10 136 -10 c 0
 80 -10 54 26 54 70 c 0xd9
 54 132 104 310 104 346 c 0
 104 368 87 373 67 373 c 0
 59 373 51 372 47 371 c 1
 42 400 l 1
 81 413 118 426 157 426 c 0
 173 426 189 422 189 407 c 0xe6
 189 377 136 157 136 99 c 0
 136 69 145 45 170 45 c 0
 228 45 319 188 348 292 c 1
 366 411 l 1
 458 428 l 1
 418 224 400 126 400 84 c 0
 400 73 404 67 413 67 c 0
 421 67 434 69 451 80 c 1
 463 60 l 1
 444 40 426 25 409 14 c 0xd9
 404 11 399 8 395 6 c 0
 368 -12 351 -40 351 -71 c 0
 351 -96 364 -116 396 -116 c 0
 417 -116 440 -105 465 -85 c 1
 477 -99 l 1xda
EndSplineSet
EndChar

StartChar: uring
Encoding: 367 367 204
Width: 489
Flags: MW
HStem: -10 55<157.5 167> 406 20G<137.5 165> 408 20G<458 458> 493 36<282 304.5 282 314> 620 36<292.5 315.5>
VStem: 54 82<84 101> 104 85<328 414.5> 218 45<557.5 582.5 557.5 591> 314 86<20.5 105> 335 46<567.5 592>
LayerCount: 2
Fore
SplineSet
218 565 m 0xbd40
 218 617 261 656 310 656 c 0
 355 656 381 629 381 585 c 0
 381 531 341 493 287 493 c 0
 243 493 218 521 218 565 c 0xbd40
263 569 m 0
 263 546 272 529 292 529 c 0
 317 529 335 554 335 581 c 0
 335 603 326 620 305 620 c 0
 280 620 263 596 263 569 c 0
463 60 m 1xbd80
 414 7 368 -10 338 -10 c 0
 319 -10 314 5 314 36 c 0
 314 64 322 118 331 179 c 1
 255 39 198 -10 136 -10 c 0
 80 -10 54 26 54 70 c 0xbd80
 54 132 104 310 104 346 c 0
 104 368 87 373 67 373 c 0
 59 373 51 372 47 371 c 1
 42 400 l 1
 81 413 118 426 157 426 c 0
 173 426 189 422 189 407 c 0xdb40
 189 377 136 157 136 99 c 0
 136 69 145 45 170 45 c 0
 228 45 319 188 348 292 c 1
 366 411 l 1
 458 428 l 1
 418 224 400 126 400 84 c 0
 400 73 404 67 413 67 c 0
 421 67 434 69 451 80 c 1
 463 60 l 1xbd80
EndSplineSet
EndChar

StartChar: v
Encoding: 118 118 205
Width: 411
Flags: MW
HStem: 374 52<37.5 115.5> 406 20G<92 115.5> 409 20G<322 360.5>
VStem: 348 56<320.5 325>
LayerCount: 2
Fore
SplineSet
217 78 m 1x30
 282 152 348 258 348 315 c 0
 348 335 339 338 315 339 c 0
 298 340 287 357 287 381 c 0
 287 412 304 429 340 429 c 0
 381 429 404 407 404 368 c 0x30
 404 273 264 66 185 -5 c 1
 158 -5 l 1
 74 341 l 2
 68 366 59 374 41 374 c 0
 34 374 26 373 16 371 c 1x90
 11 400 l 1
 39 413 80 426 104 426 c 0
 127 426 144 415 153 368 c 1x50
 217 78 l 1x30
EndSplineSet
EndChar

StartChar: w
Encoding: 119 119 206
Width: 662
Flags: MW
HStem: 400 20 406 20G<92 115.5> 409 20G<573 611.5>
VStem: 599 56<320.5 325>
LayerCount: 2
Fore
SplineSet
468 79 m 1x90
 533 154 599 262 599 315 c 0
 599 335 590 338 566 339 c 0
 549 340 538 357 538 381 c 0
 538 412 555 429 591 429 c 0
 632 429 655 407 655 368 c 0x30
 655 273 515 66 436 -5 c 1
 409 -5 l 1
 356 228 l 1
 308 137 235 39 185 -5 c 1
 158 -5 l 1
 74 341 l 2
 68 366 59 374 41 374 c 0
 34 374 26 373 16 371 c 1
 11 400 l 1
 39 413 80 426 104 426 c 0
 127 426 144 415 153 368 c 1x50
 217 79 l 1
 271 141 326 227 343 284 c 1
 324 353 l 2
 318 376 309 398 301 420 c 1
 393 420 l 1
 468 79 l 1x90
EndSplineSet
EndChar

StartChar: wacute
Encoding: 7811 7811 207
Width: 662
Flags: MW
HStem: 400 20 406 20G<92 115.5> 409 20G<573 611.5>
VStem: 599 56<320.5 325>
LayerCount: 2
Fore
SplineSet
434 632 m 2x90
 449 648 454 653 469 653 c 0
 493 653 523 635 523 627 c 0
 523 622 517 618 513 615 c 2
 342 502 l 2
 338 499 329 493 321 493 c 0
 311 493 307 496 307 500 c 0
 307 505 317 514 327 524 c 2
 434 632 l 2x90
468 79 m 1
 533 154 599 262 599 315 c 0
 599 335 590 338 566 339 c 0
 549 340 538 357 538 381 c 0
 538 412 555 429 591 429 c 0
 632 429 655 407 655 368 c 0x30
 655 273 515 66 436 -5 c 1
 409 -5 l 1
 356 228 l 1
 308 137 235 39 185 -5 c 1
 158 -5 l 1
 74 341 l 2
 68 366 59 374 41 374 c 0
 34 374 26 373 16 371 c 1
 11 400 l 1
 39 413 80 426 104 426 c 0
 127 426 144 415 153 368 c 1x50
 217 79 l 1
 271 141 326 227 343 284 c 1
 324 353 l 2
 318 376 309 398 301 420 c 1
 393 420 l 1
 468 79 l 1
EndSplineSet
EndChar

StartChar: wcircumflex
Encoding: 373 373 208
Width: 662
Flags: MW
HStem: 400 20 406 20G<92 115.5> 409 20G<573 611.5>
VStem: 599 56<320.5 325>
LayerCount: 2
Fore
SplineSet
264 505 m 2x90
 255 500 243 493 235 493 c 0
 226 493 224 497 224 500 c 0
 224 508 264 532 310 576 c 2
 360 624 l 2
 376 639 389 649 394 649 c 0
 397 649 408 640 420 624 c 2
 456 576 l 2
 490 530 521 509 521 501 c 0
 521 499 519 493 508 493 c 0
 501 493 488 500 481 505 c 2
 384 578 l 1
 264 505 l 2x90
468 79 m 1
 533 154 599 262 599 315 c 0
 599 335 590 338 566 339 c 0
 549 340 538 357 538 381 c 0
 538 412 555 429 591 429 c 0
 632 429 655 407 655 368 c 0x30
 655 273 515 66 436 -5 c 1
 409 -5 l 1
 356 228 l 1
 308 137 235 39 185 -5 c 1
 158 -5 l 1
 74 341 l 2
 68 366 59 374 41 374 c 0
 34 374 26 373 16 371 c 1
 11 400 l 1
 39 413 80 426 104 426 c 0
 127 426 144 415 153 368 c 1x50
 217 79 l 1
 271 141 326 227 343 284 c 1
 324 353 l 2
 318 376 309 398 301 420 c 1
 393 420 l 1
 468 79 l 1
EndSplineSet
EndChar

StartChar: wdieresis
Encoding: 7813 7813 209
Width: 662
Flags: MW
HStem: 400 20 406 20G<92 115.5> 409 20G<573 611.5> 548 95<289 310 463 484>
VStem: 244 109<585 605.5> 418 109<585 605.5> 599 56<320.5 325>
LayerCount: 2
Fore
SplineSet
306 643 m 0x9e
 335 643 353 627 353 602 c 0
 353 568 328 548 292 548 c 0
 264 548 244 563 244 589 c 0
 244 622 272 643 306 643 c 0x9e
480 643 m 0
 509 643 527 627 527 602 c 0
 527 568 502 548 466 548 c 0
 438 548 418 563 418 589 c 0
 418 622 446 643 480 643 c 0
468 79 m 1
 533 154 599 262 599 315 c 0
 599 335 590 338 566 339 c 0
 549 340 538 357 538 381 c 0
 538 412 555 429 591 429 c 0
 632 429 655 407 655 368 c 0x3e
 655 273 515 66 436 -5 c 1
 409 -5 l 1
 356 228 l 1
 308 137 235 39 185 -5 c 1
 158 -5 l 1
 74 341 l 2
 68 366 59 374 41 374 c 0
 34 374 26 373 16 371 c 1
 11 400 l 1
 39 413 80 426 104 426 c 0
 127 426 144 415 153 368 c 1x5e
 217 79 l 1
 271 141 326 227 343 284 c 1
 324 353 l 2
 318 376 309 398 301 420 c 1
 393 420 l 1
 468 79 l 1
EndSplineSet
EndChar

StartChar: wgrave
Encoding: 7809 7809 210
Width: 662
Flags: MW
HStem: 400 20 406 20G<92 115.5> 409 20G<573 611.5>
VStem: 599 56<320.5 325>
LayerCount: 2
Fore
SplineSet
264 615 m 2x90
 261 618 258 621 258 626 c 0
 258 635 293 653 318 653 c 0
 333 653 335 648 347 632 c 2
 429 518 l 2
 434 510 438 504 438 501 c 0
 438 496 433 493 421 493 c 0
 413 493 406 499 403 502 c 2
 264 615 l 2x90
468 79 m 1
 533 154 599 262 599 315 c 0
 599 335 590 338 566 339 c 0
 549 340 538 357 538 381 c 0
 538 412 555 429 591 429 c 0
 632 429 655 407 655 368 c 0x30
 655 273 515 66 436 -5 c 1
 409 -5 l 1
 356 228 l 1
 308 137 235 39 185 -5 c 1
 158 -5 l 1
 74 341 l 2
 68 366 59 374 41 374 c 0
 34 374 26 373 16 371 c 1
 11 400 l 1
 39 413 80 426 104 426 c 0
 127 426 144 415 153 368 c 1x50
 217 79 l 1
 271 141 326 227 343 284 c 1
 324 353 l 2
 318 376 309 398 301 420 c 1
 393 420 l 1
 468 79 l 1
EndSplineSet
EndChar

StartChar: x
Encoding: 120 120 211
Width: 471
Flags: MW
HStem: -10 94<40 62 39.5 71.5> 328 94<411 433 401.5 433.5> 374 52<94.5 175.5> 406 20G<149 175.5>
VStem: 9 455<16.5 395.5>
LayerCount: 2
Fore
SplineSet
328 363 m 2xc8
 350 396 381 422 422 422 c 0
 444 422 464 412 464 379 c 0
 464 351 446 328 421 328 c 0
 401 328 384 348 367 347 c 0
 357 346 349 343 339 329 c 2
 272 229 l 1xc8
 335 81 l 2
 341 69 346 66 355 66 c 0
 366 66 386 72 415 85 c 1
 427 65 l 1
 381 19 335 -10 309 -10 c 0
 293 -10 283 -3 273 17 c 1
 214 154 l 1
 145 49 l 2
 121 13 92 -10 51 -10 c 0
 29 -10 9 0 9 33 c 0
 9 61 27 84 52 84 c 0
 72 84 89 64 106 65 c 0
 116 66 124 69 134 84 c 2
 201 184 l 1
 134 341 l 2
 123 366 119 374 101 374 c 0
 88 374 74 373 56 371 c 1xa8
 51 400 l 1
 85 413 134 426 164 426 c 0
 187 426 195 411 213 368 c 2x98
 259 259 l 1
 328 363 l 2xc8
EndSplineSet
EndChar

StartChar: y
Encoding: 121 121 212
Width: 411
Flags: MW
HStem: -239 94<-69 -50.5 -76.5 -41.5> 374 52<37.5 115.5> 406 20G<92 115.5> 409 20G<322 360.5>
VStem: 351 53<287 387.5>
LayerCount: 2
Fore
SplineSet
239 66 m 1x98
 299 156 351 259 351 315 c 0
 351 336 344 337 315 339 c 0
 298 340 287 357 287 381 c 0
 287 412 304 429 340 429 c 0
 381 429 404 407 404 368 c 0x98
 404 303 339 157 263 39 c 0
 113 -195 -25 -239 -58 -239 c 0
 -80 -239 -108 -236 -108 -195 c 0
 -108 -171 -90 -145 -63 -145 c 0
 -38 -145 -19 -169 8 -169 c 0
 26 -169 95 -123 181 -15 c 1
 74 341 l 1
 68 366 59 374 41 374 c 0
 34 374 26 373 16 371 c 1xc8
 11 400 l 1
 39 413 80 426 104 426 c 0
 127 426 140 414 153 368 c 2xa8
 239 66 l 1x98
EndSplineSet
Substitution2: "Single Substitution lookup 23 subtable" y.ss01
Substitution2: "'ss01' Style Set 1 lookup 16 subtable" y.ss01
Substitution2: "'salt' Stylistic Alternatives lookup 15 subtable" y.ss01
Substitution2: "'aalt' Access All Alternates lookup 0 subtable" y.ss01
EndChar

StartChar: yacute
Encoding: 253 253 213
Width: 411
Flags: MW
HStem: -239 94<-69 -50.5 -76.5 -41.5> 374 52<37.5 115.5> 406 20G<92 115.5> 409 20G<322 360.5>
VStem: 351 53<287 387.5>
LayerCount: 2
Fore
SplineSet
309 632 m 2x98
 324 648 329 653 344 653 c 0
 368 653 398 635 398 627 c 0
 398 622 392 618 388 615 c 2
 217 502 l 2
 213 499 204 493 196 493 c 0
 186 493 182 496 182 500 c 0
 182 505 192 514 202 524 c 2
 309 632 l 2x98
239 66 m 1
 299 156 351 259 351 315 c 0
 351 336 344 337 315 339 c 0
 298 340 287 357 287 381 c 0
 287 412 304 429 340 429 c 0
 381 429 404 407 404 368 c 0x98
 404 303 339 157 263 39 c 0
 113 -195 -25 -239 -58 -239 c 0
 -80 -239 -108 -236 -108 -195 c 0
 -108 -171 -90 -145 -63 -145 c 0
 -38 -145 -19 -169 8 -169 c 0
 26 -169 95 -123 181 -15 c 1
 74 341 l 1
 68 366 59 374 41 374 c 0
 34 374 26 373 16 371 c 1xc8
 11 400 l 1
 39 413 80 426 104 426 c 0
 127 426 140 414 153 368 c 2xa8
 239 66 l 1
EndSplineSet
Substitution2: "Single Substitution lookup 23 subtable" yacute.ss01
Substitution2: "'ss01' Style Set 1 lookup 16 subtable" yacute.ss01
Substitution2: "'salt' Stylistic Alternatives lookup 15 subtable" yacute.ss01
Substitution2: "'aalt' Access All Alternates lookup 0 subtable" yacute.ss01
EndChar

StartChar: ycircumflex
Encoding: 375 375 214
Width: 411
Flags: MW
HStem: -239 94<-69 -50.5 -76.5 -41.5> 374 52<37.5 115.5> 406 20G<92 115.5> 409 20G<322 360.5>
VStem: 351 53<287 387.5>
LayerCount: 2
Fore
SplineSet
139 505 m 2x98
 130 500 118 493 110 493 c 0
 101 493 99 497 99 500 c 0
 99 508 139 532 185 576 c 2
 235 624 l 2
 251 639 264 649 269 649 c 0
 272 649 283 640 295 624 c 2
 331 576 l 2
 365 530 396 509 396 501 c 0
 396 499 394 493 383 493 c 0
 376 493 363 500 356 505 c 2
 259 578 l 1
 139 505 l 2x98
239 66 m 1
 299 156 351 259 351 315 c 0
 351 336 344 337 315 339 c 0
 298 340 287 357 287 381 c 0
 287 412 304 429 340 429 c 0
 381 429 404 407 404 368 c 0x98
 404 303 339 157 263 39 c 0
 113 -195 -25 -239 -58 -239 c 0
 -80 -239 -108 -236 -108 -195 c 0
 -108 -171 -90 -145 -63 -145 c 0
 -38 -145 -19 -169 8 -169 c 0
 26 -169 95 -123 181 -15 c 1
 74 341 l 1
 68 366 59 374 41 374 c 0
 34 374 26 373 16 371 c 1xc8
 11 400 l 1
 39 413 80 426 104 426 c 0
 127 426 140 414 153 368 c 2xa8
 239 66 l 1
EndSplineSet
Substitution2: "Single Substitution lookup 23 subtable" ycircumflex.ss01
Substitution2: "'ss01' Style Set 1 lookup 16 subtable" ycircumflex.ss01
Substitution2: "'salt' Stylistic Alternatives lookup 15 subtable" ycircumflex.ss01
Substitution2: "'aalt' Access All Alternates lookup 0 subtable" ycircumflex.ss01
EndChar

StartChar: ydieresis
Encoding: 255 255 215
Width: 411
Flags: MW
HStem: -239 94<-69 -50.5 -76.5 -41.5> 374 52<37.5 115.5> 406 20G<92 115.5> 409 20G<322 360.5> 548 95<164 185 338 359>
VStem: 119 109<585 605.5> 293 109<585 605.5> 351 53<287 387.5>
LayerCount: 2
Fore
SplineSet
181 643 m 0x9d
 210 643 228 627 228 602 c 0
 228 568 203 548 167 548 c 0
 139 548 119 563 119 589 c 0
 119 622 147 643 181 643 c 0x9d
355 643 m 0x9e
 384 643 402 627 402 602 c 0
 402 568 377 548 341 548 c 0
 313 548 293 563 293 589 c 0
 293 622 321 643 355 643 c 0x9e
239 66 m 1xad
 299 156 351 259 351 315 c 0
 351 336 344 337 315 339 c 0
 298 340 287 357 287 381 c 0
 287 412 304 429 340 429 c 0
 381 429 404 407 404 368 c 0x9d
 404 303 339 157 263 39 c 0
 113 -195 -25 -239 -58 -239 c 0
 -80 -239 -108 -236 -108 -195 c 0
 -108 -171 -90 -145 -63 -145 c 0
 -38 -145 -19 -169 8 -169 c 0
 26 -169 95 -123 181 -15 c 1
 74 341 l 1
 68 366 59 374 41 374 c 0
 34 374 26 373 16 371 c 1xcd
 11 400 l 1
 39 413 80 426 104 426 c 0
 127 426 140 414 153 368 c 2
 239 66 l 1xad
EndSplineSet
Substitution2: "Single Substitution lookup 23 subtable" ydieresis.ss01
Substitution2: "'ss01' Style Set 1 lookup 16 subtable" ydieresis.ss01
Substitution2: "'salt' Stylistic Alternatives lookup 15 subtable" ydieresis.ss01
Substitution2: "'aalt' Access All Alternates lookup 0 subtable" ydieresis.ss01
EndChar

